<?xml version="1.0" standalone="no"?>
<!DOCTYPE svg PUBLIC "-//W3C//DTD SVG 20010904//EN"
 "http://www.w3.org/TR/2001/REC-SVG-20010904/DTD/svg10.dtd">
<svg version="1.0" xmlns="http://www.w3.org/2000/svg"
 width="1280.000000pt" height="1280.000000pt" viewBox="0 0 1280.000000 1280.000000"
 preserveAspectRatio="xMidYMid meet">

<g transform="translate(0.000000,1280.000000) scale(0.100000,-0.100000)"
fill="#000000" stroke="none">
<path d="M8367 12079 c-21 -5 -50 -15 -65 -23 -42 -22 -108 -98 -123 -142 -17
-51 -16 -150 3 -195 20 -46 73 -106 112 -126 39 -21 79 -26 73 -9 -3 6 3 12
12 12 9 0 17 -8 17 -17 0 -11 -8 -15 -23 -13 l-23 2 0 -1149 0 -1149 -840 0
-840 0 0 453 c0 446 -8 576 -33 560 -6 -3 -7 -1 -3 5 8 13 -35 93 -47 89 -5
-1 -7 -7 -5 -12 2 -6 7 -9 11 -7 5 1 6 -2 3 -7 -4 -5 2 -14 11 -20 15 -9 14
-10 -7 -7 -14 3 -29 5 -35 5 -5 1 -3 6 5 11 11 7 12 10 2 10 -8 0 -12 6 -9 13
2 6 -3 21 -12 32 -16 20 -16 20 7 1 12 -11 22 -15 21 -10 -1 17 -62 58 -113
76 -47 16 -125 17 -1102 18 -1159 0 -1110 3 -1195 -63 -24 -18 -41 -35 -38
-39 2 -4 -6 -14 -17 -23 -12 -8 -30 -34 -40 -57 -18 -40 -19 -80 -22 -535 l-3
-493 -103 0 c-62 0 -122 -6 -153 -15 -62 -19 -143 -88 -172 -148 -24 -50 -28
-83 -7 -54 7 9 15 17 18 17 14 0 5 -77 -13 -111 -18 -35 -19 -51 -13 -140 4
-60 10 -95 15 -87 5 7 9 8 9 2 0 -6 -2 -13 -5 -16 -3 -3 -7 -104 -9 -224 -2
-120 -7 -228 -11 -239 -7 -16 -5 -18 5 -8 8 7 17 32 21 55 l6 43 2 -41 c1 -29
-6 -50 -22 -70 l-22 -29 -3 -815 c-1 -588 1 -811 9 -800 8 12 10 8 6 -15 -11
-63 58 -160 148 -209 40 -21 41 -21 815 -21 l775 0 -745 2 c-409 2 -747 6
-752 11 -4 4 471 4 1055 0 584 -4 1398 -7 1810 -5 411 1 747 -1 747 -5 0 -5
350 -8 778 -8 535 1 772 4 759 11 -9 5 -22 7 -27 4 -5 -3 -7 0 -5 7 4 9 19 12
48 9 33 -3 38 -5 22 -12 -11 -4 -14 -8 -7 -8 40 -2 181 107 167 129 -4 6 -2
10 3 10 6 0 17 18 26 40 14 36 16 126 15 823 -1 430 -4 807 -9 837 -6 43 -8
47 -9 20 -1 -19 -6 -42 -12 -50 -8 -11 -9 -2 -5 34 4 30 2 54 -5 62 -9 11 -7
15 5 20 13 5 16 23 15 108 0 71 -3 95 -10 81 -7 -15 -7 -12 -2 10 10 37 9 235
-1 290 -6 30 -5 36 3 25 6 -8 11 -28 12 -45 3 -51 16 105 18 205 1 81 -3 103
-23 146 -25 55 -41 71 -51 54 -3 -5 2 -10 11 -10 19 0 11 -13 -10 -16 -15 -2
-16 13 -2 35 10 16 -28 50 -94 83 -43 22 -58 23 -307 26 l-263 3 0 1144 c0
629 -3 1152 -6 1162 -4 13 -3 14 3 5 12 -15 68 2 58 18 -3 5 0 7 7 5 20 -8 78
53 104 110 27 57 31 138 10 197 -21 59 -72 116 -101 114 -14 0 -25 -4 -25 -8
0 -4 -11 -3 -24 3 -19 9 -22 14 -13 25 10 10 14 10 25 -4 11 -14 12 -14 12 0
0 30 -117 53 -183 37z m67 -10 c-5 -8 3 -10 25 -7 18 3 34 1 37 -4 3 -4 -13
-8 -35 -8 -38 0 -50 8 -34 23 10 11 15 8 7 -4z m-25 -15 c2 -2 -18 -4 -45 -3
-36 0 -44 3 -29 9 18 7 63 3 74 -6z m-47 -26 c6 -11 10 -10 17 0 12 19 55 11
59 -10 3 -16 -5 -18 -63 -18 -54 0 -66 3 -62 14 4 11 0 13 -15 11 -28 -6 -56
-32 -79 -75 -15 -27 -18 -29 -14 -10 10 40 74 95 114 98 20 2 38 -3 43 -10z
m246 -39 c-10 -7 -9 -9 4 -9 9 0 19 -4 22 -8 11 -18 -32 -6 -47 14 -15 20 -15
21 10 16 18 -3 21 -7 11 -13z m-3 -49 c18 -20 18 -20 -3 -17 -27 4 -36 13 -27
26 8 14 9 14 30 -9z m62 -48 c-4 -13 -5 -12 -6 5 0 12 -5 25 -11 28 -5 3 -10
11 -10 18 0 6 7 1 16 -11 8 -12 13 -30 11 -40z m-467 8 c0 -5 -5 -10 -11 -10
-5 0 -7 5 -4 10 3 6 8 10 11 10 2 0 4 -4 4 -10z m-9 -80 c6 18 7 11 6 -27 -1
-29 -5 -53 -9 -53 -5 0 -8 8 -8 18 0 9 -2 33 -4 52 -2 19 -1 24 2 10 l5 -25 8
25z m489 -37 c-1 -24 -2 -26 -11 -10 -5 9 -7 22 -4 27 10 17 15 11 15 -17z
m-10 -42 c0 -4 -7 -8 -15 -8 -16 0 -20 9 -9 20 8 8 24 -1 24 -12z m-435 -41
c-4 -33 -2 -35 25 -20 15 8 18 6 16 -8 -2 -9 8 -27 22 -38 15 -14 20 -24 13
-28 -15 -10 -33 3 -25 16 5 7 1 9 -9 5 -12 -4 -14 -2 -10 10 5 12 2 15 -10 10
-18 -7 -43 27 -39 51 2 7 -2 11 -9 10 -6 -2 -14 4 -16 12 -4 12 -3 12 5 2 7
-11 10 -11 16 3 10 26 25 8 21 -25z m405 -25 c0 -2 -10 -10 -22 -16 -21 -11
-22 -11 -9 4 13 16 31 23 31 12z m-54 -29 c10 -11 11 -17 3 -22 -6 -3 -15 0
-20 7 -18 29 -7 39 17 15z m-246 -56 c0 -5 -2 -10 -4 -10 -3 0 -8 5 -11 10 -3
6 -1 10 4 10 6 0 11 -4 11 -10z m190 6 c0 -3 -4 -8 -10 -11 -5 -3 -10 -1 -10
4 0 6 5 11 10 11 6 0 10 -2 10 -4z m-43 -1764 c-1 -317 -2 -57 -2 578 0 635 1
895 2 578 2 -318 2 -838 0 -1156z m-99 -558 c12 -9 14 -16 6 -24 -12 -12 -47
-3 -39 10 3 5 6 519 8 1142 l2 1133 2 -1124 c3 -1056 4 -1125 21 -1137z
m-1968 1186 c8 -5 11 -12 7 -16 -3 -4 -13 -2 -20 5 -10 8 -292 12 -1043 14
l-1029 2 1035 2 c625 2 1041 -1 1050 -7z m-2139 -20 c6 0 8 3 6 8 -8 11 2094
4 2118 -8 11 -5 34 -11 50 -13 25 -3 23 -4 -10 -6 -31 -1 -37 -4 -25 -12 10
-7 11 -9 2 -7 -8 2 -13 7 -12 12 1 5 -4 13 -12 17 -7 5 -469 9 -1025 9 -997 0
-1013 0 -1013 -19 0 -16 -6 -19 -32 -17 -42 4 -69 16 -62 27 3 5 0 9 -6 9 -6
0 -8 5 -4 12 6 9 9 9 12 0 2 -7 8 -12 13 -12z m-57 -30 c-6 -6 -10 -3 -10 10
0 13 4 16 10 10 7 -7 7 -13 0 -20z m2301 0 c-3 -5 -14 -8 -25 -7 -10 1 -17 5
-14 9 3 4 12 4 21 1 12 -5 14 -3 8 7 -5 9 -4 11 4 6 6 -4 9 -11 6 -16z m-2359
-19 c-10 -10 -16 -27 -14 -36 2 -13 -5 -19 -27 -21 -27 -3 -28 -2 -7 6 12 5
22 16 22 24 0 8 7 22 16 30 22 23 31 20 10 -3z m-60 -107 c-3 -8 -10 -13 -16
-9 -6 4 -5 13 3 26 13 21 23 8 13 -17z m2514 17 c0 -5 -7 -11 -14 -14 -10 -4
-13 -1 -9 9 6 15 23 19 23 5z m28 -548 l-3 -498 -5 430 c-5 411 -3 565 6 565
2 0 3 -224 2 -497z m-2569 435 c1 7 16 12 41 12 l40 0 0 -60 0 -60 -39 0 c-29
0 -41 5 -44 18 -3 9 -5 -173 -6 -406 0 -232 -3 -427 -6 -432 -3 -6 -57 -10
-118 -11 -150 -1 -187 -17 -47 -20 l105 -3 -107 -5 c-58 -3 -110 -9 -114 -13
-4 -5 52 -8 124 -8 125 0 132 -1 132 -20 0 -18 7 -20 60 -20 53 0 60 -2 60
-20 0 -19 -7 -20 -180 -20 l-180 0 0 35 c0 33 -2 35 -26 29 -17 -4 -29 -2 -35
7 -7 11 -9 10 -9 -4 0 -10 -5 -15 -10 -12 -6 3 -13 -1 -16 -9 -3 -9 -10 -13
-15 -10 -5 3 -9 -1 -9 -9 0 -8 -7 -17 -15 -21 -28 -10 -15 13 31 56 63 59 99
71 242 77 l123 6 0 475 c0 278 4 467 9 455 5 -11 9 -14 9 -7z m1574 -5 c-161
-2 -425 -2 -586 0 -160 1 -29 2 293 2 322 0 453 -1 293 -2z m-308 -23 c-567
-5 -581 -5 -626 -26 -60 -28 -125 -93 -153 -153 -21 -45 -21 -59 -26 -631 l-5
-585 -3 570 c-1 354 2 583 8 605 8 27 7 36 -5 43 -9 4 -12 13 -9 19 5 7 12 5
21 -7 14 -20 17 -13 14 30 -1 14 1 16 7 7 6 -9 18 -1 43 30 19 24 33 46 31 51
-1 4 6 7 16 7 9 0 35 11 57 24 l40 23 585 0 585 -1 -580 -6z m635 -7 c0 5 7 1
16 -7 10 -10 26 -14 44 -11 28 5 52 -19 27 -28 -7 -2 2 -13 20 -23 18 -10 34
-27 37 -37 2 -11 9 -16 15 -13 5 4 13 1 17 -5 4 -8 3 -9 -4 -5 -7 4 -12 3 -12
-3 0 -6 9 -15 20 -21 11 -6 17 -16 14 -22 -5 -7 -1 -9 9 -5 10 3 17 2 17 -3 0
-6 6 -10 14 -10 8 0 18 -5 22 -11 8 -14 -16 -31 -34 -24 -10 4 -12 -110 -10
-590 2 -327 1 -587 -3 -578 -3 10 -10 0 -18 -28 -7 -24 -17 -49 -23 -56 -5 -7
-6 -18 -2 -24 4 -7 3 -9 -4 -5 -11 6 -26 -10 -27 -29 -1 -5 -6 -9 -12 -8 -6 1
-14 -5 -17 -13 -5 -12 -2 -15 11 -9 10 4 26 8 37 11 18 3 18 2 1 -16 -12 -13
-27 -18 -49 -15 -28 4 -29 3 -12 -10 17 -13 17 -15 3 -30 -18 -18 -75 -40 -83
-32 -3 3 8 8 24 12 24 5 30 11 28 31 -1 28 -8 30 -26 9 -10 -12 -10 -15 0 -15
8 0 10 -3 7 -6 -4 -4 -13 -2 -20 5 -11 8 -20 7 -38 -6 -22 -17 -62 -18 -619
-13 -327 4 -605 10 -616 14 -19 7 -21 5 -17 -18 5 -23 2 -26 -26 -26 -35 0
-43 24 -13 46 16 12 16 14 -5 33 -23 22 -38 28 -28 11 3 -6 -1 -7 -9 -4 -13 5
-16 -2 -16 -40 0 -45 -1 -46 -31 -46 l-30 0 2 70 c2 53 6 73 18 80 14 7 11 14
-20 47 -20 21 -36 46 -36 55 0 9 4 15 9 12 4 -3 8 1 9 8 0 7 7 -5 15 -27 8
-22 28 -57 45 -77 20 -25 25 -38 16 -38 -9 0 -14 -10 -14 -24 0 -21 2 -23 18
-13 10 6 15 16 11 21 -3 6 10 0 29 -12 89 -60 51 -57 699 -57 l595 0 51 27
c60 32 118 93 148 157 21 45 21 55 21 626 0 655 2 635 -79 723 -40 43 -119 91
-153 93 -16 0 -15 1 2 8 12 5 23 4 27 -3 4 -6 8 -7 8 -3z m-1290 -5 c0 -4 -7
-8 -15 -8 -8 0 -15 4 -15 8 0 5 7 9 15 9 8 0 15 -4 15 -9z m-191 -225 c0 -5
-4 -17 -9 -28 -8 -18 -9 -17 -9 8 -1 15 4 27 9 27 6 0 10 -3 9 -7z m990 -28
c190 -45 335 -177 409 -373 22 -58 26 -83 26 -182 0 -99 -4 -124 -26 -182 -57
-150 -151 -259 -279 -323 -228 -115 -481 -75 -660 104 -177 177 -220 422 -113
648 75 158 245 288 414 316 58 10 170 6 229 -8z m2851 -642 c0 -9 -1649 -7
-1658 1 -3 3 369 6 827 6 457 0 831 -3 831 -7z m635 -3 c-16 -4 -117 -8 -222
-9 -186 -1 -193 -2 -193 -21 0 -17 7 -20 40 -20 l40 0 0 -101 0 -101 -42 7
c-60 10 -78 32 -78 99 0 34 5 56 13 59 9 4 8 8 -3 17 -11 9 -12 13 -2 17 15 6
16 43 1 43 -5 0 -8 4 -4 9 3 6 106 10 243 9 133 0 224 -3 207 -8z m82 -35 c0
-8 -4 -12 -9 -9 -5 3 -6 10 -3 15 9 13 12 11 12 -6z m75 -23 c18 -15 15 -37
-4 -26 -7 5 -9 -2 -6 -20 5 -22 2 -26 -19 -26 -23 0 -24 3 -22 43 2 24 -1 49
-5 56 -7 11 -4 11 15 1 13 -7 32 -19 41 -28z m-5366 -30 c6 -4 13 -15 17 -24
5 -15 1 -18 -28 -18 -35 0 -40 5 -29 34 7 17 22 20 40 8z m3274 -52 c0 -5 -16
-10 -36 -10 -21 0 -33 4 -29 10 3 6 19 10 36 10 16 0 29 -4 29 -10z m-3409
-23 c-10 -9 -11 -8 -5 6 3 10 9 15 12 12 3 -3 0 -11 -7 -18z m3365 -18 c13
-11 18 -11 21 -1 3 6 9 12 14 12 6 0 7 -5 4 -10 -4 -6 7 -13 24 -16 17 -4 31
-11 31 -16 0 -6 7 -8 15 -4 19 7 73 -38 57 -48 -7 -4 -12 -1 -12 6 0 7 -9 19
-19 25 -18 11 -18 10 2 -20 l21 -32 29 27 c16 15 26 31 24 35 -3 5 11 9 30 9
l34 1 -27 -28 c-21 -22 -30 -26 -37 -17 -6 9 -7 7 -3 -6 9 -26 -2 -56 -18 -50
-18 7 -27 -21 -21 -65 3 -24 2 -30 -3 -17 -8 19 -9 19 -16 1 -4 -11 -2 -22 6
-26 10 -7 10 -11 0 -21 -9 -9 -12 -8 -12 8 -1 19 -1 19 -13 -1 -6 -11 -12 -24
-12 -30 0 -11 -38 -23 -75 -24 -19 0 -16 3 15 14 22 8 41 15 42 15 1 0 12 16
24 37 22 35 44 127 28 117 -5 -3 -11 7 -15 21 -8 33 -62 74 -106 81 -20 4 -49
0 -72 -10 -45 -19 -46 -19 -46 -7 0 5 14 12 30 16 17 4 30 11 30 17 0 6 -12 8
-30 5 -27 -6 -38 1 -25 15 10 10 64 1 81 -13z m379 2 c17 -7 16 -8 -9 -15 -35
-9 -75 2 -55 15 17 10 37 10 64 0z m428 2 c-7 -2 -21 -2 -30 0 -10 3 -4 5 12
5 17 0 24 -2 18 -5z m425 0 c-76 -2 -200 -2 -275 0 -76 1 -14 3 137 3 151 0
213 -2 138 -3z m986 -18 c-4 -15 -2 -25 5 -25 7 0 11 -29 11 -84 0 -88 -6
-120 -21 -110 -10 6 -12 203 -3 228 10 25 15 19 8 -9z m-774 3 c0 -5 8 -8 18
-8 21 -1 94 -55 85 -64 -3 -3 -2 -6 3 -6 5 0 10 -15 11 -32 l2 -33 -11 30 c-6
17 -20 41 -32 54 -44 49 -60 51 -443 51 -321 0 -362 -2 -392 -18 -47 -23 -74
-63 -82 -120 -7 -41 -7 -40 -3 13 2 33 4 72 4 88 1 15 5 27 10 27 5 0 7 -6 4
-14 -3 -8 -1 -17 5 -21 7 -3 11 3 11 15 0 12 5 20 12 18 7 -3 26 3 44 11 28
14 86 16 393 16 199 0 361 -3 361 -7z m-1009 -35 c13 -17 13 -17 -6 -3 -11 8
-22 16 -24 17 -2 2 0 3 6 3 6 0 17 -8 24 -17z m-535 -31 c-26 -30 -37 -81 -26
-123 11 -40 69 -99 98 -99 9 0 24 -5 32 -11 11 -8 8 -9 -15 -5 -22 5 -26 4
-15 -4 8 -5 29 -10 45 -11 17 0 24 -3 17 -6 -25 -10 -82 7 -83 25 -1 15 -2 15
-6 -1 -5 -18 -5 -18 -18 -1 -11 16 -15 16 -29 5 -11 -9 -16 -10 -16 -2 0 6 6
11 13 11 8 0 7 4 -3 10 -10 6 -11 10 -2 10 6 0 12 5 12 10 0 6 -7 10 -15 10
-8 0 -17 12 -20 28 -4 15 -10 44 -15 65 -4 21 -4 37 1 37 5 0 9 9 9 20 0 11 5
20 11 20 6 0 9 6 6 14 -7 18 14 39 27 26 6 -6 4 -16 -8 -28z m579 -3 c11 -17
-1 -21 -15 -4 -8 9 -8 15 -2 15 6 0 14 -5 17 -11z m105 -40 c0 -11 -4 -17 -10
-14 -5 3 -10 13 -10 21 0 8 5 14 10 14 6 0 10 -9 10 -21z m-750 1 c0 -5 -7
-10 -15 -10 -8 0 -15 5 -15 10 0 6 7 10 15 10 8 0 15 -4 15 -10z m670 -45 c0
-19 -4 -35 -10 -35 -11 0 -14 53 -3 63 11 12 13 8 13 -28z m67 -17 c-3 -8 -6
-5 -6 6 -1 11 2 17 5 13 3 -3 4 -12 1 -19z m992 -30 c-8 -18 -14 -41 -14 -52
0 -10 -9 -24 -20 -30 -11 -6 -24 -15 -28 -21 -6 -7 -10 -6 -13 1 -3 6 -17 9
-32 8 -26 -4 -26 -4 3 7 48 18 85 59 92 102 4 26 9 35 16 28 7 -7 5 -21 -4
-43z m-1316 -58 c29 -33 30 -47 3 -37 -9 4 -13 13 -10 21 3 8 1 17 -5 21 -6 3
-12 -2 -12 -12 -1 -10 -4 -4 -8 12 -4 17 -12 29 -18 28 -6 -1 -8 9 -5 25 l5
27 11 -26 c6 -14 24 -40 39 -59z m-393 56 c0 -8 3 -21 6 -30 3 -9 1 -16 -6
-16 -6 0 -9 4 -6 9 3 5 -1 14 -9 21 -19 16 -19 30 0 30 8 0 15 -6 15 -14z
m-3211 -71 c0 -23 -2 -26 -9 -15 -5 8 -9 33 -9 55 1 35 2 37 9 15 4 -14 8 -38
9 -55z m4033 -2 c29 -16 72 -19 388 -24 l355 -5 -380 -1 c-314 -1 -379 -3
-377 -15 2 -7 8 -14 13 -16 5 -2 9 -12 9 -23 0 -17 8 -19 60 -19 53 0 60 2 60
19 0 12 -9 21 -22 24 -13 3 136 5 330 5 230 0 350 -3 346 -10 -6 -10 37 -8 46
3 3 3 35 4 73 1 l67 -4 0 -39 0 -39 -140 0 -140 0 0 40 0 40 -260 0 -260 0 0
-40 0 -40 -200 0 -200 0 0 54 0 54 -36 7 c-35 6 -36 7 -16 21 11 8 29 11 39 7
10 -3 15 -3 11 2 -4 4 -1 14 7 21 7 8 15 19 18 26 6 18 57 -30 57 -54 0 -14 8
-18 41 -18 36 0 40 -2 34 -20 -5 -16 -2 -20 19 -20 19 0 26 5 26 19 0 11 5 23
10 26 13 8 3 25 -13 25 -7 0 -6 -4 3 -10 12 -7 11 -9 -6 -8 -11 1 -21 8 -21
15 0 6 5 9 10 6 5 -3 7 0 5 8 -3 8 -9 13 -14 12 -5 -1 -10 10 -11 24 -1 24 -1
24 18 -6 10 -16 33 -38 51 -48z m-3152 2 c0 -14 -4 -25 -8 -25 -7 0 -8 31 -3
48 4 11 11 -3 11 -23z m2787 -21 c-3 -3 -12 -4 -19 -1 -8 3 -5 6 6 6 11 1 17
-2 13 -5z m1208 -24 c-11 -5 -27 -9 -35 -9 -9 0 -8 4 5 9 11 5 27 9 35 9 9 0
8 -4 -5 -9z m-1541 -18 c3 -5 -1 -9 -9 -9 -8 0 -12 4 -9 9 3 4 7 8 9 8 2 0 6
-4 9 -8z m2233 -134 c-2 -13 -4 -5 -4 17 -1 22 1 32 4 23 2 -10 2 -28 0 -40z
m-5527 -128 l0 -60 -30 2 c-30 2 -38 12 -20 23 6 3 10 26 10 51 0 37 3 44 20
44 18 0 20 -7 20 -60z m1155 30 c-3 -5 -16 -10 -28 -10 -18 0 -19 2 -7 10 20
13 43 13 35 0z m1822 -182 c-3 -8 -6 -5 -6 6 -1 11 2 17 5 13 3 -3 4 -12 1
-19z m-2577 -29 c0 -11 -4 -17 -10 -14 -5 3 -10 15 -10 26 0 11 5 17 10 14 6
-3 10 -15 10 -26z m2621 -39 c13 0 19 -7 19 -21 0 -15 -5 -20 -22 -17 -20 3
-23 9 -24 48 -1 25 0 33 3 18 3 -19 10 -28 24 -28z m-2545 -34 c-1 -29 -5 -43
-14 -42 -11 2 -62 64 -62 75 0 3 8 -3 16 -14 14 -19 16 -19 25 -2 6 9 14 15
20 12 5 -4 9 -1 9 4 0 6 2 11 3 11 2 0 3 -20 3 -44z m2468 29 c3 -8 1 -15 -4
-15 -6 0 -10 7 -10 15 0 8 2 15 4 15 2 0 6 -7 10 -15z m-24 -46 c-15 -27 -43
-54 -70 -69 -12 -7 0 11 26 39 55 57 59 59 44 30z m56 -44 c-10 -25 -22 -42
-28 -39 -5 4 -4 12 5 22 8 10 17 30 21 46 4 15 10 26 13 22 3 -3 -2 -26 -11
-51z m-2479 0 c-15 -16 -19 -13 -11 9 3 9 10 13 15 10 5 -3 3 -11 -4 -19z m28
-15 c-3 -5 -12 -10 -18 -10 -7 0 -6 4 3 10 19 12 23 12 15 0z m5021 -77 c-3
-43 -6 -403 -6 -800 0 -403 -4 -725 -9 -728 -5 -3 -9 338 -9 793 0 438 4 779
8 757 l7 -40 2 48 c0 26 4 47 7 47 4 0 4 -35 0 -77z m-2742 53 c-14 -35 -35
-36 -1112 -34 l-1057 3 1070 5 c589 3 1071 6 1073 8 1 1 2 9 2 17 0 8 7 15 15
15 8 0 12 -6 9 -14z m-2224 -11 c19 -7 28 -14 20 -14 -8 0 -28 6 -45 14 -39
17 -21 18 25 0z m-152 -4 c10 -6 9 -10 -7 -14 -21 -5 -36 5 -24 17 8 8 15 7
31 -3z m2500 -13 c-8 -12 -25 -28 -39 -37 -18 -11 -16 -6 10 22 39 42 50 48
29 15z m-2388 -76 c-9 -3 -99 50 -100 60 0 3 24 -8 54 -25 29 -18 50 -33 46
-35z m2341 10 c-7 -2 -18 1 -23 6 -8 8 -4 9 13 5 13 -4 18 -8 10 -11z m-96
-28 c-9 -9 -19 -13 -23 -10 -3 4 0 11 8 16 24 15 33 11 15 -6z m-2195 -8 c-14
-8 -29 -12 -34 -8 -10 6 20 20 44 21 8 0 4 -6 -10 -13z m2143 -3 c3 -5 -449
-7 -1004 -5 l-1009 2 0 -65 c0 -58 -2 -65 -20 -65 -18 0 -20 7 -20 64 l0 65
-32 4 c-18 2 443 5 1024 5 581 1 1059 -1 1061 -5z m-2806 -65 c-3 -7 -5 -2 -5
12 0 14 2 19 5 13 2 -7 2 -19 0 -25z m0 -90 c-2 -13 -4 -3 -4 22 0 25 2 35 4
23 2 -13 2 -33 0 -45z m0 -70 c-3 -7 -5 -2 -5 12 0 14 2 19 5 13 2 -7 2 -19 0
-25z m4633 2 c0 -5 -5 -10 -11 -10 -5 0 -7 5 -4 10 3 6 8 10 11 10 2 0 4 -4 4
-10z m-3605 -10 c-12 -5 -14 -9 -6 -9 8 -1 12 -3 9 -6 -3 -3 -13 -2 -22 1 -14
5 -15 9 -4 15 7 5 20 8 28 8 10 0 8 -3 -5 -9z m2682 -27 c-455 -2 -1199 -2
-1655 0 -455 1 -82 2 828 2 910 0 1283 -1 827 -2z m1003 -3 c0 -5 -4 -10 -9
-10 -6 0 -13 5 -16 10 -3 6 1 10 9 10 9 0 16 -4 16 -10z m-4713 -242 c-1 -46
-3 -9 -3 82 0 91 2 128 3 83 2 -46 2 -120 0 -165z m3667 230 c805 -2 1020 -6
1024 -15 2 -7 8 -13 13 -13 6 0 7 4 4 10 -3 6 1 7 9 4 9 -3 14 -11 13 -16 -1
-6 4 -13 11 -15 7 -3 11 1 10 9 -2 9 14 14 60 16 l62 3 0 -41 c0 -23 -4 -39
-9 -36 -5 3 -15 -2 -22 -11 -12 -14 -11 -15 11 -9 19 6 21 5 10 -3 -11 -8 -12
-11 -2 -11 7 0 11 -4 7 -9 -3 -5 0 -13 6 -17 6 -3 15 0 20 7 4 7 12 10 16 5 4
-5 2 -11 -4 -13 -7 -3 -13 -11 -13 -19 0 -9 4 -13 9 -9 10 6 26 -33 17 -42 -5
-5 20 -63 27 -63 2 0 3 15 3 33 -1 31 1 32 42 35 l42 3 0 -120 c0 -109 -2
-121 -17 -121 -29 0 -43 14 -33 30 6 8 10 32 10 53 0 30 -4 37 -20 37 -18 0
-20 -7 -20 -81 0 -87 -13 -158 -36 -201 -18 -34 -9 -36 17 -5 l20 22 -17 -27
c-9 -16 -24 -28 -33 -29 -10 0 -11 -2 -3 -6 6 -2 12 -9 12 -14 0 -4 -7 -6 -15
-3 -9 4 -18 -1 -22 -12 -4 -11 -14 -25 -22 -32 -14 -12 -14 -13 2 -8 15 5 17
0 14 -27 -4 -40 -15 -59 -28 -51 -6 4 -6 11 1 19 8 10 7 14 -2 18 -10 4 -10 8
2 16 12 9 11 11 -9 11 -16 0 -21 -4 -18 -14 4 -10 1 -13 -8 -10 -14 6 -39 -29
-28 -40 3 -3 1 -6 -5 -6 -7 0 -12 5 -12 11 0 5 -13 2 -29 -7 -17 -10 -28 -21
-26 -24 3 -4 -8 -5 -23 -3 -21 4 -24 2 -12 -6 11 -7 -544 -10 -1870 -8 -1354
1 -1884 5 -1883 13 1 6 -14 18 -33 27 -18 9 -34 13 -34 9 0 -4 -31 -9 -69 -10
l-69 -3 -4 64 c-2 49 0 63 10 60 7 -3 10 -13 7 -24 -4 -13 -1 -19 8 -19 26 0
27 28 2 44 -14 9 -22 22 -19 30 4 10 -5 12 -40 9 l-46 -5 6 149 c3 81 8 150
11 153 3 3 3 -32 1 -78 -1 -45 0 -82 5 -82 4 0 8 33 8 73 l2 72 8 -88 c16
-182 114 -311 277 -366 61 -21 68 -21 1854 -21 1940 0 1846 -2 1941 53 53 31
129 111 155 163 68 137 53 347 -34 461 -14 18 -22 33 -19 33 16 0 -95 76 -145
99 l-55 26 -1840 0 -1840 0 -65 -32 c-106 -52 -201 -168 -216 -266 -4 -20 -10
-39 -13 -41 -12 -8 -5 64 7 76 7 7 12 21 11 33 0 20 0 20 -9 0 -5 -11 -9 -15
-9 -8 -1 17 31 83 41 84 4 1 13 3 18 4 6 1 13 3 17 4 4 0 -3 8 -15 17 -22 15
-27 37 -8 34 5 -1 13 4 18 12 7 10 10 10 19 -4 8 -15 13 -16 29 -6 14 9 16 14
7 20 -9 6 -9 8 1 8 36 0 65 18 58 35 -3 8 -1 17 4 20 6 4 10 -2 10 -11 0 -17
1 -17 13 0 7 9 17 16 22 15 6 -1 28 1 50 6 34 7 36 10 17 14 -13 3 358 5 825
4 466 -2 1307 -4 1867 -5z m-2854 -14 c0 -8 -19 -13 -24 -6 -3 5 1 9 9 9 8 0
15 -2 15 -3z m15 -24 c-18 -8 -18 -9 -2 -9 10 -1 16 -5 13 -10 -4 -5 -16 -4
-31 2 -21 10 -22 13 -7 19 26 10 51 8 27 -2z m-175 -285 c0 -8 -4 -15 -10 -15
-5 0 -10 7 -10 15 0 8 5 15 10 15 6 0 10 -7 10 -15z m-653 -107 c-3 -7 -5 -2
-5 12 0 14 2 19 5 13 2 -7 2 -19 0 -25z m0 -100 c-2 -13 -4 -3 -4 22 0 25 2
35 4 23 2 -13 2 -33 0 -45z m0 -150 c-2 -13 -4 -3 -4 22 0 25 2 35 4 23 2 -13
2 -33 0 -45z m4948 -48 c-5 -8 -11 -8 -17 -2 -6 6 -7 16 -3 22 5 8 11 8 17 2
6 -6 7 -16 3 -22z m-4948 -22 c-3 -7 -5 -2 -5 12 0 14 2 19 5 13 2 -7 2 -19 0
-25z m0 -100 c-2 -13 -4 -3 -4 22 0 25 2 35 4 23 2 -13 2 -33 0 -45z m956 -25
c-7 -2 -21 -2 -30 0 -10 3 -4 5 12 5 17 0 24 -2 18 -5z m-5 -30 c5 -17 -32
-17 -46 0 -9 10 -5 13 15 12 15 0 28 -6 31 -12z m3762 -53 c0 -20 -7 -20
-1900 -20 -1260 0 -1900 3 -1900 10 0 6 11 10 24 10 14 0 28 5 31 10 4 7 640
10 1876 10 1862 0 1869 0 1869 -20z m-4713 -47 c-3 -10 -5 -4 -5 12 0 17 2 24
5 18 2 -7 2 -21 0 -30z m33 -139 c0 -8 -19 -13 -24 -6 -3 5 1 9 9 9 8 0 15 -2
15 -3z m20 -48 c1 12 6 7 15 -15 13 -28 17 -31 30 -21 12 10 15 9 15 -4 0 -9
7 -30 15 -46 9 -17 11 -30 5 -30 -5 0 -10 8 -10 18 0 15 -2 15 -11 2 -8 -12
-9 -11 -7 5 2 13 -2 19 -11 17 -22 -5 -42 19 -35 42 6 19 5 20 -12 6 -10 -8
-16 -11 -12 -6 4 5 1 15 -7 23 -8 8 -15 19 -15 25 0 6 9 1 20 -12 18 -21 20
-21 20 -4z m5514 -32 c3 -8 2 -12 -3 -9 -5 3 -12 1 -16 -5 -3 -5 -1 -10 5 -10
12 0 0 -14 -35 -40 -14 -10 -13 -6 5 14 l25 28 -25 -6 c-17 -5 -21 -4 -12 2 8
5 14 13 15 18 1 5 8 8 15 8 6 -1 12 2 12 7 0 14 7 11 14 -7z m-5353 -81 c11
-15 11 -16 0 -6 -7 6 -21 9 -30 6 -14 -4 -14 -3 -1 6 8 6 16 11 16 11 1 0 8
-8 15 -17z m5259 -5 c0 -4 -6 -8 -14 -8 -8 0 -17 4 -20 8 -2 4 4 8 15 8 10 0
19 -4 19 -8z m-5260 -18 c13 -9 13 -10 0 -10 -8 0 -22 5 -30 10 -13 9 -13 10
0 10 8 0 22 -5 30 -10z m3728 -17 c-16 -2 -40 -2 -55 0 -16 2 -3 4 27 4 30 0
43 -2 28 -4z"/>
<path d="M8245 11660 c-3 -6 1 -7 9 -4 18 7 21 14 7 14 -6 0 -13 -4 -16 -10z"/>
<path d="M8370 9260 c0 -5 5 -10 10 -10 6 0 10 5 10 10 0 6 -4 10 -10 10 -5 0
-10 -4 -10 -10z"/>
<path d="M4295 10437 c-13 -10 -15 -16 -6 -21 14 -9 24 -2 27 19 3 18 2 18
-21 2z"/>
<path d="M4080 10140 c0 -13 7 -20 20 -20 13 0 20 7 20 20 0 13 -7 20 -20 20
-13 0 -20 -7 -20 -20z"/>
<path d="M3745 9210 c3 -5 11 -10 16 -10 6 0 7 5 4 10 -3 6 -11 10 -16 10 -6
0 -7 -4 -4 -10z"/>
<path d="M4580 8620 c-9 -6 -10 -10 -3 -10 6 0 15 5 18 10 8 12 4 12 -15 0z"/>
<path d="M6110 8580 c-9 -6 -10 -10 -3 -10 6 0 15 5 18 10 8 12 4 12 -15 0z"/>
<path d="M6050 8540 c0 -5 5 -10 10 -10 6 0 10 5 10 10 0 6 -4 10 -10 10 -5 0
-10 -4 -10 -10z"/>
<path d="M7222 9014 c-7 -8 -8 -14 -3 -14 10 0 25 19 20 25 -2 1 -10 -3 -17
-11z"/>
<path d="M9213 8950 c0 -30 2 -43 4 -27 2 15 2 39 0 55 -2 15 -4 2 -4 -28z"/>
<path d="M6900 8786 c0 -2 7 -7 16 -10 8 -3 12 -2 9 4 -6 10 -25 14 -25 6z"/>
<path d="M8519 8793 c-13 -16 -12 -17 4 -4 9 7 17 15 17 17 0 8 -8 3 -21 -13z"/>
<path d="M7470 8800 c0 -5 5 -10 10 -10 6 0 10 5 10 10 0 6 -4 10 -10 10 -5 0
-10 -4 -10 -10z"/>
<path d="M4126 8215 c-3 -9 -2 -24 2 -32 8 -13 10 -13 16 2 3 9 2 24 -2 32 -8
13 -10 13 -16 -2z"/>
<path d="M8387 7628 c16 -18 33 -16 33 5 0 7 -11 12 -24 12 -23 0 -23 -1 -9
-17z"/>
<path d="M8422 7609 c2 -6 8 -10 13 -10 5 0 11 4 13 10 2 6 -4 11 -13 11 -9 0
-15 -5 -13 -11z"/>
<path d="M4333 7580 c2 -8 11 -15 20 -15 19 0 25 17 8 23 -6 2 -11 -2 -11 -10
0 -10 -3 -9 -11 2 -9 13 -10 13 -6 0z"/>
<path d="M4317 7503 c-11 -13 -17 -26 -14 -29 2 -3 12 7 21 22 23 33 17 39 -7
7z"/>
<path d="M4254 7149 c-3 -6 -2 -15 3 -20 5 -5 9 -1 9 11 0 23 -2 24 -12 9z"/>
<path d="M4283 7098 c1 -27 4 -48 8 -48 14 0 16 26 3 60 l-12 35 1 -47z"/>
<path d="M4400 6929 c0 -30 16 -40 45 -28 11 4 14 8 7 8 -8 1 -22 11 -33 24
l-18 22 -1 -26z"/>
<path d="M8560 12040 c0 -5 5 -10 11 -10 5 0 7 5 4 10 -3 6 -8 10 -11 10 -2 0
-4 -4 -4 -10z"/>
<path d="M9750 9081 c0 -58 -25 -326 -34 -356 -1 -5 -6 42 -10 105 -4 63 -11
131 -15 150 l-8 35 -7 -50 c-4 -27 -11 -87 -15 -133 -5 -46 -11 -85 -13 -88
-3 -2 -8 47 -11 110 -10 162 -21 182 -35 63 -7 -53 -12 -115 -12 -139 -1 -81
-17 -16 -24 96 -10 155 -21 161 -35 20 -7 -66 -13 -128 -14 -139 -2 -11 -9 42
-17 118 -7 77 -16 133 -20 125 -4 -7 -13 -67 -20 -133 -6 -66 -13 -127 -14
-135 -1 -8 -8 55 -15 140 -8 92 -17 147 -21 135 -4 -11 -13 -76 -21 -145 l-13
-125 -12 133 c-7 73 -15 138 -17 145 -2 7 -9 -35 -16 -93 -24 -202 -26 -208
-34 -80 -13 194 -20 205 -41 60 -34 -230 -32 -589 3 -825 l7 -50 7 40 c7 38
25 197 28 240 1 20 27 -208 28 -254 2 -51 11 -9 26 114 8 70 16 130 18 132 2
2 7 -45 11 -104 10 -167 20 -188 34 -71 7 53 12 115 12 137 0 23 4 41 8 41 5
0 12 -51 15 -114 10 -164 21 -181 35 -54 7 56 13 119 13 138 l1 35 8 -40 c4
-22 11 -85 15 -140 10 -126 21 -106 38 70 l13 130 13 -150 c16 -171 23 -168
43 17 l12 123 13 -133 c6 -73 14 -138 16 -145 2 -7 9 26 15 73 6 47 15 114 19
150 l9 65 7 -115 c4 -63 12 -133 17 -155 5 -22 10 -97 10 -167 l0 -128 302 0
302 0 -47 -29 c-111 -71 -147 -215 -82 -327 27 -45 94 -103 124 -105 9 -1 -23
-5 -71 -10 -220 -19 -375 -174 -386 -386 l-5 -83 558 0 558 0 -5 83 c-12 227
-185 386 -423 387 -70 1 -70 1 -40 17 17 8 45 29 64 47 112 104 91 301 -42
377 l-42 24 313 3 312 2 0 26 c0 63 -23 228 -44 314 -64 258 -192 479 -389
666 -116 112 -216 180 -359 249 -172 82 -383 135 -540 135 l-58 0 0 -69z"/>
<path d="M2930 9119 c-684 -57 -1214 -600 -1265 -1296 l-7 -93 302 0 302 0
-48 -32 c-95 -64 -134 -174 -99 -278 19 -59 76 -122 127 -143 32 -13 30 -14
-54 -19 -69 -5 -101 -12 -153 -36 -138 -65 -225 -195 -233 -349 l-5 -83 558 0
558 0 -5 83 c-8 155 -95 284 -236 350 -57 26 -82 32 -161 35 -91 4 -94 5 -65
19 16 9 44 29 63 47 121 112 81 334 -71 396 -15 5 90 9 295 9 l317 1 1 278 c2
237 3 262 10 172 13 -158 20 -171 35 -65 7 50 13 115 14 145 2 50 3 52 10 22
4 -18 11 -80 15 -138 4 -57 10 -104 14 -104 7 0 30 169 32 240 2 41 13 -39 24
-170 9 -108 18 -86 36 85 l14 130 12 -125 c6 -69 12 -136 13 -150 l2 -25 8 27
c4 15 13 76 20 135 6 59 13 109 14 111 2 1 6 -44 10 -100 4 -57 10 -119 14
-138 7 -31 9 -26 20 50 7 47 12 103 13 125 0 22 4 49 8 60 5 12 10 -26 14 -95
10 -171 20 -195 35 -83 7 50 12 110 13 134 1 42 1 42 10 14 4 -16 11 -74 15
-127 3 -54 9 -98 14 -98 8 0 30 175 30 237 0 71 8 26 21 -110 6 -76 15 -134
19 -130 17 19 41 281 43 458 2 257 -6 557 -14 485 -3 -30 -7 -41 -8 -25 -1 17
-5 36 -9 43 -8 12 -30 -152 -33 -238 l-1 -35 -8 40 c-5 22 -12 84 -15 138 -4
53 -10 97 -14 97 -7 0 -30 -174 -32 -240 -1 -57 -7 -23 -20 120 -14 156 -21
150 -40 -35 l-13 -130 -12 125 c-7 69 -13 136 -13 149 -2 52 -12 9 -27 -110
-8 -68 -16 -128 -18 -134 -1 -5 -6 37 -10 95 -4 58 -10 121 -15 140 -6 31 -9
24 -19 -56 -7 -50 -12 -106 -12 -125 0 -19 -4 -40 -9 -47 -5 -8 -11 31 -15 95
-10 167 -20 188 -34 71 -7 -53 -12 -114 -13 -135 l-1 -38 -9 30 c-4 17 -11 74
-15 128 -3 53 -9 97 -14 97 -8 0 -30 -175 -30 -237 0 -71 -8 -26 -21 110 -6
76 -15 134 -19 130 -8 -8 -28 -177 -32 -261 -1 -26 -5 49 -8 167 -3 131 -9
215 -15 216 -5 1 -53 -2 -105 -6z"/>
<path d="M9810 6810 c12 -9 11 -10 -8 -5 -17 5 -27 1 -37 -11 -7 -11 -11 -22
-9 -26 3 -5 0 -8 -5 -8 -15 0 -14 13 2 29 10 11 8 11 -10 2 -12 -6 -35 -28
-50 -48 -53 -69 -41 -207 24 -265 29 -27 88 -48 133 -48 l40 0 0 -310 0 -310
83 -2 82 -2 -90 -5 c-73 -5 -89 -9 -87 -21 2 -8 0 -12 -4 -8 -4 4 -13 3 -21
-4 -11 -9 -13 -8 -11 3 2 8 -3 12 -12 10 -48 -12 -62 -13 -57 -4 9 15 60 23
73 12 7 -6 16 -4 24 6 11 13 9 15 -11 15 -43 0 -99 -20 -99 -35 0 -8 -5 -15
-11 -15 -5 0 -7 6 -3 13 4 6 -8 -1 -25 -18 -47 -43 -61 -76 -61 -140 0 -71 17
-112 65 -153 20 -18 36 -35 34 -36 -2 -2 -14 -8 -26 -15 -37 -19 -76 -96 -70
-137 3 -19 2 -32 -3 -29 -18 11 13 -82 38 -114 42 -52 86 -71 165 -71 52 0 66
3 61 13 -5 8 -2 8 9 -2 12 -9 17 -10 17 -2 0 6 -6 14 -13 17 -18 6 -18 32 -1
30 8 -1 17 -6 21 -11 4 -4 2 -5 -4 -1 -17 10 -16 -2 1 -20 12 -12 95 -14 518
-14 328 0 498 4 488 10 -12 8 -12 10 5 11 l20 0 -20 9 c-15 6 -10 8 18 5 42
-3 66 -18 48 -30 -7 -4 -10 -1 -9 7 4 16 -34 12 -44 -5 -13 -22 5 -29 59 -22
64 7 105 24 96 38 -4 6 -1 7 6 2 13 -7 61 30 61 49 0 5 -9 0 -20 -12 -24 -25
-42 -29 -34 -7 4 8 2 15 -4 15 -5 0 -12 -9 -15 -21 -3 -12 -10 -18 -16 -14 -8
4 -6 11 4 21 8 9 16 21 16 27 1 7 2 18 3 26 0 7 14 15 31 17 23 2 26 1 15 -7
-12 -8 -11 -9 5 -7 13 2 22 14 27 33 l7 30 -2 -29 c-1 -17 -10 -33 -22 -40
-11 -6 -23 -15 -26 -20 -4 -5 -10 1 -14 13 -4 13 -9 21 -11 18 -3 -2 0 -17 6
-32 10 -26 12 -27 29 -11 9 9 21 13 24 10 12 -12 29 50 29 102 0 55 -24 115
-45 111 -6 -1 -11 5 -10 13 2 8 -6 21 -17 28 -17 10 -19 9 -14 -6 2 -9 -1 -7
-7 5 -10 20 -9 25 14 43 15 12 36 35 48 51 22 32 44 103 28 93 -5 -3 -9 -15
-10 -27 0 -21 -1 -21 -10 -2 -8 16 -9 15 -5 -10 4 -30 -15 -71 -27 -58 -4 3
-7 -2 -7 -13 0 -14 -3 -15 -8 -6 -5 7 -15 10 -23 7 -19 -7 -25 -91 -8 -111 8
-10 8 -14 0 -14 -6 0 -11 -9 -11 -21 0 -18 5 -20 45 -18 24 2 48 -1 52 -6 5
-4 1 -5 -7 0 -12 6 -13 5 -2 -6 15 -16 16 -39 1 -39 -5 0 -8 3 -6 8 3 4 -33 6
-79 4 l-83 -3 -3 258 c-2 142 -2 260 -1 262 4 8 70 -10 89 -24 18 -13 17 -14
-13 -10 -29 3 -33 1 -33 -21 0 -17 6 -24 19 -24 11 0 21 -9 24 -21 3 -12 10
-18 15 -15 6 3 12 2 14 -3 1 -5 12 -3 23 6 20 15 20 15 -2 8 -16 -4 -23 -2
-23 7 0 10 -3 9 -11 -2 -9 -13 -10 -13 -6 0 2 8 10 14 16 12 6 -1 11 5 11 14
0 8 5 12 10 9 6 -4 7 -11 4 -17 -5 -7 -2 -9 8 -5 17 6 19 -8 4 -32 -7 -11 -5
-13 7 -8 22 8 37 -41 16 -54 -10 -6 -8 -8 7 -7 18 2 20 6 14 37 -12 66 -56
118 -122 145 -38 16 -113 22 -105 9 3 -5 -39 -7 -93 -6 -86 2 -98 0 -93 -13 5
-13 8 -13 15 -2 8 11 9 10 6 -1 -2 -8 -11 -15 -20 -17 -10 -1 -15 3 -12 10 7
19 -91 26 -348 26 -211 0 -218 -1 -218 -20 0 -13 -7 -20 -20 -20 -13 0 -20 7
-20 20 0 13 -7 20 -20 20 -13 0 -20 -7 -20 -20 0 -13 -7 -20 -20 -20 -13 0
-20 7 -20 19 0 11 -8 22 -17 24 -10 3 144 5 342 6 198 0 404 1 458 1 l97 0 0
310 0 310 -555 2 c-554 3 -556 3 -540 23 13 15 15 16 11 3 -4 -15 37 -17 582
-20 674 -4 648 -7 702 78 16 26 30 57 29 68 -1 14 -4 10 -10 -11 -5 -18 -14
-33 -20 -33 -6 0 -8 -3 -6 -7 3 -5 -6 -9 -20 -10 -16 0 -21 2 -14 7 7 4 13 11
14 16 1 5 9 9 17 9 10 0 16 12 18 33 2 24 7 32 18 28 16 -6 17 -5 3 53 -12 51
-46 104 -61 95 -7 -4 -8 -2 -4 4 4 7 -10 20 -36 33 -35 18 -52 20 -102 15 -74
-7 -1099 -7 -1176 0 -42 4 -52 3 -40 -6z m74 -6 c9 -3 16 -15 16 -25 0 -10 5
-19 10 -19 6 0 10 -9 10 -20 0 -13 -7 -20 -20 -20 -17 0 -20 7 -20 39 0 33 -4
40 -22 44 -14 2 -16 5 -6 6 9 0 23 -2 32 -5z m1156 -20 c0 -23 3 -25 43 -22
26 2 41 8 40 15 -2 7 4 10 12 7 13 -5 13 -8 0 -21 -8 -8 -15 -21 -15 -29 0
-11 -15 -14 -60 -14 l-60 0 0 38 c0 41 6 52 27 52 7 0 13 -11 13 -26z m-1290
-39 c5 3 10 4 10 1 0 -3 -10 -10 -21 -17 -17 -9 -20 -8 -14 2 5 7 4 10 -2 6
-6 -4 -8 -18 -5 -32 2 -15 0 -25 -7 -25 -6 0 -11 10 -12 23 -1 14 -6 5 -15
-23 l-14 -45 6 39 c7 53 32 90 50 75 7 -6 18 -8 24 -4z m1440 -18 c0 -8 -3 -8
-9 2 -6 9 -11 10 -15 2 -4 -6 -15 -11 -24 -11 -12 1 -10 5 8 14 26 15 40 12
40 -7z m30 -69 c0 -23 -3 -29 -9 -19 -5 7 -7 21 -6 30 5 22 4 21 10 21 3 0 5
-15 5 -32z m-1457 -78 c5 -19 14 -20 161 -20 l156 0 0 -41 0 -41 -90 4 c-50 1
-90 -1 -90 -5 0 -5 -5 -5 -12 -1 -8 5 -9 0 -6 -14 5 -18 2 -22 -17 -22 -15 0
-25 7 -28 21 -4 16 -12 20 -34 16 -15 -2 -22 -2 -15 0 22 8 14 43 -10 44 -13
0 -33 2 -45 5 -17 3 -20 0 -16 -19 5 -22 5 -22 -10 -2 -9 11 -11 22 -6 23 15
6 10 32 -6 32 -8 0 -15 2 -15 4 0 2 -3 11 -6 20 -5 13 2 16 39 16 36 0 46 -4
50 -20z m1385 -106 c-4 -3 -9 -5 -12 -4 -4 0 -19 -6 -34 -15 -20 -12 -34 -14
-52 -7 -24 9 -23 10 15 17 22 4 45 8 50 10 17 6 39 5 33 -1z m-178 -694 c0 -5
-25 -10 -55 -10 -30 0 -55 5 -55 10 0 6 25 10 55 10 30 0 55 -4 55 -10z m60
-10 c0 -5 -5 -10 -11 -10 -5 0 -7 5 -4 10 3 6 8 10 11 10 2 0 4 -4 4 -10z
m-1302 -30 c-7 -11 -16 -20 -20 -20 -4 0 -5 -7 -1 -16 5 -12 10 -9 25 15 11
17 21 31 21 31 2 0 0 -51 -2 -72 -1 -9 -4 -9 -12 -1 -6 6 -17 9 -24 6 -22 -8
-23 31 -2 55 25 27 31 28 15 2z m-27 -120 c10 0 19 5 19 10 0 6 9 10 20 10 22
0 23 -5 11 -67 -5 -24 -4 -43 0 -43 5 0 8 -18 7 -40 -1 -22 -5 -40 -10 -40 -4
0 -7 6 -5 13 1 6 -3 11 -9 10 -7 -1 -20 7 -30 18 -12 13 -14 19 -5 17 7 -2 16
4 18 12 3 10 2 11 -4 3 -5 -7 -13 -9 -19 -5 -17 10 -26 49 -14 57 5 3 10 14
10 23 0 15 -2 15 -10 2 -7 -11 -9 -6 -9 20 1 19 3 27 6 18 2 -10 13 -18 24
-18z m1454 -160 c-3 -5 -11 -10 -16 -10 -6 0 -7 5 -4 10 3 6 11 10 16 10 6 0
7 -4 4 -10z m-1395 -75 c0 -2 -6 -8 -13 -14 -10 -8 -14 -7 -14 2 0 8 6 14 14
14 7 0 13 -1 13 -2z m-46 -35 c-5 -27 -2 -30 20 -30 25 0 26 -2 26 -59 l0 -60
-39 2 c-39 1 -39 2 -45 49 -5 37 -2 56 14 88 24 48 30 50 24 10z m-8 -175
c-13 -10 -13 -14 2 -30 16 -19 16 -19 -4 -2 -26 21 -27 43 -2 43 17 0 17 -2 4
-11z m1304 -51 c0 -8 -19 -13 -24 -6 -3 5 1 9 9 9 8 0 15 -2 15 -3z m-1265
-22 c-3 -3 -11 0 -18 7 -9 10 -8 11 6 5 10 -3 15 -9 12 -12z m95 -28 c0 -2 -9
-4 -20 -4 -11 0 -20 4 -20 9 0 5 9 7 20 4 11 -3 20 -7 20 -9z m1253 -1 c-7 -2
-19 -2 -25 0 -7 3 -2 5 12 5 14 0 19 -2 13 -5z"/>
<path d="M9729 6571 c-5 -29 -3 -34 12 -36 12 -2 15 3 12 16 -6 22 -22 35 -24
20z"/>
<path d="M9730 5700 c0 -5 5 -10 10 -10 6 0 10 5 10 10 0 6 -4 10 -10 10 -5 0
-10 -4 -10 -10z"/>
<path d="M1665 6768 c-124 -64 -132 -257 -15 -334 l40 -27 609 2 c533 2 614 4
642 18 25 12 38 13 66 5 45 -14 73 3 110 65 49 84 26 199 -51 258 l-35 26
-666 2 c-616 2 -668 1 -700 -15z m65 8 c0 -3 -4 -8 -10 -11 -5 -3 -10 -1 -10
4 0 6 5 11 10 11 6 0 10 -2 10 -4z m1313 -18 c9 -5 16 -16 16 -26 -1 -15 -2
-15 -6 1 -3 12 -10 16 -20 13 -8 -3 -27 3 -41 15 l-27 21 30 -8 c17 -4 38 -11
48 -16z m-1283 -22 c8 -3 0 -3 -19 0 -25 5 -32 3 -26 -6 6 -10 1 -12 -19 -8
-14 3 -29 1 -32 -4 -3 -4 -10 -5 -16 -2 -6 4 -8 -1 -3 -15 3 -11 3 -21 -2 -22
-4 0 -18 -2 -30 -3 -25 -3 -30 9 -10 21 8 4 17 16 20 27 6 15 10 16 22 6 12
-10 16 -8 24 14 11 27 5 28 91 -8z m1178 27 c-10 -2 -28 -2 -40 0 -13 2 -5 4
17 4 22 1 32 -1 23 -4z m-98 -13 c0 -5 -7 -10 -16 -10 -8 0 -12 5 -9 10 3 6
10 10 16 10 5 0 9 -4 9 -10z m271 -62 c6 -12 6 -18 -1 -18 -5 0 -10 6 -10 13
-1 6 -8 -1 -16 -16 -8 -16 -21 -26 -27 -24 -17 5 -15 32 3 32 23 0 32 22 20
47 -11 23 -11 23 5 3 9 -11 21 -28 26 -37z m-1517 -70 c-3 -62 -4 -65 -13 -48
-9 17 -3 90 8 90 4 0 6 -19 5 -42z m1533 -10 c-3 -7 -5 -2 -5 12 0 14 2 19 5
13 2 -7 2 -19 0 -25z m-15 -100 c-7 -7 -12 -8 -12 -2 0 14 12 26 19 19 2 -3
-1 -11 -7 -17z m-1492 -32 c0 -12 -5 -7 -19 24 -11 24 -11 24 3 6 9 -11 16
-24 16 -30z m42 -1 c6 15 7 13 3 -9 -6 -27 -5 -28 11 -15 12 9 15 10 10 1 -5
-8 1 -15 16 -21 14 -6 17 -10 7 -10 -9 -1 -19 2 -23 7 -4 4 -11 7 -15 7 -16 0
-42 35 -34 47 5 9 9 7 12 -7 l4 -20 9 20z m1393 -25 c3 -5 2 -10 -4 -10 -5 0
-13 5 -16 10 -3 6 -2 10 4 10 5 0 13 -4 16 -10z m-1275 -30 c0 -5 -12 -10 -27
-9 -25 0 -26 1 -8 9 27 12 35 12 35 0z"/>
<path d="M3050 6660 c0 -5 5 -10 10 -10 6 0 10 5 10 10 0 6 -4 10 -10 10 -5 0
-10 -4 -10 -10z"/>
<path d="M2965 6421 c3 -5 -7 -12 -22 -14 -21 -3 -18 -4 12 -5 47 -2 77 11 50
22 -24 9 -47 7 -40 -3z"/>
<path d="M1800 6090 l0 -310 555 0 555 0 0 310 0 310 -555 0 -555 0 0 -310z"/>
<path d="M5337 6322 c-14 -15 -17 -40 -17 -130 l0 -112 -57 0 c-69 0 -172 -34
-243 -80 -106 -68 -202 -203 -229 -320 -25 -108 -7 -269 39 -360 l20 -39 459
-1 458 0 27 62 c15 34 33 95 39 135 l12 73 545 -2 545 -3 3 -35 c4 -52 20
-118 44 -178 l20 -52 467 2 466 3 24 60 c129 326 -75 676 -426 730 l-43 7 0
112 c0 97 -3 115 -18 129 -17 16 -106 17 -1069 17 -1004 0 -1051 -1 -1066 -18z"/>
<path d="M1685 5762 c-47 -23 -80 -52 -98 -90 -19 -36 -30 -95 -17 -87 6 3 10
16 10 28 0 17 2 19 9 8 6 -9 4 -23 -6 -38 -24 -36 -9 -86 43 -141 42 -44 47
-47 89 -44 l45 4 0 -61 0 -61 -40 0 c-42 0 -51 14 -27 39 10 11 9 14 -1 18 -7
3 -17 16 -23 29 -7 20 -12 23 -27 15 -26 -14 -54 -59 -46 -73 4 -6 3 -8 -3 -5
-12 8 -23 -14 -23 -44 0 -14 4 -18 13 -13 9 6 9 4 1 -7 -25 -33 -9 -103 35
-153 9 -10 34 -27 56 -38 33 -17 52 -20 118 -15 43 3 76 2 72 -1 -4 -4 -12 -7
-18 -7 -41 -1 56 -206 132 -279 l30 -28 -54 -55 c-206 -211 -205 -544 1 -763
60 -63 153 -124 222 -145 l22 -6 0 258 c0 248 1 261 23 303 25 50 88 90 142
90 54 0 117 -40 143 -90 21 -42 22 -55 22 -297 0 -172 3 -253 11 -253 36 0
132 63 200 130 82 81 127 158 154 265 44 172 -12 377 -139 507 l-53 54 43 47
c52 58 89 122 114 201 11 32 20 61 20 62 0 2 -224 3 -497 4 -273 0 -499 3
-502 6 -3 3 253 4 569 3 317 -2 581 0 588 5 7 4 9 12 6 18 -5 7 -2 8 5 4 34
-21 91 79 91 159 0 49 -21 115 -36 115 -2 0 0 -8 5 -18 6 -11 8 -43 6 -72 -3
-31 -1 -57 5 -60 6 -4 8 -14 4 -24 -5 -13 -9 -14 -21 -5 -9 8 -17 9 -24 2 -7
-7 -5 -14 6 -23 8 -7 15 -20 15 -29 0 -9 -3 -12 -8 -6 -8 13 -32 14 -33 2 0
-5 3 -12 7 -15 4 -4 4 -1 0 5 -5 9 -2 11 9 7 20 -8 15 -13 -16 -19 -13 -3 -25
-9 -27 -15 -5 -13 -22 -13 -22 -1 0 5 8 12 18 15 15 5 17 20 17 116 0 60 -3
110 -6 110 -9 0 3 60 14 67 6 4 7 1 2 -7 -6 -9 -4 -11 5 -5 10 6 9 11 -5 21
-17 13 -16 16 20 47 29 25 35 36 25 42 -9 5 -11 4 -6 -3 4 -7 4 -12 -1 -12
-18 0 -32 17 -37 45 l-6 30 11 -29 c8 -20 14 -25 19 -15 7 10 12 10 26 -2 16
-13 16 -12 5 9 -7 14 -8 22 -1 22 5 0 10 -6 10 -12 0 -9 4 -8 10 2 5 8 10 40
10 71 0 82 -31 136 -101 172 -50 27 -59 28 -124 22 -79 -8 -1025 -8 -1125 0
-51 5 -73 2 -105 -13z m82 2 c-3 -3 -12 -4 -19 -1 -8 3 -5 6 6 6 11 1 17 -2
13 -5z m1231 -7 c8 -10 2 -12 -31 -9 -57 5 -72 22 -20 22 22 0 45 -6 51 -13z
m-1324 -22 c-3 -8 -14 -17 -24 -20 -12 -4 -16 -12 -13 -25 3 -12 0 -20 -6 -20
-7 0 -9 5 -6 10 3 6 2 10 -3 10 -5 0 -14 -10 -20 -22 -6 -13 -11 -17 -11 -9
-1 13 70 91 83 91 3 0 3 -7 0 -15z m1425 -38 l14 -22 -23 20 -23 20 7 -25 c6
-19 5 -21 -3 -10 -6 8 -11 11 -11 6 0 -6 -5 -5 -12 2 -8 8 -8 15 1 26 15 18
32 13 50 -17z m21 -37 c0 -5 -7 -7 -15 -4 -8 4 -15 8 -15 10 0 2 7 4 15 4 8 0
15 -4 15 -10z m7 -67 c-3 -10 -5 -2 -5 17 0 19 2 27 5 18 2 -10 2 -26 0 -35z
m0 -45 c-3 -8 -6 -5 -6 6 -1 11 2 17 5 13 3 -3 4 -12 1 -19z m-1527 -20 c0 -5
-4 -8 -10 -8 -5 0 -10 10 -10 23 0 18 2 19 10 7 5 -8 10 -18 10 -22z m74 -29
c8 -9 6 -9 -10 -1 -12 6 -24 9 -27 6 -3 -3 -8 -1 -11 5 -9 14 34 5 48 -10z
m-55 -2 c8 -10 7 -14 -2 -14 -8 0 -14 6 -14 14 0 7 1 13 2 13 2 0 8 -6 14 -13z
m31 -59 c0 -12 -6 -9 -26 13 -19 22 -19 22 4 8 12 -8 22 -17 22 -21z m1430 13
c0 -6 -4 -12 -8 -15 -5 -3 -9 1 -9 9 0 8 4 15 9 15 4 0 8 -4 8 -9z m-1420 -91
c0 -5 -7 -10 -16 -10 -10 0 -14 -6 -11 -14 4 -10 1 -13 -9 -9 -13 5 -13 8 2
24 19 21 34 25 34 9z m-60 -205 c0 -5 -5 -3 -10 5 -5 8 -10 20 -10 25 0 6 5 3
10 -5 5 -8 10 -19 10 -25z m30 -44 c0 9 8 5 20 -11 10 -14 17 -26 15 -28 -8
-8 -45 20 -55 41 -11 21 -11 21 4 3 12 -15 16 -16 16 -5z m88 -61 c4 -12 3
-13 -10 -3 -8 7 -18 10 -21 6 -4 -3 -7 -1 -7 6 0 17 32 10 38 -9z"/>
<path d="M3055 5709 c-4 -6 -5 -12 -2 -15 2 -3 7 2 10 11 7 17 1 20 -8 4z"/>
<path d="M11116 5518 c3 -5 10 -6 15 -3 13 9 11 12 -6 12 -8 0 -12 -4 -9 -9z"/>
<path d="M11125 5500 c-13 -6 -15 -9 -5 -9 8 0 22 4 30 9 18 12 2 12 -25 0z"/>
<path d="M3080 5341 c0 -24 -3 -29 -17 -25 -15 5 -16 4 -3 -5 13 -9 13 -11 0
-11 -12 -1 -12 -2 2 -10 9 -6 23 -7 32 -4 17 7 22 24 7 24 -5 0 -8 11 -5 24 2
14 0 28 -6 31 -6 4 -10 -6 -10 -24z m10 -41 c0 -5 -5 -10 -11 -10 -5 0 -7 5
-4 10 3 6 8 10 11 10 2 0 4 -4 4 -10z"/>
<path d="M4266 5264 c-12 -31 -7 -211 7 -222 14 -12 207 -21 207 -9 0 4 -45 7
-99 7 -81 0 -100 3 -105 16 -10 26 -7 202 4 209 6 3 10 1 10 -5 0 -6 5 -8 10
-5 12 7 339 6 980 -5 383 -7 343 -7 -257 -4 -507 3 -713 1 -713 -6 0 -6 -4 -8
-10 -5 -16 10 -12 -11 5 -25 9 -7 15 -29 15 -51 l0 -39 230 0 230 0 0 -39 0
-39 213 -8 c116 -5 352 -7 522 -4 l310 5 3 99 c2 60 -1 103 -7 109 -6 6 -11
16 -11 21 0 6 5 4 11 -4 6 -8 9 -10 7 -3 -2 8 -199 13 -779 17 -700 5 -778 4
-783 -10z m139 -34 c-4 -6 10 -10 34 -10 23 0 41 5 41 10 0 6 18 10 40 10 22
0 40 -4 40 -10 0 -5 18 -10 40 -10 22 0 40 5 40 10 0 6 18 10 40 10 22 0 40
-4 40 -10 0 -6 32 -10 75 -10 43 0 75 -4 75 -10 0 -11 -542 -15 -553 -4 -3 3
0 12 6 20 14 15 92 19 82 4z m1385 -11 c-6 -11 -10 -38 -9 -59 2 -22 0 -42 -4
-46 -4 -4 -2 -13 4 -20 6 -7 8 -22 4 -34 -13 -42 -24 -17 -24 56 0 42 -4 81
-10 87 -12 12 8 36 32 37 15 0 16 -3 7 -21z m30 -69 c0 -40 -4 -70 -10 -70 -5
0 -10 7 -10 16 0 9 -5 12 -12 8 -10 -5 -10 -4 -2 5 7 7 9 32 7 59 -3 35 -2 43
6 32 9 -13 11 -13 11 3 0 9 2 17 5 17 3 0 5 -31 5 -70z m0 -95 c0 -8 -7 -15
-16 -15 -14 0 -14 3 -4 15 7 8 14 15 16 15 2 0 4 -7 4 -15z"/>
<path d="M6966 5265 c-22 -22 -24 -216 -2 -234 10 -9 209 -10 785 -5 l771 7 0
113 c0 102 -2 114 -19 124 -26 14 -553 14 -567 0 -7 -7 -177 -11 -474 -13
-255 -1 -451 1 -435 4 22 5 24 7 8 8 -12 0 -28 4 -36 7 -8 3 -22 -2 -31 -11z
m1542 -99 l-2 -91 -5 85 -6 85 -278 0 c-152 0 -277 3 -277 7 0 8 533 16 558 9
9 -2 11 -29 10 -95z m-1518 90 c0 -3 -4 -8 -10 -11 -5 -3 -10 -1 -10 4 0 6 5
11 10 11 6 0 10 -2 10 -4z m1010 -126 l0 -90 -60 0 -60 0 0 79 c0 77 1 80 28
89 15 6 42 11 60 11 l32 1 0 -90z m-1033 -57 c-2 -21 -4 -6 -4 32 0 39 2 55 4
38 2 -18 2 -50 0 -70z m1520 -5 c-3 -8 -6 -5 -6 6 -1 11 2 17 5 13 3 -3 4 -12
1 -19z m23 -13 c0 -8 -4 -15 -10 -15 -5 0 -7 7 -4 15 4 8 8 15 10 15 2 0 4 -7
4 -15z"/>
<path d="M4300 5060 c0 -5 5 -10 10 -10 6 0 10 5 10 10 0 6 -4 10 -10 10 -5 0
-10 -4 -10 -10z"/>
<path d="M10446 5052 l-519 -2 6 -35 c9 -55 65 -159 117 -217 l48 -53 -59 -62
c-162 -174 -193 -420 -79 -643 35 -69 163 -190 241 -228 37 -18 72 -32 78 -32
8 0 11 73 11 258 0 251 1 260 23 302 45 86 147 112 232 60 69 -43 75 -69 75
-362 l0 -257 45 19 c171 73 300 243 327 429 25 170 -30 345 -146 462 l-55 56
30 29 c48 46 100 131 126 206 13 39 23 71 21 71 -2 1 -236 1 -522 -1z"/>
<path d="M4538 5033 c29 -2 74 -2 100 0 26 2 2 3 -53 3 -55 0 -76 -1 -47 -3z"/>
<path d="M4605 5015 c-66 -6 -151 -16 -190 -20 -69 -8 -69 -9 -30 -16 22 -4
86 -11 142 -15 56 -4 100 -10 98 -14 -2 -4 -51 -10 -107 -14 -57 -4 -119 -10
-138 -15 -30 -6 -20 -9 68 -19 56 -7 121 -12 144 -12 73 0 35 -9 -87 -21 -66
-6 -126 -15 -134 -19 -7 -4 47 -13 120 -19 74 -7 141 -14 149 -15 8 -1 -48 -7
-125 -15 -77 -7 -144 -16 -148 -20 -4 -4 54 -14 130 -22 76 -7 129 -14 118
-16 -11 -1 -74 -7 -140 -14 -139 -14 -131 -21 40 -38 65 -7 121 -13 122 -15 2
-2 -38 -6 -89 -9 -51 -4 -115 -10 -143 -13 -48 -7 -49 -8 -20 -16 17 -4 74
-11 128 -14 53 -4 97 -10 97 -14 0 -4 -44 -10 -97 -14 -54 -4 -114 -10 -133
-15 -30 -6 -19 -9 68 -19 56 -7 124 -12 149 -12 75 0 42 -11 -63 -20 -55 -5
-117 -13 -139 -17 -154 -27 678 -46 865 -19 80 11 83 12 45 19 -22 4 -84 12
-139 17 -54 5 -100 11 -102 13 -2 2 37 7 88 10 51 4 116 10 143 14 l50 7 -35
8 c-19 4 -79 10 -132 14 -54 4 -95 10 -93 14 2 4 49 10 103 14 159 11 175 21
54 34 -56 7 -121 12 -144 12 -71 0 -37 8 82 20 63 6 126 15 140 20 25 8 25 8
-5 10 -16 1 -82 7 -145 14 l-115 12 138 13 c75 7 137 17 137 21 0 4 -64 13
-142 21 -79 7 -136 14 -128 15 8 2 75 8 149 15 73 6 127 15 120 19 -8 4 -68
13 -134 19 -65 7 -121 13 -122 15 -2 2 36 6 84 9 49 4 111 10 138 14 l50 7
-35 8 c-19 4 -79 10 -133 14 -101 7 -144 24 -61 24 26 0 88 5 138 12 87 11 89
12 49 19 -87 16 -387 39 -481 38 -53 -1 -151 -7 -217 -14z"/>
<path d="M7546 5012 c-5 -9 170 -32 243 -32 75 0 41 -8 -89 -21 -69 -6 -134
-15 -145 -19 -11 -4 37 -12 115 -19 74 -7 139 -14 145 -15 5 -1 -52 -8 -128
-15 -75 -7 -135 -17 -132 -21 2 -4 66 -13 142 -21 76 -7 131 -14 123 -15 -8
-1 -76 -8 -150 -15 -149 -13 -149 -23 -1 -34 155 -13 169 -20 51 -29 -58 -4
-123 -11 -145 -15 -37 -7 -33 -8 51 -19 50 -7 111 -12 137 -12 26 0 47 -4 47
-10 0 -5 -21 -10 -47 -10 -26 0 -87 -5 -137 -12 -84 -11 -88 -12 -51 -19 22
-4 86 -11 143 -15 56 -4 101 -9 99 -10 -2 -2 -50 -8 -108 -14 -178 -17 -188
-22 -79 -36 52 -7 119 -13 149 -13 30 -1 52 -3 50 -5 -2 -2 -62 -9 -134 -16
-71 -6 -134 -15 -138 -19 -16 -16 226 -31 484 -31 249 0 483 15 474 30 -2 4
-66 13 -142 21 -76 7 -124 15 -108 16 283 27 309 36 134 49 -141 11 -159 19
-54 27 50 4 113 10 140 14 l50 7 -35 7 c-19 5 -81 11 -137 15 -57 4 -103 10
-103 14 0 4 46 10 103 14 56 4 118 10 137 15 l35 7 -50 7 c-27 4 -90 10 -140
14 -105 8 -87 16 54 27 172 13 139 25 -134 49 -16 1 32 9 108 16 76 8 140 17
142 21 3 4 -57 14 -133 21 -75 7 -128 14 -117 16 11 1 73 7 139 14 66 6 113
15 105 19 -8 4 -70 13 -139 20 -131 12 -165 20 -87 20 83 0 253 23 232 31 -27
10 -963 11 -969 1z"/>
<path d="M7613 4370 c-36 -63 -75 -131 -87 -150 -16 -28 -17 -32 -3 -21 14 11
17 11 17 -1 0 -7 -7 -23 -15 -34 -8 -12 -11 -24 -8 -28 3 -3 2 -6 -4 -6 -19 0
-23 13 -6 25 11 8 12 14 5 19 -14 8 -36 -30 -26 -46 4 -6 3 -8 -3 -5 -11 7
-143 -214 -143 -237 0 -6 8 -20 17 -31 l16 -20 -8 20 c-18 48 -15 57 5 20 12
-22 33 -50 48 -62 26 -22 35 -53 20 -75 -6 -10 -8 -9 -9 5 -1 9 -3 22 -4 27
-1 6 -3 15 -4 20 0 6 -8 10 -16 10 -8 0 -15 7 -15 15 0 8 -5 15 -11 15 -9 0
15 -49 71 -142 9 -16 19 -25 22 -22 3 3 5 -3 5 -13 -1 -10 3 -17 10 -16 7 2
10 -3 7 -10 -2 -7 3 -21 11 -32 16 -20 16 -20 6 1 -6 12 -6 26 -1 34 7 12 9
11 9 -5 1 -11 1 -29 2 -40 2 -26 150 -285 160 -279 4 2 10 0 14 -6 4 -6 41 -9
88 -8 l82 2 -77 3 c-43 2 -78 8 -78 13 0 6 86 9 223 8 168 -1 198 -3 122 -8
l-100 -6 85 -5 c69 -5 62 -6 -37 -4 -71 1 -123 -2 -123 -7 0 -6 -44 -8 -105
-6 l-104 3 -20 -85 c-10 -47 -57 -258 -103 -469 l-83 -384 -31 -13 c-47 -20
-92 -61 -117 -108 -20 -38 -22 -57 -25 -266 l-4 -225 -49 -34 c-66 -45 -225
-212 -278 -292 -128 -194 -210 -443 -211 -641 l0 -58 1240 0 1240 0 0 64 c0
191 -82 439 -208 631 -58 87 -207 243 -289 302 l-63 45 0 200 c0 130 -4 215
-12 242 -12 38 -87 128 -115 137 -7 2 -28 97 -52 237 -23 127 -59 335 -81 461
-22 126 -40 234 -40 240 0 7 -35 11 -101 11 l-101 0 5 -27 c3 -16 40 -228 83
-473 l77 -446 -49 -49 c-62 -63 -74 -101 -74 -242 l0 -110 -52 9 c-55 11 -346
5 -385 -7 -23 -7 -23 -7 -23 116 0 133 -14 183 -59 223 -11 11 -21 27 -21 37
0 15 193 909 206 951 5 17 96 23 386 26 65 1 77 4 81 19 4 15 5 15 6 2 2 -33
30 -29 55 8 24 35 26 60 4 47 -7 -4 -8 -2 -4 5 4 6 2 20 -6 29 -12 15 -11 16
5 3 18 -15 24 -2 6 16 -8 8 -8 13 0 17 6 4 11 4 11 -1 0 -4 5 -1 10 7 7 11 10
11 10 2 0 -7 4 -11 9 -8 5 4 7 -3 4 -14 -3 -11 -9 -17 -14 -14 -5 3 -6 10 -3
16 4 7 2 8 -5 4 -9 -6 -9 -11 0 -22 8 -10 8 -14 0 -14 -6 0 -11 -4 -11 -10 0
-31 28 8 116 162 55 95 98 176 97 180 -2 5 2 8 8 8 6 0 8 7 5 16 -3 8 -2 13 3
10 12 -8 83 122 79 143 -2 9 -10 16 -18 16 -11 0 -15 -12 -16 -43 -1 -24 -5
-46 -9 -50 -4 -4 -6 2 -5 13 5 41 0 64 -17 81 -20 20 -26 81 -10 91 6 4 8 0 4
-10 -4 -10 -2 -16 6 -14 7 1 12 -5 12 -13 0 -8 5 -18 10 -22 6 -5 4 -12 -5
-19 -12 -8 -12 -9 5 -6 11 2 19 10 17 17 -6 23 -255 450 -260 445 -3 -2 1 -11
8 -20 11 -13 10 -14 -4 -9 -9 3 -16 14 -16 24 0 10 -7 23 -16 31 -8 7 -13 20
-11 30 11 41 4 42 -367 43 l-357 1 -66 -115z m48 47 c-13 -12 -20 -15 -16 -7
14 26 28 41 33 35 3 -3 -5 -16 -17 -28z m-31 -56 c-8 -17 -8 -22 3 -27 9 -3
12 -14 9 -30 -3 -19 0 -24 17 -24 18 0 21 -6 21 -40 0 -37 -2 -40 -28 -40 -15
0 -33 -5 -40 -12 -9 -9 -12 -8 -13 8 -1 10 -1 25 0 32 1 6 -3 12 -9 12 -7 0
-9 8 -4 23 6 21 6 21 -15 -3 l-21 -25 16 33 c9 18 20 29 25 26 6 -3 9 0 7 8
-3 15 33 90 40 83 2 -2 -1 -13 -8 -24z m830 -37 c0 -6 -34 1 -48 9 -7 5 -10
13 -7 18 5 8 55 -17 55 -27z m34 -30 c3 -8 2 -12 -4 -9 -6 3 -10 10 -10 16 0
14 7 11 14 -7z m19 -70 c-22 -16 -33 -18 -33 -4 0 6 7 10 15 10 8 0 15 5 15
11 0 5 5 7 11 4 6 -5 4 -12 -8 -21z m36 -40 c3 -16 1 -17 -13 -5 -19 16 -21
34 -3 29 6 -3 14 -13 16 -24z m-624 -34 c-4 -6 45 -11 137 -12 l143 -2 -160
-6 -160 -5 -21 -40 c-27 -53 -68 -115 -60 -92 3 10 6 25 6 33 0 8 7 14 15 14
8 0 15 6 15 13 0 22 61 107 77 107 8 0 11 -4 8 -10z m252 4 c-3 -3 -12 -4 -19
-1 -8 3 -5 6 6 6 11 1 17 -2 13 -5z m422 -46 c9 -14 8 -18 -2 -18 -13 0 -37
19 -37 30 0 14 28 6 39 -12z m-279 -27 l0 -40 -40 2 c-22 1 -40 4 -41 7 -1 3
-2 20 -4 38 -3 32 -2 32 41 32 l44 0 0 -39z m-842 17 c-5 -14 15 -38 31 -38 7
0 11 -56 11 -170 0 -163 -1 -170 -20 -170 -11 0 -20 -4 -20 -10 0 -15 -27 -12
-33 3 -7 17 9 44 20 34 4 -5 1 -12 -6 -16 -8 -5 -9 -11 -3 -15 16 -10 20 14
21 152 2 126 1 132 -18 132 -11 0 -26 -9 -34 -20 -19 -27 -28 -4 -11 28 8 17
13 20 18 10 3 -7 4 -3 2 9 -3 15 2 23 16 27 14 3 19 10 14 21 -3 9 -4 21 0 26
8 13 16 11 12 -3z m752 -8 c0 -5 -2 -10 -4 -10 -3 0 -8 5 -11 10 -3 6 -1 10 4
10 6 0 11 -4 11 -10z m389 -41 c-6 -3 -1 -9 10 -12 37 -9 15 -38 -28 -34 -35
2 -52 27 -23 33 7 1 8 0 2 -3 -13 -6 -13 -23 -1 -23 5 0 15 16 21 36 9 26 15
33 21 23 4 -8 4 -16 -2 -20z m-320 -81 c11 -18 21 -27 21 -20 0 8 23 12 80 12
l80 0 0 -60 0 -60 -40 0 c-40 0 -40 0 -40 39 0 35 -3 39 -32 45 -20 4 -34 2
-39 -5 -4 -8 -11 -3 -19 12 -7 13 -20 34 -28 47 -8 12 -12 22 -9 22 3 0 14
-15 26 -32z m-526 -33 c4 -8 3 -16 -1 -19 -4 -3 -9 4 -9 15 -2 23 3 25 10 4z
m-35 -69 c-3 -16 0 -23 11 -22 11 1 16 -9 17 -34 2 -52 3 -53 18 -41 10 9 19
-1 44 -47 18 -33 29 -62 25 -65 -3 -4 -17 15 -30 41 -21 43 -23 44 -18 15 l5
-33 -45 0 -45 0 0 74 c0 73 8 136 17 136 3 0 3 -11 1 -24z m982 14 c0 -5 -5
-10 -11 -10 -5 0 -7 5 -4 10 3 6 8 10 11 10 2 0 4 -4 4 -10z m-361 -40 c0 -10
-3 -8 -9 5 -12 27 -12 43 0 25 5 -8 9 -22 9 -30z m309 -50 c-7 -11 -14 -17
-17 -15 -2 3 1 11 7 18 7 8 8 18 4 22 -4 5 -1 5 5 1 10 -5 10 -11 1 -26z
m-885 -5 c-3 -9 -8 -14 -10 -11 -3 3 -2 9 2 15 9 16 15 13 8 -4z m530 -5 c-3
-11 -12 -20 -19 -20 -8 0 -14 -7 -14 -15 0 -8 -14 -29 -31 -47 l-32 -33 27 37
c14 20 26 39 26 43 0 9 34 54 42 55 3 0 4 -9 1 -20z m274 -57 c-21 -22 -32
-11 -17 17 9 16 15 19 23 11 8 -8 7 -16 -6 -28z m33 -10 c0 -5 -11 -25 -24
-45 -21 -35 -36 -41 -36 -15 0 6 3 7 7 4 8 -9 44 44 37 55 -3 4 0 8 5 8 6 0
11 -3 11 -7z m-380 -98 l0 -23 -162 5 c-206 6 -228 13 -39 11 136 -1 146 0
159 20 17 26 42 18 42 -13z m310 -30 c-7 -9 -15 -13 -17 -11 -7 7 7 26 19 26
6 0 6 -6 -2 -15z m-990 -35 c0 -5 -2 -10 -4 -10 -3 0 -8 5 -11 10 -3 6 -1 10
4 10 6 0 11 -4 11 -10z m33 -61 c-8 -8 -13 -7 -18 2 -5 8 -4 10 3 5 7 -4 12
-2 12 5 0 7 3 9 7 6 4 -4 2 -12 -4 -18z m907 11 c0 -5 -4 -10 -10 -10 -5 0
-10 -7 -10 -17 0 -9 -3 -14 -6 -10 -8 8 5 47 17 47 5 0 9 -4 9 -10z m-872 -85
c-3 -3 -9 2 -12 12 -6 14 -5 15 5 6 7 -7 10 -15 7 -18z m35 2 c-4 -7 -6 -20
-5 -29 2 -10 -2 -18 -7 -18 -14 0 -14 37 -1 45 6 4 7 11 4 17 -4 7 -2 8 5 4 6
-4 8 -13 4 -19z m21 -73 c9 -22 -3 -32 -14 -14 -12 19 -12 30 -1 30 5 0 12 -7
15 -16z m716 -4 c7 11 10 11 10 2 0 -20 -28 -26 -45 -9 -23 23 -18 33 6 11 17
-16 22 -16 29 -4z m-172 -27 c-10 -2 -26 -2 -35 0 -10 3 -2 5 17 5 19 0 27 -2
18 -5z m99 -9 c-3 -3 -12 -4 -19 -1 -8 3 -5 6 6 6 11 1 17 -2 13 -5z m-284
-1741 c-115 -3 -123 -5 -123 -23 0 -13 -7 -20 -20 -20 -25 0 -27 37 -2 43 9 3
73 4 142 4 l125 -1 -122 -3z m351 -67 c42 -19 54 -29 50 -40 -8 -20 -56 -20
-104 0 -24 10 -27 13 -10 9 21 -3 26 0 26 15 0 20 -8 24 -35 21 -7 -2 -10 2
-7 7 7 12 -87 34 -109 26 -11 -4 -14 -2 -9 9 5 14 14 13 74 -4 38 -10 94 -30
124 -43z m-401 47 c-7 -2 -19 -2 -25 0 -7 3 -2 5 12 5 14 0 19 -2 13 -5z m120
0 c-7 -2 -19 -2 -25 0 -7 3 -2 5 12 5 14 0 19 -2 13 -5z m-298 -13 c3 -5 1
-10 -4 -10 -6 0 -11 -9 -11 -19 0 -11 -8 -22 -17 -25 -10 -3 1 -3 25 0 38 5
42 4 42 -15 0 -12 -6 -21 -15 -21 -8 0 -15 7 -15 16 0 15 -2 15 -25 0 -32 -21
-35 -20 -35 10 0 23 -3 25 -26 20 -17 -5 -23 -3 -19 4 11 18 -14 11 -33 -10
-12 -13 -25 -18 -36 -14 -12 5 -15 2 -9 -12 5 -14 3 -16 -11 -11 -21 8 -59
-10 -51 -24 4 -5 11 -6 17 -3 7 4 8 2 4 -5 -6 -9 -11 -9 -22 0 -11 9 -18 8
-31 -2 -42 -33 -47 -41 -36 -58 9 -14 8 -18 -3 -18 -7 0 -11 4 -8 8 10 16 -19
21 -34 5 -20 -19 -6 -38 30 -40 22 -1 23 -5 26 -94 l4 -93 -84 3 c-82 3 -83 3
-81 28 1 14 -1 19 -3 12 -3 -6 -10 -10 -15 -7 -5 4 -6 -2 -3 -12 5 -14 4 -15
-4 -4 -6 8 -7 21 -4 30 5 14 4 14 -11 2 -14 -11 -15 -17 -5 -30 12 -14 11 -14
-4 -2 -14 11 -18 11 -18 1 0 -8 -3 -11 -6 -7 -9 9 97 146 159 204 75 71 191
145 213 136 11 -4 15 -3 11 4 -10 15 84 53 113 46 16 -4 21 -3 16 5 -4 7 -3
12 3 12 5 0 13 -4 16 -10z m185 -9 c0 -5 -9 -7 -20 -4 -11 3 -20 7 -20 9 0 2
9 4 20 4 11 0 20 -4 20 -9z m113 2 c-7 -2 -19 -2 -25 0 -7 3 -2 5 12 5 14 0
19 -2 13 -5z m398 -91 c34 -22 163 -136 141 -124 -3 1 -16 -5 -28 -13 -15 -9
-25 -11 -29 -5 -4 6 -3 10 2 9 26 -4 24 3 -4 21 -18 11 -33 25 -33 30 0 6 -4
8 -10 5 -5 -3 -10 -1 -10 4 0 6 -7 11 -15 11 -8 0 -15 5 -15 10 0 6 7 10 16
10 14 0 14 3 4 15 -7 8 -19 15 -26 15 -8 0 -14 5 -14 10 0 6 -9 10 -20 10 -11
0 -20 5 -20 10 0 16 13 12 61 -18z m-916 -62 c8 -13 -5 -13 -25 0 -13 8 -13
10 2 10 9 0 20 -4 23 -10z m1088 -115 c-2 -22 0 -25 5 -11 7 16 11 14 35 -17
15 -20 23 -38 18 -42 -5 -3 -11 3 -13 12 -3 10 -4 -1 -4 -25 0 -24 2 -38 5
-31 2 8 5 8 11 -1 5 -8 9 -7 13 5 5 10 3 14 -5 9 -7 -4 -8 -3 -4 4 4 6 13 9
21 6 8 -4 12 -10 9 -15 -3 -5 0 -9 7 -9 7 0 9 -3 5 -7 -3 -4 -38 -8 -76 -11
l-70 -4 0 85 c0 81 1 84 23 83 18 -1 22 -7 20 -31z m-1331 -140 c4 -5 8 -34 8
-62 0 -46 -3 -53 -20 -53 -13 0 -20 -7 -20 -20 0 -13 -7 -20 -20 -20 -21 0
-20 -4 -24 130 -1 14 3 28 8 32 14 9 60 5 68 -7z m1489 -95 c13 -35 17 -56 10
-58 -14 -5 -14 -42 -1 -42 6 0 10 6 10 13 1 33 21 -28 26 -80 3 -32 7 -76 9
-98 4 -35 3 -37 -4 -10 l-9 30 -1 -27 -1 -28 -842 2 -843 3 803 2 802 3 1 98
c1 53 2 137 1 186 0 96 4 97 39 6z m-1571 25 c0 -5 -5 -3 -10 5 -5 8 -10 20
-10 25 0 6 5 3 10 -5 5 -8 10 -19 10 -25z m-37 -55 c-5 -19 -23 -39 -23 -25 0
9 20 45 24 45 2 0 2 -9 -1 -20z m-37 -185 c0 -19 -3 -29 -7 -23 -4 7 -9 -3
-12 -23 -2 -19 -3 -13 -1 14 3 41 9 67 18 67 1 0 2 -16 2 -35z"/>
<path d="M8576 3733 c-6 -14 -5 -15 5 -6 7 7 10 15 7 18 -3 3 -9 -2 -12 -12z"/>
<path d="M7733 1503 c9 -2 25 -2 35 0 9 3 1 5 -18 5 -19 0 -27 -2 -17 -5z"/>
<path d="M7427 1307 c-12 -8 -14 -17 -7 -27 5 -8 12 -11 17 -7 4 5 1 12 -7 17
-9 6 -10 10 -3 10 6 0 15 -4 18 -10 9 -14 52 -13 61 2 5 7 2 9 -8 5 -9 -3 -25
1 -35 8 -16 11 -24 12 -36 2z"/>
<path d="M7361 1234 c-19 -25 -31 -47 -28 -50 8 -9 28 6 22 16 -3 5 11 7 30 6
31 -3 35 -1 35 21 0 20 -3 22 -19 13 -30 -16 -36 -12 -16 10 10 11 16 22 14
24 -2 2 -19 -16 -38 -40z m29 -18 c-7 -7 -13 -7 -20 0 -6 6 -3 10 10 10 13 0
16 -4 10 -10z"/>
<path d="M8540 1385 c0 -8 50 -54 70 -65 36 -19 32 -10 -11 30 -40 36 -59 47
-59 35z"/>
<path d="M8822 940 c0 -14 2 -19 5 -12 2 6 2 18 0 25 -3 6 -5 1 -5 -13z"/>
<path d="M4489 4458 c-1 -7 -1 -16 0 -20 0 -5 -3 -8 -8 -8 -5 0 -26 -30 -47
-67 -20 -38 -44 -78 -52 -90 -9 -15 -10 -23 -3 -23 6 0 11 6 11 14 0 17 47 49
54 37 3 -5 -5 -12 -18 -15 -15 -4 -26 -16 -30 -32 -5 -17 -12 -24 -21 -20 -17
6 -90 -118 -79 -136 4 -6 3 -8 -4 -5 -13 9 -87 -121 -84 -148 1 -11 -1 -14 -4
-7 -8 17 -44 -40 -44 -68 0 -11 17 -48 38 -82 21 -35 55 -93 76 -131 20 -37
41 -65 46 -62 6 3 7 0 5 -7 -3 -8 2 -22 11 -33 8 -11 12 -14 8 -6 -5 9 -3 12
5 7 6 -4 9 -12 5 -17 -8 -13 106 -210 117 -203 5 3 6 -1 3 -9 -2 -7 5 -25 16
-38 l21 -24 -17 30 -16 30 19 -23 c16 -20 28 -23 74 -23 30 1 61 2 69 3 37 4
71 -3 65 -13 -4 -6 -44 -9 -103 -8 l-97 2 -31 -139 c-17 -77 -62 -282 -100
-457 l-69 -318 -41 -24 c-47 -28 -88 -83 -103 -140 -6 -22 -11 -129 -11 -241
l0 -200 -62 -46 c-264 -195 -453 -545 -475 -879 l-6 -99 1245 0 1245 0 -4 67
c-15 240 -104 486 -243 672 -63 84 -199 219 -272 269 l-48 33 0 202 c0 111 -5
218 -10 238 -13 46 -70 112 -115 133 -20 10 -37 26 -40 39 -4 18 -155 884
-155 890 0 1 -45 2 -100 2 l-100 0 5 -25 c16 -79 155 -890 155 -906 0 -11 -9
-25 -19 -31 -11 -7 -32 -34 -48 -60 -26 -45 -28 -57 -31 -175 l-4 -127 -31 7
c-44 9 -310 9 -374 -1 l-53 -8 0 121 c0 137 -11 174 -66 231 l-35 35 102 465
c56 255 104 467 108 470 3 4 109 10 235 13 126 4 233 9 238 12 5 3 7 12 4 20
-3 8 6 25 20 39 17 17 24 33 21 46 -5 20 -5 20 13 4 14 -13 20 -14 26 -3 4 7
4 10 -1 6 -10 -9 -35 23 -28 35 3 5 13 1 22 -7 16 -15 22 -8 76 87 91 158 99
173 85 160 -7 -6 -18 -9 -26 -6 -9 3 -12 -1 -10 -14 4 -22 -10 -63 -22 -63 -5
0 -8 16 -7 36 2 37 25 61 45 49 6 -3 13 1 16 9 3 9 10 14 15 11 11 -7 28 26
21 44 -2 8 0 11 5 8 5 -3 26 23 47 58 l38 65 -52 90 c-28 49 -56 90 -61 90 -6
0 -8 4 -4 9 3 5 -4 26 -16 45 -21 37 -36 48 -25 20 3 -9 2 -12 -5 -9 -6 4 -8
14 -5 22 7 18 -22 76 -34 68 -12 -8 -44 41 -37 58 6 15 -46 111 -55 101 -3 -3
-5 3 -4 13 0 9 -5 18 -13 18 -8 0 -16 6 -19 14 -3 9 0 11 8 6 7 -4 5 5 -4 24
-13 24 -23 31 -46 31 -17 0 -30 -4 -30 -10 0 -5 -7 -10 -15 -10 -8 0 -15 5
-15 10 0 16 -630 13 -631 -2z m446 -5 c-119 -7 -443 -7 -438 0 2 4 113 6 246
5 133 -1 220 -3 192 -5z m278 -33 c-7 -27 -13 -25 -11 4 1 14 5 23 9 20 4 -2
5 -13 2 -24z m-93 10 c0 -5 -7 -10 -15 -10 -8 0 -15 -4 -15 -10 0 -6 -82 -10
-225 -10 -218 0 -225 1 -225 20 0 19 7 20 240 20 153 0 240 -4 240 -10z m-612
-15 c-2 -6 -10 -10 -18 -10 -9 0 -15 -11 -15 -32 -1 -40 -21 -65 -35 -43 -11
17 -3 33 12 24 7 -5 9 -1 5 9 -4 10 -1 17 5 17 6 0 8 3 5 7 -9 8 23 45 36 40
4 -1 7 -7 5 -12z m765 -79 c4 -10 0 -12 -14 -9 -22 6 -26 23 -5 23 8 0 16 -6
19 -14z m26 -78 c-5 -10 -11 -18 -12 -18 -2 0 -3 8 -3 18 0 10 6 19 13 19 8 0
9 -6 2 -19z m-904 -66 c5 -14 4 -14 -13 1 -10 9 -22 14 -27 10 -4 -5 -5 -3 -1
4 8 15 32 7 41 -15z m-25 -17 c5 3 11 2 14 -3 2 -4 -6 -8 -20 -8 -24 0 -30 7
-17 20 4 4 9 2 11 -3 2 -6 8 -9 12 -6z m984 3 c-3 -4 0 -8 5 -8 6 0 11 -10 10
-22 l0 -23 -10 23 c-5 13 -13 21 -17 18 -5 -3 -9 1 -9 8 0 7 6 13 13 13 7 0
11 -4 8 -9z m-1024 -26 c0 -5 -7 -17 -15 -28 -14 -18 -14 -17 -4 9 12 27 19
34 19 19z m386 -3 c6 -5 73 -10 150 -12 l139 -3 -145 -2 c-103 -1 -150 2 -158
10 -9 9 -15 8 -26 -8 -11 -14 -17 -16 -26 -7 -7 6 -10 16 -6 21 7 12 57 13 72
1z m343 -90 c10 -20 18 -25 37 -21 19 3 24 0 24 -17 0 -20 5 -21 80 -21 l80 0
0 -80 0 -80 -40 0 c-33 0 -40 3 -40 20 0 30 -40 27 -41 -2 -1 -18 -3 -16 -8 7
-4 17 -24 56 -44 88 -20 32 -37 60 -37 62 0 3 -11 22 -23 43 -13 20 -21 44
-19 52 5 12 7 11 12 -5 3 -11 12 -32 19 -46z m348 36 c-5 -15 -44 -14 -44 0 0
7 11 12 24 11 12 0 21 -5 20 -11z m-767 -67 c-11 -9 -20 -20 -18 -25 3 -16
-25 -62 -35 -56 -6 4 -8 0 -4 -10 3 -8 -1 -21 -9 -27 -25 -22 -17 16 10 45 14
15 22 33 19 41 -3 8 4 23 16 33 11 10 21 29 22 42 l0 24 10 -25 c8 -20 6 -28
-11 -42z m-320 -150 c0 -92 -4 -148 -10 -148 -5 0 -10 6 -10 14 0 8 -7 16 -15
20 -13 5 -14 2 -4 -15 7 -13 7 -19 1 -15 -24 15 -20 -16 8 -65 17 -28 29 -53
26 -56 -2 -2 -18 22 -35 54 -30 55 -36 81 -18 75 5 -1 6 2 2 7 -3 6 -12 8 -19
5 -8 -3 -17 -1 -21 5 -3 6 -1 11 4 11 7 0 11 23 11 54 0 48 -3 55 -21 58 l-20
3 20 22 c26 28 29 65 4 57 -11 -4 -14 -2 -8 3 6 4 16 20 23 36 6 15 15 27 19
26 34 -6 45 2 39 29 -5 27 -5 27 9 -3 10 -21 14 -72 15 -177z m-30 171 c0 -5
-4 -9 -10 -9 -5 0 -10 7 -10 16 0 8 5 12 10 9 6 -3 10 -10 10 -16z m1177 -56
c-4 -3 1 -12 11 -19 9 -8 12 -14 5 -14 -6 0 -15 5 -18 10 -4 6 -10 8 -14 6 -4
-3 -8 1 -8 9 0 8 7 15 15 15 9 0 12 -3 9 -7z m33 -59 c0 -8 -4 -12 -10 -9 -5
3 -10 10 -10 16 0 5 5 9 10 9 6 0 10 -7 10 -16z m-1307 -36 c-6 -7 -9 -23 -8
-35 1 -12 -2 -20 -6 -17 -4 2 -6 17 -5 32 4 33 4 32 17 32 8 0 8 -4 2 -12z
m1338 -47 c-7 -12 -16 -21 -22 -21 -6 0 -8 -4 -5 -8 3 -5 -1 -9 -8 -9 -7 0
-13 6 -13 13 0 7 3 11 7 9 13 -8 42 33 35 47 -6 10 -5 10 4 2 10 -9 10 -17 2
-33z m-71 -36 c0 -8 -4 -15 -10 -15 -5 0 -7 7 -4 15 4 8 8 15 10 15 2 0 4 -7
4 -15z m-870 -5 c0 -5 -5 -10 -11 -10 -5 0 -7 5 -4 10 3 6 8 10 11 10 2 0 4
-4 4 -10z m-366 -15 c-4 -8 -11 -12 -16 -9 -6 4 -5 10 3 15 19 12 19 11 13 -6z
m1266 -16 c-7 -11 -14 -18 -17 -15 -3 3 0 12 7 21 18 21 23 19 10 -6z m-858
-59 c-3 -3 -7 1 -9 8 -3 6 -9 10 -13 7 -5 -3 -8 9 -8 26 l1 32 17 -34 c9 -19
14 -36 12 -39z m488 -2 c0 -45 -19 -48 -34 -6 -11 33 -2 60 19 52 10 -4 15
-19 15 -46z m333 17 c4 -8 2 -17 -3 -20 -6 -4 -10 3 -10 14 0 25 6 27 13 6z
m-390 -32 c-4 -11 -3 -14 5 -9 8 4 11 -3 9 -23 -1 -16 -5 -27 -9 -25 -3 2 -9
-2 -12 -8 -4 -7 -4 2 -1 20 3 20 1 31 -5 27 -6 -3 -10 -17 -10 -30 0 -12 -7
-26 -16 -29 -10 -4 -13 -2 -7 7 4 6 8 17 9 23 2 12 34 64 40 64 2 0 0 -7 -3
-17z m-401 -48 c-8 -16 -9 -16 -15 -1 -4 10 -3 15 3 11 6 -3 10 -1 10 6 0 7 3
10 6 6 3 -3 2 -13 -4 -22z m313 -49 c22 -1 -35 -3 -127 -4 -93 0 -168 3 -168
6 0 7 210 5 295 -2z m-621 -24 c3 -5 -1 -9 -9 -9 -8 0 -12 4 -9 9 3 4 7 8 9 8
2 0 6 -4 9 -8z m998 -35 c-12 -13 -22 -29 -22 -37 0 -9 -5 -7 -15 6 -8 10 -14
26 -15 34 0 13 1 13 10 0 9 -13 12 -13 21 3 5 9 17 17 26 17 14 0 13 -4 -5
-23z m-952 -7 c0 -11 -2 -20 -4 -20 -2 0 -6 9 -9 20 -3 11 -1 20 4 20 5 0 9
-9 9 -20z m910 -70 c-6 -11 -15 -20 -21 -20 -6 0 -7 -5 -3 -12 4 -6 3 -8 -4
-5 -15 10 -3 45 17 50 9 3 17 5 19 6 1 0 -2 -8 -8 -19z m-840 -96 c0 -14 -4
-23 -10 -19 -5 3 -10 15 -10 26 0 10 5 19 10 19 6 0 10 -12 10 -26z m450
-1804 l-45 -6 40 -6 c22 -3 7 -3 -32 -1 -125 8 -140 21 -23 21 75 -1 92 -3 60
-8z m201 -31 c130 -43 261 -123 351 -216 34 -34 45 -52 39 -62 -5 -8 -16 -11
-26 -7 -14 5 -15 9 -5 21 9 11 7 19 -9 36 -18 19 -21 20 -21 6 0 -9 -4 -17
-10 -17 -5 0 -7 6 -4 14 6 16 -25 58 -38 50 -5 -3 -7 0 -6 8 2 7 -3 12 -10 10
-8 -1 -11 2 -7 8 3 5 0 10 -8 10 -8 0 -26 11 -42 24 -16 14 -35 22 -46 19 -12
-3 -21 1 -25 11 -6 15 -8 15 -21 -1 -8 -10 -12 -13 -9 -6 4 6 -6 23 -21 37
-30 28 -53 35 -33 10 11 -12 11 -15 -1 -12 -8 2 -15 -7 -17 -19 -3 -19 -10
-23 -39 -23 l-35 0 4 49 c2 32 -1 47 -8 44 -6 -2 -17 3 -24 12 -17 20 -6 19
71 -6z m-476 -9 c-2 -8 -4 -32 -4 -52 -1 -31 -5 -38 -21 -38 -13 0 -20 7 -20
18 0 29 -91 59 -102 34 -1 -4 -23 -18 -48 -30 -38 -19 -41 -22 -15 -18 17 3
24 3 18 0 -21 -9 -15 -44 7 -44 22 0 26 -28 14 -89 -6 -27 -11 -31 -39 -31
-32 0 -33 2 -37 45 -2 25 1 47 7 49 5 2 -6 3 -25 3 -19 -1 -38 -6 -42 -12 -5
-6 -8 -5 -8 3 0 7 7 15 15 18 8 4 15 11 15 16 0 15 -43 -16 -46 -33 -1 -8 -6
-23 -10 -33 -5 -14 -4 -17 4 -12 18 11 14 0 -5 -15 -15 -12 -16 -12 -8 1 4 8
4 12 0 7 -11 -10 -15 -37 -6 -37 4 0 11 4 17 10 6 6 10 -24 12 -80 l2 -90 -80
0 c-78 0 -80 1 -80 24 0 20 4 23 21 19 17 -5 20 -2 17 17 -2 16 -10 24 -26 25
l-22 2 6 -124 c7 -121 7 -123 -14 -123 -15 0 -22 6 -22 20 0 19 -17 25 -67 23
-15 -1 -16 7 -4 26 5 7 13 11 19 7 6 -4 8 2 5 14 -4 14 3 27 21 41 14 11 26
28 26 37 0 13 -5 12 -21 -8 l-20 -25 15 31 c8 17 22 36 30 43 9 8 16 18 16 23
0 14 82 117 122 154 83 77 200 148 303 184 60 21 84 21 80 0z m133 13 c-16 -2
-40 -2 -55 0 -16 2 -3 4 27 4 30 0 43 -2 28 -4z m-91 -9 c-3 -3 -12 -4 -19 -1
-8 3 -5 6 6 6 11 1 17 -2 13 -5z m733 -209 c0 -8 -7 -15 -15 -15 -8 0 -15 7
-15 15 0 8 7 15 15 15 8 0 15 -7 15 -15z m118 -96 c-10 -7 -10 -9 2 -10 8 -1
18 -1 21 -1 10 2 18 -37 9 -43 -4 -3 -10 5 -13 16 -4 16 -11 19 -29 14 -13 -3
-18 -3 -12 2 6 4 10 18 9 30 -1 18 1 20 12 11 11 -9 12 -13 1 -19z m80 -124
c-3 -15 -1 -22 7 -19 13 5 42 -72 32 -83 -4 -3 -7 5 -8 18 -1 22 -2 21 -10 -6
-13 -43 -1 -95 21 -95 10 0 21 8 23 18 2 9 3 5 1 -10 -2 -16 1 -28 7 -28 6 0
9 -6 6 -14 -3 -7 0 -19 6 -25 6 -6 7 -14 3 -18 -4 -4 -11 -1 -16 7 -8 12 -10
10 -10 -7 0 -16 -6 -23 -19 -23 -11 0 -21 -5 -23 -12 -3 -7 -12 -9 -22 -5 -16
6 -17 23 -15 172 1 98 6 162 12 158 5 -3 7 -16 5 -28z m-1574 -181 c3 -8 2
-12 -3 -9 -5 3 -13 -4 -16 -16 -10 -29 -17 -17 -9 15 7 29 19 34 28 10z m36
-39 c0 -5 -5 -3 -10 5 -8 12 -10 12 -10 1 0 -8 -2 -12 -5 -9 -3 3 -2 13 1 22
5 14 9 15 15 4 5 -7 9 -17 9 -23z m-77 -115 c-5 -20 -3 -20 856 -18 684 2 861
0 861 -9 0 -10 -180 -13 -865 -13 l-865 0 0 36 c0 19 4 33 9 30 5 -3 7 -15 4
-26z m1677 0 c0 -5 -18 -10 -40 -10 -22 0 -40 5 -40 10 0 6 18 10 40 10 22 0
40 -4 40 -10z"/>
<path d="M4446 4338 c3 -5 10 -6 15 -3 13 9 11 12 -6 12 -8 0 -12 -4 -9 -9z"/>
<path d="M4650 4140 c0 -5 5 -10 10 -10 6 0 10 5 10 10 0 6 -4 10 -10 10 -5 0
-10 -4 -10 -10z"/>
<path d="M5116 1519 c3 -5 12 -9 21 -9 19 0 9 13 -12 16 -8 1 -13 -2 -9 -7z"/>
<path d="M4390 1430 c0 -5 -7 -10 -16 -10 -14 0 -14 -3 -4 -15 10 -12 10 -15
0 -15 -8 0 -11 -2 -9 -5 8 -7 47 6 52 19 2 6 -2 17 -9 24 -8 7 -14 8 -14 2z"/>
<path d="M4294 1355 c-4 -8 -12 -15 -19 -15 -21 0 -26 -16 -6 -17 11 -1 23 9
30 23 6 13 8 24 5 24 -2 0 -7 -7 -10 -15z"/>
<path d="M4225 1290 c-3 -5 -1 -10 4 -10 6 0 11 5 11 10 0 6 -2 10 -4 10 -3 0
-8 -4 -11 -10z"/>
<path d="M4210 1260 c0 -5 -6 -10 -13 -10 -7 0 -18 -9 -25 -20 -15 -25 -4 -26
15 -2 8 9 12 12 9 6 -3 -7 2 -18 12 -25 14 -11 15 -11 5 0 -9 11 -8 19 4 37 9
15 11 24 4 24 -6 0 -11 -4 -11 -10z"/>
<path d="M4226 1232 c-2 -4 -1 -14 4 -22 7 -11 9 -9 7 8 -1 24 -3 26 -11 14z"/>
<path d="M8410 4431 c0 -5 7 -15 17 -22 15 -13 15 -12 4 9 -12 23 -21 28 -21
13z"/>
<path d="M5327 4242 c3 -12 9 -25 14 -28 14 -8 11 10 -6 32 -13 18 -14 18 -8
-4z"/>
<path d="M8655 3970 c-3 -5 -1 -10 4 -10 6 0 11 5 11 10 0 6 -2 10 -4 10 -3 0
-8 -4 -11 -10z"/>
<path d="M8650 3940 c0 -5 5 -10 10 -10 6 0 10 5 10 10 0 6 -4 10 -10 10 -5 0
-10 -4 -10 -10z"/>
<path d="M5225 3343 c-10 -15 -20 -36 -20 -47 -2 -18 -1 -18 16 3 11 13 16 27
13 32 -3 5 -1 9 4 9 6 0 12 7 16 15 9 24 -7 17 -29 -12z"/>
</g>
</svg>
