<?xml version="1.0" standalone="no"?>
<!DOCTYPE svg PUBLIC "-//W3C//DTD SVG 20010904//EN"
 "http://www.w3.org/TR/2001/REC-SVG-20010904/DTD/svg10.dtd">
<svg version="1.0" xmlns="http://www.w3.org/2000/svg"
 width="750.000000pt" height="750.000000pt" viewBox="0 0 750.000000 750.000000"
 preserveAspectRatio="xMidYMid meet">

<g transform="translate(0.000000,750.000000) scale(0.100000,-0.100000)"
fill="#000000" stroke="none">
<path d="M5180 7015 c-11 -13 -10 -18 5 -29 13 -9 16 -22 13 -49 -2 -22 0 -37
7 -37 6 0 9 16 7 40 -3 24 0 40 7 40 5 0 15 9 21 20 9 16 8 20 -5 20 -9 0 -13
-4 -10 -10 3 -5 2 -10 -4 -10 -5 0 -14 7 -19 16 -8 14 -10 14 -22 -1z"/>
<path d="M2254 7000 c5 -24 4 -24 -9 -6 -8 11 -15 15 -15 9 0 -6 7 -16 15 -23
9 -8 13 -24 10 -46 -2 -19 0 -34 5 -34 6 0 10 16 10 36 0 25 7 41 22 53 15 12
18 20 10 25 -7 4 -12 2 -12 -3 0 -13 -22 -10 -33 4 -5 6 -6 -1 -3 -15z"/>
<path d="M3515 6861 c-88 -25 -212 -95 -271 -152 -29 -28 -69 -85 -93 -130
-23 -43 -46 -79 -50 -79 -4 0 -6 17 -4 38 1 20 0 29 -3 20 -3 -10 -10 -18 -15
-18 -5 0 -9 -10 -10 -22 0 -16 -2 -18 -6 -8 -4 8 -15 21 -25 29 -11 7 -17 19
-14 27 3 8 0 11 -10 7 -20 -7 -18 -16 11 -43 43 -41 36 -46 -100 -75 -5 -1 -7
0 -2 2 10 7 9 33 -3 33 -13 0 -31 -36 -22 -45 4 -4 -8 -5 -25 -2 -39 8 -63 0
-63 -19 0 -7 -45 -36 -99 -64 -148 -76 -250 -158 -385 -310 -31 -36 -52 -55
-46 -42 6 12 8 27 5 32 -3 6 -1 10 6 10 8 0 8 4 -1 15 -10 12 -10 15 1 15 9 1
8 5 -5 15 -20 15 -20 15 0 15 19 1 19 1 0 15 -19 14 -19 15 -2 15 14 0 16 3 7
13 -8 10 -7 17 1 25 9 9 8 12 -7 12 -18 0 -18 0 1 15 13 10 14 14 5 15 -11 0
-11 3 -1 15 10 12 9 15 -6 15 -19 1 -19 1 0 11 15 9 16 13 5 21 -11 8 -11 11
-1 15 10 4 10 8 1 19 -9 11 -9 14 1 14 7 0 10 6 7 14 -3 7 0 19 6 25 8 8 8 11
-1 11 -8 0 -10 9 -6 28 9 35 22 52 52 63 13 5 20 13 17 19 -3 5 0 10 7 10 8 0
29 14 48 31 19 17 29 28 22 24 -23 -12 -34 42 -16 77 22 42 14 116 -16 158
-32 46 -96 71 -167 68 -32 -1 -66 2 -76 6 -14 7 -28 -2 -61 -37 -68 -70 -80
-169 -30 -245 29 -44 100 -109 128 -116 22 -5 26 -12 27 -44 1 -20 2 -44 3
-52 1 -8 -3 -21 -8 -27 -6 -9 -3 -13 10 -13 18 -1 18 -1 1 -11 -9 -6 -14 -15
-10 -22 3 -6 6 -27 5 -46 -3 -88 -2 -138 1 -163 2 -16 0 -28 -6 -28 -5 0 -5
-5 2 -13 8 -10 7 -17 -1 -25 -9 -9 -8 -12 7 -12 18 0 18 0 -1 -15 -10 -8 -14
-15 -8 -15 20 0 6 -47 -32 -106 -20 -33 -66 -116 -100 -185 l-63 -126 -62 -7
c-34 -3 -70 -12 -78 -19 -9 -7 -48 -32 -87 -55 -116 -68 -215 -196 -247 -323
-10 -36 -20 -54 -38 -62 -19 -10 -25 -22 -27 -53 -3 -35 1 -45 26 -66 19 -16
32 -38 36 -64 14 -77 53 -143 128 -216 69 -67 151 -118 191 -118 9 0 17 -4 17
-10 0 -5 14 -10 30 -10 22 0 30 -5 30 -18 0 -38 -32 -111 -56 -127 -36 -24
-31 -45 12 -45 24 0 33 -4 28 -12 -8 -12 336 -9 1601 12 378 6 744 6 1050 0
590 -12 665 -17 665 -47 0 -13 -15 -14 -102 -9 -330 17 -2774 34 -2848 20 -22
-5 -28 -9 -18 -15 8 -6 -4 -9 -33 -9 -25 0 -95 -3 -155 -6 -91 -4 -106 -3 -89
8 11 7 43 15 70 19 33 4 4 7 -87 8 -131 1 -138 0 -138 -19 0 -13 9 -21 28 -25
15 -3 55 -12 90 -20 71 -18 227 -34 321 -35 44 0 70 -5 82 -16 16 -15 13 -21
-48 -97 -41 -52 -77 -87 -98 -95 -23 -10 -35 -22 -38 -40 -3 -15 -1 -28 4 -30
10 -4 11 -41 3 -94 -5 -30 -11 -38 -28 -38 -43 0 -46 -15 -47 -209 -1 -103 -4
-213 -8 -246 -6 -53 -7 -44 -14 76 -3 75 -4 186 0 246 6 104 5 113 -17 148
-29 48 -125 118 -195 144 -86 32 -151 36 -210 13 l-50 -20 -8 -68 c-4 -38 -11
-152 -16 -254 -4 -102 -9 -186 -9 -187 -26 -42 -21 381 4 456 8 24 12 46 9 50
-8 8 -25 -20 -25 -43 0 -10 -16 -50 -35 -90 -19 -39 -42 -107 -51 -151 -8 -44
-24 -109 -35 -145 -25 -85 -25 -144 1 -170 14 -14 20 -33 20 -65 0 -49 47
-205 61 -205 5 0 9 7 9 16 0 32 18 3 23 -38 4 -33 14 -50 39 -71 27 -23 30
-29 18 -37 -8 -5 -27 -10 -42 -10 -17 0 -29 -7 -32 -17 -10 -37 -10 -91 1
-105 10 -12 1 -24 -46 -65 -75 -67 -128 -147 -162 -248 -33 -96 -54 -264 -45
-354 4 -36 9 -81 11 -98 9 -84 55 -169 79 -146 4 4 13 8 22 9 12 2 13 -1 3
-12 -6 -8 -8 -14 -3 -14 5 0 1 -5 -9 -11 -16 -9 -15 -12 10 -33 16 -13 43 -31
61 -40 32 -17 35 -17 54 0 16 16 21 16 28 4 15 -24 12 -27 -29 -34 -41 -6
-164 -82 -230 -141 -36 -33 -41 -43 -41 -80 0 -44 10 -55 51 -55 10 0 19 -5
19 -11 0 -7 -12 -9 -35 -5 -19 4 -35 4 -35 1 0 -9 93 -49 108 -47 6 2 12 -2
12 -8 0 -5 -6 -10 -14 -10 -22 0 -24 -20 -10 -88 9 -46 10 -70 2 -86 -7 -17
-7 -29 1 -44 6 -11 11 -30 11 -42 0 -28 26 -36 49 -16 10 9 25 14 35 10 20 -7
20 -13 1 -38 -22 -28 -19 -33 25 -56 l39 -20 26 33 c14 19 25 38 25 44 0 5
-18 18 -40 28 -52 23 -66 40 -51 59 13 15 -1 56 -18 56 -5 0 -2 30 5 67 8 37
12 73 10 80 -3 7 -2 13 3 13 5 0 14 14 21 30 12 29 14 30 85 30 81 0 105 -6
105 -25 0 -8 8 -16 18 -19 24 -8 62 -76 62 -112 0 -38 36 -98 55 -90 8 3 22
-9 35 -31 20 -34 20 -36 3 -55 -17 -19 -17 -21 10 -44 33 -28 37 -29 63 -8 18
14 18 15 -4 4 -19 -9 -27 -8 -43 6 -22 20 -17 33 5 15 12 -10 20 -10 38 0 13
7 24 10 25 8 1 -2 5 0 10 5 5 5 3 6 -4 2 -18 -10 -16 4 4 26 15 17 15 21 3 29
-8 5 -29 8 -46 5 -17 -2 -37 0 -45 5 -8 5 -10 9 -5 9 6 0 5 5 -1 11 -13 13 -6
39 16 55 12 10 13 16 3 35 -7 13 -10 16 -8 7 6 -21 -4 -23 -23 -5 -11 10 -13
10 -7 0 9 -17 -30 -18 -40 -1 -4 6 -3 9 2 5 11 -6 38 13 41 30 2 7 -4 10 -12
7 -8 -4 -12 -10 -9 -15 3 -5 -5 -7 -18 -6 -13 2 -25 12 -27 22 -1 10 -12 32
-22 49 -10 17 -19 36 -19 41 0 6 12 -9 26 -33 14 -23 29 -42 34 -42 16 0 20
18 6 29 -8 7 -17 23 -20 36 -4 14 -13 25 -22 25 -8 0 -12 5 -8 11 3 6 17 9 30
6 26 -5 30 4 14 34 -9 15 -7 19 5 19 15 0 85 -67 85 -82 0 -4 9 -12 20 -18 22
-12 90 11 90 30 0 6 -11 33 -25 60 -24 48 -46 62 -60 40 -4 -6 -11 -7 -17 -4
-12 8 -11 5 28 -58 16 -25 20 -38 11 -41 -10 -3 -57 81 -57 104 0 5 14 12 30
16 17 3 33 9 35 13 3 5 -9 32 -27 62 -31 53 -65 82 -125 107 -46 19 -41 28 17
30 44 1 50 -1 50 -19 0 -53 64 6 119 109 16 31 36 83 45 116 21 79 47 388 45
542 l-1 123 -55 50 c-30 27 -59 50 -65 50 -6 0 -4 8 5 18 12 13 17 36 17 73 0
54 -1 55 -35 68 l-36 13 68 47 c97 69 107 83 113 155 4 45 9 61 20 61 11 0 18
-17 24 -57 6 -41 13 -57 26 -61 24 -6 28 -66 35 -552 10 -590 11 -615 35 -641
12 -11 56 -38 99 -58 65 -31 86 -47 130 -101 47 -58 56 -64 94 -67 l42 -3 0
-102 c0 -56 3 -105 8 -109 4 -4 0 -18 -9 -32 -9 -14 -13 -34 -10 -48 7 -26 -8
-34 -17 -9 -4 8 -19 15 -34 15 -81 3 -148 -2 -159 -11 -7 -5 -18 -39 -25 -75
-15 -74 -28 -91 -58 -75 -47 26 -68 15 -107 -57 -21 -37 -43 -74 -50 -82 -7
-8 -15 -52 -17 -100 -3 -47 -3 -73 0 -57 4 24 8 27 44 27 35 0 39 -3 39 -25 0
-14 -6 -25 -12 -25 -10 0 -9 -3 1 -9 11 -7 10 -11 -5 -20 -11 -6 -13 -11 -6
-11 6 0 12 -7 12 -15 0 -11 -11 -15 -39 -15 -33 0 -40 4 -44 23 -3 17 -5 15
-6 -8 -1 -30 0 -30 45 -27 45 4 45 4 42 -24 -3 -26 -7 -29 -48 -34 l-45 -5 -2
-130 c-1 -71 -2 -137 -3 -145 0 -11 -25 -20 -93 -33 -104 -20 -180 -53 -185
-80 -5 -26 17 -76 38 -87 9 -5 59 -19 111 -32 91 -22 111 -22 720 -26 462 -2
633 0 655 9 16 6 39 12 51 13 28 2 64 36 46 43 -10 4 -10 9 2 26 8 11 20 22
27 24 7 1 26 6 42 9 20 5 32 2 40 -8 14 -19 141 -83 181 -92 17 -3 98 -12 180
-20 117 -11 268 -13 685 -9 501 5 538 7 581 25 26 11 59 33 74 48 l28 29 -31
-11 c-17 -7 -28 -16 -25 -22 3 -5 1 -6 -5 -2 -17 10 -15 26 2 26 25 0 66 44
72 78 l7 32 -37 -15 c-32 -13 -118 -15 -646 -13 -565 3 -611 4 -627 21 -11 11
-13 17 -5 17 7 0 11 3 9 8 -3 4 283 7 634 7 529 0 641 2 648 14 5 7 9 53 10
102 l2 89 -40 0 c-22 0 -43 -4 -46 -10 -3 -5 -1 -10 5 -10 6 0 18 -7 26 -15
14 -13 14 -15 1 -15 -9 0 -22 -2 -30 -5 -12 -5 -15 25 -21 181 -4 103 -9 220
-13 260 -5 68 -4 74 13 75 19 0 19 1 0 8 -12 5 -20 19 -22 42 -6 54 -11 59
-54 59 -48 0 -47 3 -25 -145 16 -102 39 -514 30 -523 -3 -3 -6 12 -6 34 -1 21
-3 32 -6 23 -9 -35 -85 -29 -136 11 -14 11 -28 20 -31 20 -3 0 -6 -22 -6 -50
0 -56 -16 -68 -24 -17 -5 32 -37 603 -35 642 1 41 16 -17 29 -113 7 -51 17
-89 21 -85 5 5 24 40 43 78 19 39 41 79 50 90 14 17 17 18 26 5 12 -16 8 27
-11 128 -12 60 -29 72 -103 72 -43 0 -76 -21 -76 -49 0 -9 -4 -8 -15 3 -9 8
-12 22 -8 32 4 11 3 15 -4 11 -6 -4 -14 0 -17 9 -4 10 -2 13 7 8 6 -4 4 2 -5
13 -10 11 -18 25 -18 31 0 6 -8 9 -17 6 -17 -5 -17 -5 0 6 9 6 18 23 18 38 l1
27 8 -30 c6 -25 8 -27 15 -12 4 11 1 27 -9 42 -10 14 -13 31 -9 38 4 7 8 30 8
52 0 38 1 40 39 46 31 5 52 20 111 82 50 53 88 83 126 100 54 24 122 88 101
95 -8 2 -8 12 -1 29 6 18 6 30 0 36 -6 6 -8 51 -5 116 3 58 9 296 13 529 7
418 7 422 28 437 17 12 23 28 25 68 2 38 7 53 19 55 13 2 17 -10 23 -59 8 -79
21 -98 107 -161 71 -52 83 -68 50 -68 -30 0 -44 -26 -37 -68 10 -53 11 -56 19
-69 5 -8 -3 -17 -20 -27 -15 -8 -48 -32 -73 -54 l-45 -39 6 -244 c9 -340 35
-456 125 -580 35 -46 50 -60 65 -56 10 3 19 0 19 -6 0 -6 6 -3 13 6 14 19 77
35 77 20 0 -6 -20 -18 -44 -27 -94 -36 -167 -115 -165 -178 0 -13 -6 -41 -15
-63 -19 -50 -20 -74 -3 -81 9 -3 12 -16 9 -34 -2 -17 -8 -27 -14 -24 -5 3 -6
15 -2 26 4 14 2 18 -5 14 -6 -4 -11 -17 -11 -29 0 -14 -3 -18 -8 -10 -5 8 -12
9 -22 2 -13 -8 -12 -12 4 -24 11 -8 15 -15 10 -15 -6 0 -15 5 -22 12 -9 10
-16 8 -29 -5 -17 -16 -16 -19 14 -49 29 -28 36 -31 60 -22 25 9 28 14 28 59 1
55 9 75 30 75 8 0 20 11 27 24 7 13 42 48 77 77 57 48 62 50 48 23 -16 -31
-20 -97 -6 -88 17 10 -40 -99 -65 -125 -29 -30 -32 -46 -13 -58 18 -12 46 -49
28 -39 -10 7 -12 3 -6 -14 5 -15 4 -20 -4 -16 -7 4 -9 1 -5 -7 4 -12 -2 -14
-31 -10 -20 3 -43 2 -52 -1 -14 -6 -14 -8 1 -24 9 -10 16 -23 16 -29 0 -17 31
-38 38 -27 4 6 18 11 32 11 l25 2 -27 -15 c-29 -15 -35 -24 -19 -24 6 0 23 11
38 25 27 24 27 25 9 40 -18 13 -18 18 -6 55 10 31 17 39 30 35 13 -4 22 4 33
32 8 21 12 42 7 47 -14 15 31 106 61 121 15 8 30 24 34 35 5 16 15 20 53 20
87 0 123 -11 135 -39 12 -25 12 -25 18 14 5 35 6 31 8 -23 0 -35 5 -71 10 -80
15 -30 22 -104 10 -119 -6 -7 -9 -26 -6 -42 5 -24 2 -30 -21 -40 -15 -7 -37
-19 -50 -27 l-22 -15 26 -35 c23 -29 32 -34 53 -29 14 3 32 13 40 20 13 13 12
18 -8 39 l-23 24 22 12 c17 9 26 8 46 -5 30 -19 48 -11 40 20 -3 13 -2 27 4
30 24 15 9 33 -24 30 -26 -2 -33 1 -29 10 2 8 11 11 19 8 8 -3 14 0 14 7 0 9
4 9 17 -1 15 -13 15 -12 5 7 -6 12 -9 23 -7 26 12 12 25 112 15 122 -19 19
-10 36 30 52 22 9 40 20 40 25 0 14 -23 11 -49 -8 -18 -12 -23 -13 -19 -2 2 8
20 19 39 25 31 11 34 15 37 56 3 43 0 48 -45 88 -69 61 -188 127 -250 140 -29
6 -51 16 -48 21 8 13 33 11 37 -2 3 -8 9 -6 20 4 8 9 19 12 24 8 27 -25 63
-20 105 12 101 77 145 197 143 392 -1 61 -6 128 -12 150 l-10 40 -1 -56 c-1
-31 -10 -91 -21 -135 -12 -43 -22 -96 -23 -116 l-1 -38 -41 5 c-22 2 -32 2
-22 -1 15 -5 16 -8 5 -21 -11 -14 -10 -15 12 -8 14 4 29 8 35 9 16 2 12 -28
-8 -51 -22 -25 -14 -52 9 -32 10 8 14 8 14 0 0 -11 -13 -15 -39 -12 -7 2 -10
-2 -7 -7 9 -15 -4 -42 -20 -42 -8 0 -14 5 -14 10 0 6 7 10 17 10 14 0 15 2 1
18 -9 9 -18 24 -21 32 -3 9 -6 4 -6 -11 -1 -15 -7 -42 -15 -60 l-14 -34 -6 35
c-21 128 -29 167 -56 268 l-29 112 24 36 c14 20 25 42 25 47 0 6 -13 -10 -29
-35 -33 -52 -51 -58 -170 -58 -85 0 -110 11 -142 64 -10 17 -19 26 -19 19 0
-7 14 -28 31 -48 29 -32 31 -39 24 -81 -11 -77 -22 -96 -22 -39 0 36 -10 74
-36 135 -30 71 -38 105 -48 203 -11 121 -6 172 8 76 l8 -54 5 75 5 75 18 -130
c26 -180 33 -202 79 -232 33 -23 45 -25 117 -22 67 4 83 8 105 28 36 34 39 65
26 252 -7 93 -10 172 -7 175 3 3 16 1 29 -6 l23 -11 -24 20 c-12 12 -28 18
-34 14 -7 -4 -8 2 -3 18 16 51 18 70 12 104 -6 32 -10 35 -41 35 -19 0 -35 3
-35 7 0 3 18 21 40 40 40 35 40 35 41 111 1 78 3 78 14 8 9 -52 20 -37 45 59
22 82 42 328 29 355 -4 8 -14 62 -23 120 -11 68 -27 126 -45 165 l-29 60 0
-75 c-1 -46 2 -67 7 -55 7 17 9 14 14 -15 16 -91 18 -189 8 -297 -20 -193 -25
-202 -32 -53 -4 88 -5 52 -3 -102 l3 -238 -31 0 c-29 0 -30 2 -24 33 4 17 8
163 10 322 3 160 2 277 0 260 -12 -84 -36 -174 -54 -203 -39 -63 -86 -35 -186
110 -66 97 -78 120 -82 163 -4 46 0 56 46 127 56 84 73 98 126 98 60 0 92 -19
141 -85 14 -19 15 -16 13 35 -3 52 -5 56 -38 72 -25 13 -59 18 -116 18 -75 0
-88 -3 -161 -40 -52 -26 -96 -57 -127 -90 l-47 -50 7 -168 c6 -152 5 -171 -11
-196 -13 -20 -15 -32 -8 -49 12 -26 5 -99 -8 -91 -5 3 -9 115 -9 250 l0 245
-30 5 c-25 5 -31 12 -35 43 -4 20 -9 48 -11 64 -4 21 -2 27 12 27 14 0 15 3 6
12 -7 7 -12 22 -12 35 0 18 -7 25 -29 29 -21 5 -42 24 -75 69 -26 34 -55 70
-66 80 -14 13 -17 22 -10 35 8 14 33 18 180 23 101 4 194 12 228 21 31 9 76
20 100 26 54 14 55 36 1 47 -47 9 -52 26 -9 33 41 7 40 22 -2 36 -31 11 -34
15 -44 75 -6 35 -9 67 -7 71 2 4 29 12 61 18 31 7 62 17 67 24 6 6 28 23 50
36 115 68 174 143 203 257 11 42 22 68 29 66 16 -6 51 31 59 62 7 26 -5 50
-13 28 -7 -19 -31 -16 -36 5 -4 14 -5 14 -6 -3 -1 -11 -6 -27 -11 -35 -8 -11
-9 -8 -6 15 2 17 5 36 5 43 1 7 6 10 11 7 6 -3 10 -2 10 3 0 6 -7 12 -15 16
-9 3 -15 19 -16 38 -1 31 -2 30 -10 -10 -4 -23 -11 -47 -15 -53 -14 -23 -76
-39 -148 -39 l-74 0 -7 103 c-3 56 -5 150 -3 209 l3 107 45 -20 c25 -11 65
-39 90 -62 l45 -42 -45 48 c-43 46 -124 107 -142 107 -4 0 -9 -93 -10 -207
l-3 -208 -69 -8 c-38 -4 -71 -5 -74 -2 -7 7 -6 464 1 471 3 4 27 1 53 -5 25
-7 49 -9 53 -6 11 12 -30 33 -78 40 l-47 6 -63 137 c-34 75 -68 151 -74 167
-7 17 -14 32 -17 35 -11 11 -9 30 2 30 8 0 5 7 -6 15 -20 15 -20 15 0 16 18 0
18 1 -1 9 -17 7 -17 9 -2 9 9 1 17 5 17 10 0 5 -8 12 -17 14 -17 4 -17 5 0 6
9 0 17 5 17 10 0 5 -8 12 -17 14 -17 4 -17 5 0 6 9 0 17 5 17 10 0 5 -8 12
-17 14 -16 4 -16 5 0 6 10 0 17 7 14 14 -2 6 -10 11 -16 9 -6 -1 -11 2 -11 8
0 5 8 10 17 10 15 0 14 2 -3 15 -19 14 -19 14 0 15 20 0 20 0 0 15 -19 14 -19
14 0 15 20 0 20 0 0 15 -17 13 -17 14 -1 15 9 0 17 5 17 10 0 6 -8 10 -17 10
-16 1 -16 2 1 11 15 9 16 13 5 20 -12 8 -12 11 1 19 10 6 11 10 3 10 -20 0
-15 20 5 20 12 0 14 2 4 8 -7 5 -10 16 -6 25 3 10 1 17 -6 17 -6 0 -8 5 -3 13
4 6 6 22 4 35 -3 27 23 72 42 72 18 0 77 53 77 69 0 7 5 9 10 6 6 -4 10 -3 9
2 -4 14 13 43 21 38 5 -3 6 5 3 17 -3 15 -2 19 4 11 5 -8 7 14 5 55 -5 83 -31
141 -80 178 -35 27 -35 26 10 -23 65 -70 77 -159 32 -228 -20 -31 -31 -18 -14
17 11 22 10 22 -9 -2 l-21 -25 16 40 c48 117 -44 235 -172 222 -40 -4 -54 -2
-58 9 -10 25 -33 15 -74 -31 -61 -70 -73 -159 -31 -236 25 -48 97 -117 128
-124 16 -3 32 -12 34 -19 3 -7 6 -113 6 -236 1 -122 4 -227 7 -231 3 -5 2 -9
-3 -9 -4 0 -24 19 -43 43 -59 73 -200 196 -303 264 -105 70 -318 168 -429 198
-37 10 -65 22 -62 27 3 4 9 6 13 4 4 -3 18 9 30 25 18 25 20 33 11 42 -9 8
-11 8 -7 1 7 -12 -26 -47 -47 -50 -8 -1 -20 9 -27 22 -7 13 -16 24 -21 24 -12
0 -10 -8 8 -36 9 -13 15 -27 12 -29 -3 -3 -27 2 -54 10 -92 29 -259 45 -534
51 -204 4 -283 10 -307 20 -17 8 -46 15 -65 15 -109 5 148 18 367 18 332 2
500 -18 538 -63 14 -16 -34 84 -50 103 -1 2 -33 10 -70 17 -109 21 -377 36
-561 33 -108 -3 -168 -1 -162 6 16 15 11 25 -12 25 -12 0 -19 2 -16 5 2 3 71
9 151 15 172 11 457 -2 549 -25 65 -17 90 -14 37 4 -62 21 -217 34 -426 35
-117 1 -213 3 -213 6 0 5 24 43 36 59 2 2 27 12 56 22 43 15 48 18 23 18 -16
0 -57 -8 -90 -18z m-1153 -52 c36 -26 58 -68 58 -111 0 -52 -12 -62 -61 -55
-36 4 -52 14 -88 54 -43 48 -81 102 -81 115 0 13 65 27 104 22 21 -3 52 -14
68 -25z m2897 2 c44 -23 70 -58 78 -105 7 -43 -16 -66 -67 -66 -31 0 -44 7
-73 39 -39 43 -67 91 -67 115 0 38 70 47 129 17z m-1229 -132 c126 -14 190
-35 190 -60 0 -17 -4 -20 -23 -15 -77 19 -259 29 -529 30 -239 1 -308 4 -308
14 0 6 -10 12 -22 12 -19 1 -20 2 -7 10 46 27 494 33 699 9z m-1816 -104 l26
-34 -34 2 c-19 1 -34 4 -33 7 1 3 -10 21 -26 41 -15 20 -27 44 -27 53 0 14 6
13 34 -9 19 -15 46 -41 60 -60z m2879 44 c27 -14 77 -60 77 -71 0 -4 -9 -8
-20 -8 -23 0 -90 56 -90 76 0 17 5 17 33 3z m-1793 -28 c0 -6 -4 -13 -10 -16
-5 -3 -10 1 -10 9 0 9 5 16 10 16 6 0 10 -4 10 -9z m760 -107 c131 -7 199 -20
272 -50 32 -13 80 -29 108 -35 28 -6 63 -21 78 -33 15 -12 63 -46 107 -76 164
-109 213 -154 280 -258 6 -9 21 -26 35 -38 l25 -22 47 44 c26 24 55 44 65 44
20 0 21 1 -61 -64 -20 -15 -36 -32 -36 -36 0 -4 16 -28 36 -54 84 -110 151
-256 187 -409 21 -87 22 -115 22 -499 0 -295 -3 -410 -12 -419 -8 -8 -31 -8
-95 2 -63 10 -307 13 -1035 14 -524 1 -956 4 -960 8 -3 4 169 7 383 7 214 0
533 5 709 11 333 12 666 3 882 -22 57 -7 106 -10 109 -6 4 4 9 150 12 324 5
346 -3 461 -43 619 -49 195 -173 398 -288 473 -176 114 -368 159 -787 182
-273 15 -867 6 -1029 -15 -272 -36 -414 -78 -564 -164 -32 -19 -61 -32 -63
-29 -7 6 90 60 162 90 95 40 215 75 315 92 194 32 199 34 199 60 0 36 63 93
139 127 36 16 83 38 103 48 25 14 57 20 97 20 34 0 98 11 148 25 153 44 215
55 283 50 36 -3 112 -7 170 -11z m1150 -24 c0 -5 -4 -10 -9 -10 -6 0 -13 5
-16 10 -3 6 1 10 9 10 9 0 16 -4 16 -10z m-2930 -70 c0 -5 -4 -10 -10 -10 -5
0 -10 5 -10 10 0 6 5 10 10 10 6 0 10 -4 10 -10z m745 0 c10 -16 -5 -49 -27
-61 -15 -8 -18 -8 -14 0 5 7 1 9 -8 5 -9 -3 -13 -11 -9 -17 3 -5 1 -7 -5 -3
-6 3 -13 2 -17 -4 -11 -18 -64 -11 -75 10 -8 16 -6 24 11 41 11 11 27 18 35
15 8 -3 12 -2 9 3 -3 5 3 12 12 14 34 9 82 7 88 -3z m1370 -246 c212 -23 393
-82 502 -162 84 -62 232 -311 233 -392 0 -14 9 -51 19 -81 24 -68 35 -181 36
-364 0 -121 -3 -149 -24 -210 -35 -105 -95 -226 -129 -261 l-30 -31 -533 -6
c-731 -9 -1069 -9 -1069 2 0 19 67 24 408 30 298 5 354 8 362 21 5 8 10 18 10
21 0 4 -196 8 -435 11 -371 3 -437 6 -445 18 -13 20 -13 200 0 200 5 0 10 -37
12 -82 l3 -83 398 -3 397 -2 0 90 0 90 -147 0 c-204 0 -587 10 -651 16 -89 9
-46 24 70 24 95 0 109 2 104 15 -3 9 -13 44 -21 78 -23 89 -67 177 -89 177 -3
0 -2 -7 1 -17 4 -11 3 -14 -5 -9 -7 4 -12 2 -12 -3 0 -6 6 -11 13 -11 9 0 8
-3 -2 -9 -8 -5 -10 -14 -6 -21 6 -9 4 -11 -5 -5 -10 6 -12 4 -7 -9 4 -10 3
-15 -3 -11 -6 3 -10 0 -10 -8 0 -48 -123 -217 -158 -217 -7 0 -11 -4 -7 -9 3
-5 -4 -13 -15 -16 -16 -5 -18 -10 -10 -20 7 -9 6 -16 -7 -26 -16 -13 -17 -12
-5 3 10 13 10 17 0 21 -8 3 3 22 34 53 26 27 52 62 57 77 7 17 15 25 23 21 7
-4 8 -3 4 5 -4 6 -11 9 -16 6 -9 -6 -7 21 2 31 4 3 4 13 0 22 -5 15 -4 16 14
2 19 -14 19 -14 0 8 -26 31 -39 28 -69 -16 -15 -21 -46 -56 -69 -77 l-42 -40
48 55 c102 119 140 250 112 387 -20 100 -54 167 -116 232 -71 74 -159 114
-265 119 -44 2 -98 -1 -120 -6 -32 -8 -22 -9 46 -4 148 9 252 -30 340 -126 27
-29 48 -56 46 -60 -3 -10 24 -72 32 -72 10 0 16 -66 16 -178 0 -97 -2 -105
-24 -123 -35 -28 -53 -25 -44 9 4 15 7 65 7 112 0 79 -3 91 -42 172 -35 73
-51 95 -99 132 -77 61 -171 91 -260 83 -79 -8 -172 -49 -234 -103 -24 -22 -38
-31 -30 -21 16 20 22 57 10 57 -4 0 -11 -5 -14 -10 -4 -6 -11 -8 -16 -4 -6 4
-4 13 7 25 9 10 20 16 25 14 16 -11 18 13 2 26 -12 10 -14 10 -9 2 4 -8 1 -13
-9 -13 -9 0 -14 4 -11 9 3 5 -2 15 -12 22 -9 7 -14 9 -10 5 4 -5 2 -16 -5 -24
-10 -13 -9 -14 2 -7 10 6 12 4 6 -5 -6 -9 -4 -11 5 -5 9 6 11 4 5 -5 -6 -9 -4
-11 5 -5 9 6 11 4 5 -4 -5 -9 -10 -10 -18 -2 -15 15 -30 14 -21 -1 5 -8 1 -8
-10 1 -15 13 -16 15 -1 23 8 5 13 13 10 17 -2 5 2 14 10 21 8 7 15 9 15 5 0
-4 8 3 18 16 15 17 21 19 27 9 5 -8 4 -11 -3 -6 -6 3 -14 2 -17 -4 -4 -6 -3
-10 2 -9 4 1 10 0 13 -1 20 -8 57 -5 57 6 0 7 -8 11 -18 9 -10 -2 -20 2 -23
10 -7 19 5 27 21 14 7 -6 13 -8 13 -4 0 4 6 2 14 -4 11 -9 16 -9 22 0 4 7 3 9
-4 5 -6 -3 -13 -2 -17 4 -4 6 -11 7 -17 4 -6 -4 -9 -1 -7 5 3 7 8 12 13 11 5
-1 13 4 17 12 7 11 9 10 9 -1 0 -11 4 -10 16 5 8 10 13 14 10 8 -3 -6 1 -11 8
-11 8 0 12 6 9 13 -4 10 15 22 47 29 3 1 25 7 50 14 53 16 262 10 283 -8 8 -6
17 -8 20 -4 4 3 7 1 7 -4 0 -6 8 -10 18 -9 9 2 26 -3 37 -10 32 -23 37 -16 9
15 -15 18 -40 32 -62 36 -52 9 -192 58 -192 68 0 4 6 7 14 7 19 0 40 26 26 35
-5 3 -10 -2 -11 -12 0 -11 -3 -13 -6 -5 -2 6 -9 10 -14 6 -5 -3 -9 1 -10 8 0
7 -4 4 -9 -7 -8 -19 -9 -19 -9 -1 -1 11 -8 28 -18 38 -15 17 -15 19 2 38 20
22 100 50 222 76 156 33 1088 39 1368 8z m-2034 -101 c13 -16 12 -17 -3 -4
-10 7 -18 15 -18 17 0 8 8 3 21 -13z m59 -43 c0 -5 -2 -10 -4 -10 -3 0 -8 5
-11 10 -3 6 -1 10 4 10 6 0 11 -4 11 -10z m355 -10 c3 -5 2 -10 -4 -10 -5 0
-13 5 -16 10 -3 6 -2 10 4 10 5 0 13 -4 16 -10z m-31 -21 c-3 -5 -10 -7 -15
-3 -5 3 -7 10 -3 15 3 5 10 7 15 3 5 -3 7 -10 3 -15z m-93 -3 c-9 -11 -9 -15
1 -19 8 -4 7 -6 -4 -6 -21 -1 -23 10 -6 27 17 17 23 15 9 -2z m-266 -118
c-115 -205 -144 -316 -155 -593 l-8 -190 3 200 c4 224 17 305 69 425 50 118
139 286 143 272 3 -7 -21 -58 -52 -114z m183 64 c3 -9 -2 -13 -14 -10 -9 1
-19 9 -22 16 -3 9 2 13 14 10 9 -1 19 -9 22 -16z m-88 -42 c0 -5 -7 -10 -16
-10 -8 0 -12 5 -9 10 3 6 10 10 16 10 5 0 9 -4 9 -10z m-76 -143 c-5 -13 -10
-14 -32 -4 l-26 12 30 6 c35 6 36 6 28 -14z m4 -87 c-7 -11 -17 -20 -22 -20
-5 0 -1 9 9 20 10 11 20 20 22 20 2 0 -2 -9 -9 -20z m-37 -53 c-6 -6 -17 -12
-24 -12 -6 0 -13 -9 -15 -20 -3 -17 -1 -18 8 -5 10 13 11 13 7 0 -2 -8 -10
-14 -17 -12 -8 2 -10 -3 -6 -15 6 -14 4 -15 -4 -7 -9 9 -8 21 6 49 10 22 20
32 24 25 5 -8 9 -6 14 6 3 9 9 14 13 10 4 -3 1 -12 -6 -19z m550 8 c24 -9 59
-30 78 -48 37 -35 81 -119 81 -155 0 -22 -3 -23 -47 -16 -51 7 -94 26 -184 80
-31 19 -63 34 -71 34 -21 0 -7 89 18 107 24 17 71 17 125 -2z m-350 -37 c-36
-37 -90 -143 -92 -179 -1 -19 -2 -20 -6 -5 -3 10 3 39 12 65 20 51 90 151 107
151 5 0 -4 -15 -21 -32z m-660 -85 c1 -23 3 -29 6 -16 4 21 50 43 91 43 9 0
12 -64 12 -288 0 -159 -3 -329 -6 -378 l-7 -90 -46 6 -46 5 -3 91 -3 91 51 7
50 7 0 54 c0 53 -1 55 -34 69 -51 21 -59 46 -66 196 l-6 135 -8 -227 c-5 -125
-5 -283 -1 -351 4 -67 3 -140 -1 -162 l-8 -40 -6 35 c-5 34 -7 36 -77 54 -64
16 -81 27 -139 80 -122 113 -125 163 -9 190 16 4 33 13 37 19 12 19 9 186 -3
209 -9 16 -7 35 7 82 l19 61 6 -35 6 -35 2 38 c1 31 9 45 44 77 23 22 56 47
74 57 17 9 34 25 36 35 9 32 27 19 28 -19z m556 -155 c-3 -8 -6 -5 -6 6 -1 11
2 17 5 13 3 -3 4 -12 1 -19z m27 -73 c4 -24 12 -47 17 -51 6 -3 8 -13 5 -21
-3 -8 -2 -12 3 -8 5 3 19 -11 31 -30 12 -19 25 -35 28 -35 4 -1 21 -12 37 -26
31 -27 21 -24 -30 8 l-30 20 30 -26 c38 -33 125 -66 191 -73 64 -7 146 16 202
57 57 41 63 38 10 -7 -86 -72 -179 -96 -273 -68 -141 41 -245 156 -245 273 0
47 17 39 24 -13z m2883 13 c-3 -7 -5 -2 -5 12 0 14 2 19 5 13 2 -7 2 -19 0
-25z m-2834 -233 c58 -50 134 -83 219 -96 62 -10 82 -9 130 5 68 19 82 20 47
1 -44 -24 -150 -36 -210 -25 -110 21 -223 101 -268 189 -30 58 -26 62 10 8 17
-26 49 -63 72 -82z m-1005 17 c3 -16 -1 -20 -12 -16 -19 7 -22 48 -3 42 6 -3
13 -14 15 -26z m699 -199 c-2 -38 -3 -7 -3 67 0 74 1 105 3 68 2 -38 2 -98 0
-135z m3548 117 c9 -8 15 -30 15 -56 0 -65 -48 -114 -148 -153 l-77 -29 -3 99
c-1 55 2 107 7 116 5 10 24 23 43 30 39 15 142 10 163 -7z m-225 -134 c0 -86
-4 -147 -10 -151 -6 -4 -10 5 -10 20 0 26 -1 27 -65 23 l-65 -3 0 121 c0 120
0 121 23 117 12 -2 42 1 67 6 25 5 48 9 53 10 4 1 7 -64 7 -143z m-3120 59
c13 -14 21 -25 18 -25 -2 0 -15 11 -28 25 -13 14 -21 25 -18 25 2 0 15 -11 28
-25z m680 -29 c0 -2 -12 -11 -27 -20 l-28 -17 24 20 c23 21 31 25 31 17z
m-807 -262 c34 3 112 8 172 10 l110 5 -130 -14 c-71 -7 -151 -14 -177 -14
l-48 -1 2 88 2 87 3 -84 4 -84 62 7z m2865 54 c-6 -18 -28 -21 -28 -4 0 9 7
16 16 16 9 0 14 -5 12 -12z m-305 -74 c10 -11 -66 -85 -112 -108 l-44 -23 175
-6 c250 -10 331 -18 318 -31 -13 -13 -2347 -11 -2650 1 l-175 7 120 7 c66 4
370 10 675 14 305 4 562 9 570 12 10 3 5 9 -17 18 -17 7 -37 24 -43 36 -25 45
18 54 345 69 192 9 830 12 838 4z m-2663 -154 l-55 -7 60 -1 c103 -3 47 -20
-78 -24 -106 -3 -145 3 -99 15 12 3 10 5 -8 7 -49 5 53 17 145 17 79 0 83 -1
35 -7z m318 -187 c-10 -2 -28 -2 -40 0 -13 2 -5 4 17 4 22 1 32 -1 23 -4z
m2286 -6 c-76 -6 -340 -6 -710 0 l-589 10 710 0 c525 0 678 -3 589 -10z m146
-232 c-16 -9 -54 -14 -104 -15 -95 0 -98 -8 -4 -11 36 -1 76 -8 89 -14 22 -12
22 -12 -6 -12 -38 0 -65 -35 -65 -83 0 -66 61 -115 98 -78 21 21 13 29 -13 12
-23 -15 -25 -15 -50 10 -43 43 -24 126 29 126 34 0 50 -25 53 -83 5 -109 1
-1242 -6 -1447 -6 -181 -8 -195 -9 -87 l-2 128 -26 -24 c-20 -19 -27 -38 -33
-93 -6 -49 -9 13 -10 209 l-1 277 23 1 c21 0 21 1 2 9 -17 7 -14 9 13 9 42 1
38 26 -4 26 l-29 1 -2 441 -3 440 -41 62 c-22 33 -46 64 -52 68 -6 4 -324 8
-707 8 -382 1 -715 6 -739 11 -43 9 -70 34 -37 34 9 0 16 7 16 15 0 8 1 15 3
15 1 1 313 4 692 7 380 3 692 7 694 9 2 2 -308 4 -689 4 -442 0 -691 3 -684
10 5 5 304 13 749 18 407 5 772 9 810 10 65 1 68 0 45 -13z m-2380 -5 c59 -6
54 -7 -52 -8 -69 -1 -119 2 -123 8 -7 11 75 12 175 0z m-813 -129 c13 -11 50
-25 81 -32 69 -14 115 -55 132 -119 23 -85 -16 -192 -72 -198 -61 -7 -173 154
-198 286 -15 81 5 103 57 63z m3073 -77 l43 -67 -11 -126 c-7 -69 -14 -279
-16 -466 -9 -678 -14 -856 -27 -871 -14 -18 -69 -18 -93 -1 -12 9 -17 23 -14
47 2 29 8 36 28 38 14 2 32 5 40 8 13 4 13 6 0 14 -13 8 -16 73 -20 417 -4
224 -7 341 -8 258 -5 -309 -13 -631 -18 -652 -2 -13 -9 -23 -14 -23 -5 0 -9
164 -10 407 0 223 -2 409 -5 411 -6 6 -11 -449 -8 -670 3 -152 2 -158 -17
-158 -20 0 -20 7 -22 583 -1 337 -4 540 -8 482 -4 -55 -8 -313 -9 -573 -1
-381 2 -478 13 -500 7 -15 16 -46 19 -70 11 -85 51 -111 118 -76 17 8 33 13
36 10 8 -7 -17 -66 -28 -66 -5 0 -9 -5 -9 -11 0 -11 -44 -83 -92 -152 -11 -16
-18 -30 -16 -31 1 -1 31 2 66 7 62 9 63 9 88 58 28 56 59 75 101 64 l28 -8
-35 -7 c-49 -9 -60 -17 -77 -57 -26 -64 9 -132 62 -119 15 4 25 2 25 -5 0 -6
-9 -13 -21 -16 -16 -4 -17 -8 -7 -14 9 -6 6 -9 -12 -10 -14 0 -20 -3 -13 -5 6
-3 27 -1 46 4 19 5 40 6 47 2 17 -10 -26 -24 -180 -56 -105 -22 -165 -27 -370
-34 -242 -8 -1600 -3 -1609 6 -2 2 155 5 350 5 195 1 575 5 844 8 413 6 445 7
203 9 l-288 2 0 23 c0 13 -5 28 -12 35 -9 9 -6 14 13 21 16 7 -63 10 -251 11
-151 1 -293 5 -315 9 -32 7 -34 9 -12 10 15 0 27 4 27 7 0 3 -18 26 -39 52
-24 29 -45 67 -53 97 -7 28 -17 53 -21 56 -5 4 -1 18 8 32 17 27 13 48 -8 46
-9 0 -9 -2 0 -6 14 -5 12 -7 -44 -71 -18 -20 -33 -32 -33 -27 0 6 -4 4 -9 -3
-7 -11 -9 -10 -14 3 -4 9 -3 14 3 10 6 -3 13 1 16 9 3 9 10 14 14 11 8 -5 24
24 22 37 -1 4 6 4 15 1 11 -4 14 -3 9 5 -4 7 -2 12 6 12 10 0 11 2 0 8 -9 6
-6 12 12 20 19 8 26 8 30 -1 2 -7 5 -4 5 7 1 15 -4 17 -24 12 -14 -4 -25 -2
-25 4 0 5 14 10 30 10 30 0 30 0 30 58 0 36 3 52 9 43 12 -18 56 -7 94 25 58
49 76 26 52 -67 -22 -84 -14 -133 33 -200 45 -64 139 -119 204 -119 57 0 150
52 182 101 30 44 34 62 8 29 -17 -21 -19 -21 -32 -4 -14 16 -13 17 3 11 11 -4
16 -3 12 3 -3 6 0 10 7 10 9 0 9 3 -2 10 -13 8 -12 10 3 10 10 0 15 5 12 10
-10 17 -19 11 -43 -26 -18 -27 -21 -39 -12 -49 9 -11 7 -16 -9 -25 -17 -9 -21
-8 -21 5 0 10 5 13 12 9 7 -4 8 -3 4 4 -11 19 -34 2 -29 -21 5 -21 4 -21 -15
2 -14 18 -21 21 -27 11 -5 -9 -4 -11 3 -6 7 4 12 5 12 2 0 -2 2 -11 5 -19 10
-26 -107 -22 -162 5 -56 28 -115 98 -82 98 5 0 8 -3 6 -7 -3 -5 1 -14 8 -20
11 -10 13 -8 11 10 -1 12 -6 30 -10 40 -9 19 -1 47 13 47 5 0 14 -12 20 -27
21 -56 74 -93 131 -93 144 0 192 199 62 258 -20 9 -38 17 -40 18 -7 4 19 54
28 54 6 0 8 -4 5 -10 -3 -5 -1 -10 4 -10 16 0 13 18 -5 28 -11 6 -4 8 23 6 54
-3 55 -3 48 -13 -7 -12 41 1 81 22 16 8 41 28 55 44 37 41 87 110 69 97 -10
-8 -55 -10 -135 -6 -66 3 -170 5 -232 6 -62 1 -105 4 -95 8 13 5 11 7 -8 8
-67 2 -169 81 -211 163 -11 21 -22 62 -24 90 -3 39 -2 43 3 17 10 -51 21 -25
20 50 0 40 6 79 16 100 9 19 14 27 11 17 -3 -10 -8 -36 -11 -57 -5 -33 -4 -38
12 -37 14 2 23 -10 35 -46 8 -26 19 -44 24 -40 4 5 5 0 2 -9 -4 -10 -2 -18 4
-18 6 0 9 -6 6 -13 -2 -7 19 -36 47 -65 41 -42 63 -56 106 -67 111 -30 190
-17 260 41 38 31 38 33 -16 -43 -20 -29 -9 -46 27 -41 25 4 27 2 17 -11 -7 -9
5 0 26 19 50 46 89 108 83 131 -3 11 -1 17 4 13 5 -3 8 36 7 93 -1 81 -2 90
-8 48 -4 -27 -8 -44 -8 -37 -1 8 -10 26 -20 40 -22 33 -43 102 -35 115 3 6 2
7 -4 4 -5 -3 -17 7 -27 24 -9 16 -21 29 -26 29 -5 0 -15 10 -21 22 -12 22 -12
22 15 5 17 -11 26 -13 26 -6 0 7 9 4 21 -7 12 -10 24 -18 27 -16 4 2 8 -2 11
-9 2 -7 -1 -9 -9 -4 -9 6 -9 3 0 -14 10 -21 30 -21 30 0 0 30 -133 141 -167
139 -4 -1 14 -12 40 -26 26 -14 45 -29 42 -34 -3 -5 -28 4 -55 21 -27 16 -68
34 -92 39 l-43 9 50 -4 c34 -2 44 -1 30 5 -11 5 -67 8 -125 8 -58 0 -94 -3
-80 -7 22 -6 23 -8 7 -14 -10 -4 -28 -2 -39 4 -11 6 -22 8 -25 5 -3 -3 2 -9
12 -12 14 -6 11 -10 -16 -22 -19 -8 -41 -16 -49 -18 -8 -1 -32 -21 -52 -44
-21 -23 -39 -36 -43 -30 -3 5 1 13 9 16 9 3 14 10 11 14 -5 8 24 37 34 33 3
-2 6 3 6 10 1 6 7 11 14 9 7 -1 19 2 25 8 7 5 16 7 19 3 4 -3 7 -1 7 6 0 7 5
9 12 5 7 -4 8 -3 4 4 -5 9 -15 8 -37 -3 -16 -9 -29 -13 -29 -10 0 3 -9 1 -19
-5 -32 -16 -34 6 -4 30 15 12 23 24 18 28 -6 4 -16 17 -22 29 -12 22 -11 22
55 26 48 2 36 4 -43 5 -75 2 -105 5 -95 12 8 5 29 10 45 10 17 0 37 6 43 12 9
9 87 15 282 19 284 7 292 8 326 58 15 21 14 21 -44 15 -32 -4 -197 -3 -366 1
-280 7 -307 9 -316 25 -8 16 -6 18 15 15 14 -1 29 -6 33 -10 4 -4 -4 -4 -18
-1 -19 6 -21 5 -10 -3 10 -7 123 -11 320 -11 261 0 309 2 328 16 21 14 22 23
22 133 0 64 -3 121 -7 127 -5 5 0 1 10 -9 9 -11 17 -15 17 -10 0 6 -8 17 -19
27 -16 14 -59 18 -332 24 -173 5 -320 10 -327 13 -21 6 -72 -62 -80 -109 -13
-77 -38 -31 -69 130 -4 23 -1 28 23 33 16 3 38 9 49 12 11 3 297 9 635 12 338
4 674 8 746 9 l131 2 43 -66z m-2453 -11 c-2 -16 -4 -5 -4 22 0 28 2 40 4 28
2 -13 2 -35 0 -50z m63 20 c11 3 18 1 14 -4 -9 -15 -41 -10 -55 9 -13 15 -12
16 3 3 10 -7 27 -11 38 -8z m514 -34 c15 -22 12 -49 -6 -49 -5 0 -7 4 -4 8 3
5 -9 16 -26 26 -23 14 -27 20 -17 27 22 14 37 10 53 -12z m-29 -28 c3 -5 1
-12 -5 -16 -5 -3 -10 1 -10 9 0 18 6 21 15 7z m435 -38 c0 -19 -3 -24 -10 -17
-6 6 -8 18 -4 27 9 24 14 21 14 -10z m603 -24 c5 -19 4 -20 -12 -5 -14 13 -56
16 -262 19 l-244 2 256 3 c253 2 257 2 262 -19z m-571 -89 l3 -75 288 -3 287
-2 0 22 c0 12 3 19 6 15 4 -3 4 -18 0 -32 l-6 -25 -289 0 c-237 0 -292 3 -304
14 -20 20 -32 157 -15 167 21 13 27 -2 30 -81z m1805 48 c-3 -7 -5 -2 -5 12 0
14 2 19 5 13 2 -7 2 -19 0 -25z m-1647 3 c26 -49 1 -101 -47 -101 -54 0 -79
52 -47 98 20 29 79 31 94 3z m364 3 c37 -36 7 -104 -45 -104 -29 0 -59 31 -59
60 0 50 69 79 104 44z m63 -56 c-2 -13 -4 -5 -4 17 -1 22 1 32 4 23 2 -10 2
-28 0 -40z m-1590 -296 c-1 -53 -3 -7 -3 103 0 110 2 154 3 97 2 -57 2 -147 0
-200z m629 266 c49 -33 64 -67 64 -140 -1 -49 -3 -59 -11 -45 -6 10 -9 34 -7
52 2 19 0 31 -5 28 -5 -3 -6 4 -3 15 5 15 -1 29 -21 49 -15 16 -20 19 -10 8
27 -34 9 -36 -23 -3 -17 17 -35 26 -41 22 -8 -5 -9 -3 -5 5 5 7 15 10 23 7 8
-3 11 -1 8 5 -4 5 -16 7 -28 3 -29 -9 -116 -11 -110 -1 2 4 13 7 24 7 10 0 19
5 19 11 0 19 90 2 126 -23z m-345 -15 c12 -16 12 -17 -1 -7 -8 6 -22 14 -30
17 -13 5 -12 6 1 6 9 1 23 -7 30 -16z m316 -27 c11 -4 24 -14 28 -23 5 -15 4
-15 -12 -1 -35 30 -47 31 -15 1 44 -42 42 -73 -5 -118 -42 -39 -85 -46 -115
-18 -28 25 -21 33 14 16 28 -14 35 -14 57 -2 38 21 37 84 -1 112 -22 17 -31
18 -58 8 -27 -9 -30 -8 -21 3 6 7 8 16 4 20 -4 4 0 4 10 0 9 -3 17 -2 17 2 0
11 66 11 97 0z m-1520 -93 c-2 -21 -4 -6 -4 32 0 39 2 55 4 38 2 -18 2 -50 0
-70z m1574 17 l-7 -45 -5 40 c-4 23 -1 43 5 47 14 9 14 9 7 -42z m-1199 -2
c45 -13 55 -36 39 -96 -21 -75 -122 -130 -221 -120 l-35 3 -3 102 -3 102 38 6
c21 4 45 8 53 10 35 7 95 4 132 -7z m991 0 c-6 -7 -13 -20 -16 -28 -3 -9 -6
-3 -6 13 -1 19 4 27 15 27 12 0 14 -4 7 -12z m90 -15 c-7 -2 -19 -2 -25 0 -7
3 -2 5 12 5 14 0 19 -2 13 -5z m2684 -43 c30 0 36 -5 49 -37 20 -47 11 -101
-19 -112 -75 -28 -227 50 -227 116 0 32 32 44 104 38 32 -3 74 -5 93 -5z
m-2666 -50 c43 -1 50 -3 36 -11 -32 -19 -101 -2 -133 33 l-29 31 36 -26 c28
-21 47 -27 90 -27z m123 24 c3 -8 2 -12 -4 -9 -6 3 -10 10 -10 16 0 14 7 11
14 -7z m-1465 -72 c6 -29 11 -97 11 -150 l-1 -97 -19 24 c-18 21 -20 39 -20
159 0 140 9 160 29 64z m1271 21 c0 -7 -39 17 -46 28 -3 6 5 3 20 -6 14 -10
26 -19 26 -22z m444 -38 c-6 -16 -24 -21 -24 -7 0 11 11 22 21 22 5 0 6 -7 3
-15z m-209 -29 c62 -26 65 -38 54 -250 -5 -104 -11 -192 -14 -194 -3 -3 -5 82
-5 189 0 237 -2 242 -82 249 -31 3 -60 8 -64 13 -13 13 76 7 111 -7z m263 -18
c-2 -6 -10 -14 -16 -16 -7 -2 -10 2 -6 12 7 18 28 22 22 4z m1507 -57 c3 -5 1
-12 -5 -16 -5 -3 -10 1 -10 9 0 18 6 21 15 7z m-939 -23 c19 -23 19 -23 -2 -5
-11 9 -24 14 -29 10 -4 -5 -5 -2 -1 5 9 16 10 16 32 -10z m-1540 -63 c4 -33 7
-70 8 -82 1 -13 7 -23 14 -23 14 0 14 -2 6 -25 -5 -13 -8 -14 -15 -3 -5 7 -7
-17 -5 -56 2 -44 8 -71 17 -77 11 -7 10 -9 -4 -9 -17 0 -18 -9 -14 -122 6
-144 10 -184 19 -193 4 -4 3 -18 -3 -32 -14 -38 -11 -90 6 -97 8 -3 16 -1 16
4 1 6 3 15 4 20 1 6 3 35 4 65 0 30 6 55 11 55 6 0 10 -59 10 -157 0 -86 -3
-154 -6 -151 -10 11 -54 -43 -54 -67 0 -14 -4 -25 -10 -25 -7 0 -10 153 -10
438 0 240 -3 475 -6 522 -8 96 0 106 12 15z m502 -308 l57 -3 -65 -2 -65 -2 5
182 5 183 3 -177 2 -177 58 -4z m23 293 c2 -35 0 -44 -12 -41 -8 2 -24 3 -36
3 -19 0 -23 6 -23 29 0 21 4 27 15 23 9 -4 14 -14 13 -23 -2 -9 4 -16 12 -16
10 0 16 12 18 39 4 49 9 43 13 -14z m890 -16 c9 -11 2 -9 -18 6 -18 13 -33 25
-33 27 0 8 38 -17 51 -33z m-854 -16 c-3 -7 -5 -2 -5 12 0 14 2 19 5 13 2 -7
2 -19 0 -25z m786 13 c32 -21 62 -59 53 -68 -3 -4 -6 0 -6 7 0 9 -6 8 -20 -5
-14 -13 -18 -27 -15 -50 4 -36 -18 -65 -47 -60 -12 2 -15 -2 -10 -13 4 -11 7
-12 10 -3 3 8 11 2 22 -16 21 -35 12 -43 -51 -43 -32 0 -57 7 -80 23 -37 25
-63 77 -41 85 6 2 10 8 7 13 -4 5 0 6 8 3 17 -6 79 55 70 69 -3 6 -1 7 5 3 6
-3 13 -2 16 2 6 10 68 8 85 -2 21 -14 33 5 15 25 -9 10 -21 16 -26 13 -6 -4
-5 -10 3 -16 11 -8 11 -9 -1 -5 -8 2 -19 12 -25 23 -5 10 -21 21 -35 22 -38 6
-38 12 1 12 19 0 47 -8 62 -19z m-1858 -88 c-2 -21 -9 -78 -15 -128 -17 -150
-21 -170 -31 -153 -5 10 -3 56 5 114 8 55 18 123 21 152 4 28 11 52 16 52 5 0
7 -17 4 -37z m-260 -51 c-15 -88 -27 -106 -19 -31 5 48 23 114 29 107 1 -2 -3
-36 -10 -76z m4089 26 c11 -84 17 -243 7 -228 -4 8 -12 62 -15 120 -4 58 -10
115 -13 128 -3 12 -1 22 5 22 5 0 12 -19 16 -42z m-237 -30 c-3 -7 -5 -2 -5
12 0 14 2 19 5 13 2 -7 2 -19 0 -25z m306 25 c-7 -2 -21 -2 -30 0 -10 3 -4 5
12 5 17 0 24 -2 18 -5z m-4013 -53 c0 -5 -4 -10 -10 -10 -5 0 -10 5 -10 10 0
6 5 10 10 10 6 0 10 -4 10 -10z m1785 -39 c25 -28 26 -32 8 -22 -21 11 -43 40
-43 57 0 4 1 5 3 3 1 -2 16 -19 32 -38z m1948 -151 c6 -44 5 -50 -4 -30 -6 14
-12 68 -14 120 -3 84 -3 87 4 30 4 -36 11 -90 14 -120z m-1893 72 c31 -10 32
-11 5 -6 -35 6 -90 46 -106 75 -6 11 7 3 28 -18 22 -22 54 -44 73 -51z m145
78 c3 -5 1 -10 -4 -10 -6 0 -11 5 -11 10 0 6 2 10 4 10 3 0 8 -4 11 -10z
m-1985 -10 c0 -5 -7 -10 -15 -10 -8 0 -15 5 -15 10 0 6 7 10 15 10 8 0 15 -4
15 -10z m3853 3 c-13 -2 -33 -2 -45 0 -13 2 -3 4 22 4 25 0 35 -2 23 -4z
m-4079 -191 c-8 -205 -1 -242 49 -269 49 -27 177 -25 214 3 35 27 58 100 68
217 5 64 11 87 21 87 10 0 14 -14 16 -42 l1 -43 7 45 c12 80 11 -195 -2 -294
-12 -95 -22 -120 -45 -112 -8 3 -13 -2 -13 -14 0 -11 4 -20 9 -20 10 0 9 -245
0 -255 -6 -5 -59 292 -62 347 -2 34 -3 35 -31 25 -37 -13 -147 -2 -192 19 -43
21 -65 61 -75 139 l-8 60 3 -67 c2 -44 10 -78 23 -100 18 -30 19 -38 8 -78
-12 -41 -13 -42 -14 -14 -1 17 -10 53 -22 79 -24 54 -27 146 -8 268 16 101 27
114 23 26 l-3 -74 9 80 c25 223 33 218 24 -13z m56 132 c0 -8 -5 -12 -10 -9
-6 4 -8 11 -5 16 9 14 15 11 15 -7z m4050 6 c0 -5 -21 -9 -47 -9 -47 2 -47 2
-13 9 52 11 60 11 60 0z m-3882 -7 c-10 -2 -28 -2 -40 0 -13 2 -5 4 17 4 22 1
32 -1 23 -4z m3922 -38 c0 -9 -42 -22 -95 -30 -66 -9 -51 4 22 20 72 16 73 16
73 10z m-3920 -26 c29 -7 25 -8 -22 -4 -31 3 -67 9 -80 15 -18 8 -13 9 22 4
25 -3 61 -10 80 -15z m1610 -59 c0 -5 -4 -10 -10 -10 -5 0 -10 5 -10 10 0 6 5
10 10 10 6 0 10 -4 10 -10z m-943 -32 c-3 -8 -6 -5 -6 6 -1 11 2 17 5 13 3 -3
4 -12 1 -19z m-762 -18 c-3 -5 -12 -10 -18 -10 -7 0 -6 4 3 10 19 12 23 12 15
0z m50 -10 c4 -6 -6 -10 -22 -9 -25 0 -26 1 -8 9 11 5 21 9 22 9 1 1 5 -3 8
-9z m3955 1 c-16 -9 -114 -22 -106 -14 7 8 67 21 96 22 19 0 21 -2 10 -8z
m-1937 -8 c-18 -2 -48 -2 -65 0 -18 2 -4 4 32 4 36 0 50 -2 33 -4z m-1306 -35
c-3 -8 -6 -5 -6 6 -1 11 2 17 5 13 3 -3 4 -12 1 -19z m626 -11 c4 3 7 1 7 -5
0 -6 -9 -10 -20 -9 -11 1 -20 8 -20 15 0 11 3 12 13 3 8 -6 17 -8 20 -4z m62
3 c-3 -5 0 -10 8 -10 8 0 25 -9 38 -19 20 -16 22 -22 11 -33 -11 -11 -12 -10
-7 5 5 12 2 17 -11 18 -40 3 -84 19 -84 31 0 6 7 8 15 5 8 -4 17 -2 20 3 4 6
8 10 11 10 3 0 2 -4 -1 -10z m-1417 -7 c-10 -2 -26 -2 -35 0 -10 3 -2 5 17 5
19 0 27 -2 18 -5z m1422 -53 c18 -12 2 -12 -25 0 -13 6 -15 9 -5 9 8 0 22 -4
30 -9z m-93 -36 c-9 -9 -28 6 -21 18 4 6 10 6 17 -1 6 -6 8 -13 4 -17z m93 4
c37 -14 59 -38 53 -56 -5 -11 -3 -13 8 -7 12 8 12 6 0 -8 -13 -17 -16 -16 -40
7 -14 14 -43 32 -63 41 -46 18 -53 49 -10 39 15 -4 38 -11 52 -16z m-130 2 c0
-5 -2 -10 -4 -10 -3 0 -8 5 -11 10 -3 6 -1 10 4 10 6 0 11 -4 11 -10z m86
-122 c12 -13 13 -18 4 -13 -28 17 -49 15 -65 -7 -8 -13 -15 -17 -15 -10 0 14
36 52 48 52 5 0 17 -10 28 -22z m211 6 c-3 -3 -12 -4 -19 -1 -8 3 -5 6 6 6 11
1 17 -2 13 -5z m-1840 -46 c2 -18 0 -20 -7 -8 -12 18 -13 30 -2 30 4 0 9 -10
9 -22z m1143 7 c5 3 10 0 10 -9 0 -8 -6 -16 -12 -19 -10 -3 -10 -7 0 -19 18
-23 2 -28 -33 -13 -16 7 -25 14 -20 14 28 3 37 18 24 42 -11 22 -11 23 4 11 9
-8 21 -11 27 -7z m301 -40 c4 3 9 -8 13 -25 3 -17 10 -29 14 -26 5 3 9 -1 9
-8 0 -9 -7 -12 -16 -8 -13 4 -12 1 3 -16 24 -27 13 -42 -13 -18 -27 24 -51 78
-51 113 0 43 13 49 25 13 6 -17 13 -29 16 -25z m169 20 c-15 -18 -50 -20 -50
-4 0 7 9 9 21 6 16 -4 23 0 27 16 3 12 7 16 10 9 2 -7 -2 -19 -8 -27z m223 18
c-7 -2 -19 -2 -25 0 -7 3 -2 5 12 5 14 0 19 -2 13 -5z m2421 -14 c-4 -7 0 -9
13 -5 18 6 50 -16 53 -36 0 -4 3 -15 6 -23 14 -36 -50 -93 -114 -102 -33 -4
-44 -1 -74 26 -28 25 -35 37 -33 64 3 44 12 58 32 50 11 -4 14 -3 9 5 -5 8 -1
10 10 5 12 -4 15 -3 10 5 -4 7 -3 12 3 12 25 0 17 -18 -14 -33 -19 -9 -35 -23
-35 -31 0 -8 -3 -23 -7 -33 -3 -10 -2 -15 2 -10 5 4 19 -3 32 -15 47 -44 154
-15 161 44 4 30 -19 51 -78 71 l-45 16 38 1 c25 0 36 -4 31 -11z m-3974 -26
c20 -18 30 -35 29 -52 -2 -26 -2 -26 -6 2 -6 35 -35 53 -100 60 -46 5 -54 3
-68 -16 -9 -13 -15 -16 -15 -8 0 8 -3 11 -6 8 -9 -8 21 -69 43 -89 28 -26 77
-29 112 -7 38 23 41 8 4 -21 -54 -42 -147 -10 -171 59 -10 28 2 76 17 67 5 -3
14 1 21 9 8 10 30 15 61 15 39 0 55 -6 79 -27z m1553 20 c-7 -2 -19 -2 -25 0
-7 3 -2 5 12 5 14 0 19 -2 13 -5z m448 -9 c9 -11 10 -20 2 -32 -13 -21 -47
-30 -40 -10 2 7 10 12 16 11 6 -2 11 4 11 12 0 8 -7 15 -15 15 -8 0 -15 -4
-15 -10 0 -5 -4 -10 -10 -10 -14 0 -12 27 3 33 22 10 34 7 48 -9z m-701 -27
l25 -4 -26 -2 c-15 0 -33 7 -40 17 -12 15 -12 16 1 5 8 -6 26 -13 40 -16z
m253 16 c-7 -2 -19 -2 -25 0 -7 3 -2 5 12 5 14 0 19 -2 13 -5z m-1641 -25 c-7
-7 -12 -8 -12 -2 0 6 3 14 7 17 3 4 9 5 12 2 2 -3 -1 -11 -7 -17z m58 -14 c0
-14 -4 -23 -9 -20 -7 5 -8 23 -2 44 4 12 11 -3 11 -24z m3985 6 c0 -7 -6 -15
-12 -17 -8 -3 -13 4 -13 17 0 13 5 20 13 18 6 -3 12 -11 12 -18z m-2180 -10
c3 -5 -1 -10 -10 -10 -9 0 -13 5 -10 10 3 6 8 10 10 10 2 0 7 -4 10 -10z m170
0 c-4 -6 6 -11 22 -11 18 -1 22 -3 10 -6 -24 -6 -50 4 -42 17 3 5 8 10 11 10
3 0 2 -4 -1 -10z m-2175 -34 c0 0 -9 -44 -20 -96 -11 -52 -20 -115 -21 -140 0
-37 -2 -41 -9 -23 -7 16 -14 21 -26 16 -14 -5 -16 -2 -10 18 22 75 14 143 -16
136 -7 -1 -12 5 -13 13 0 8 -6 14 -11 13 -7 -1 -9 9 -6 23 3 18 8 22 15 15 17
-17 27 -13 36 12 8 20 15 23 45 19 20 -2 36 -5 36 -6z m2014 -1 c-4 -8 -10
-12 -15 -9 -14 8 -10 24 6 24 9 0 12 -6 9 -15z m-2107 -10 c0 -8 -4 -15 -9
-15 -10 0 -11 14 -1 23 9 10 10 9 10 -8z m4061 -133 c-20 -82 -38 -107 -38
-54 0 15 6 36 14 47 7 11 19 37 26 58 21 65 20 36 -2 -51z m-1612 51 c-7 -7
-26 7 -26 19 0 6 6 6 15 -2 9 -7 13 -15 11 -17z m-2476 2 c7 -8 16 -13 20 -10
9 5 20 -18 20 -42 0 -13 -3 -13 -15 -3 -9 7 -13 15 -10 18 6 7 -15 32 -27 32
-5 0 -6 -6 -2 -12 4 -7 3 -9 -1 -5 -12 10 -15 37 -5 37 4 0 13 -7 20 -15z
m1768 -10 c-3 -3 -9 2 -12 12 -6 14 -5 15 5 6 7 -7 10 -15 7 -18z m-158 -1 c0
-8 -19 -13 -24 -6 -3 5 1 9 9 9 8 0 15 -2 15 -3z m97 -16 c-3 -8 -6 -5 -6 6
-1 11 2 17 5 13 3 -3 4 -12 1 -19z m-1423 4 c2 -4 -11 -6 -30 -4 -19 2 -34 6
-34 8 0 8 59 4 64 -4z m3259 1 c-7 -2 -13 -13 -13 -23 0 -10 -4 -22 -10 -25
-5 -3 -10 -14 -10 -23 0 -13 2 -13 15 4 14 19 14 18 15 -3 0 -15 -6 -23 -17
-23 -14 0 -13 -3 5 -16 25 -18 21 -34 -10 -34 -29 0 -47 28 -48 73 0 43 28 77
63 76 12 0 16 -3 10 -6z m775 0 c-21 -2 -55 -2 -75 0 -21 2 -4 4 37 4 41 0 58
-2 38 -4z m-4319 -55 c-12 -22 9 -25 30 -5 11 10 13 9 9 -3 -6 -18 -46 -26
-61 -11 -8 8 -7 11 2 11 8 0 11 6 7 16 -8 21 4 40 15 23 4 -7 3 -21 -2 -31z
m238 6 c-3 -3 -12 -4 -19 -1 -8 3 -5 6 6 6 11 1 17 -2 13 -5z m3990 0 c-3 -3
-12 -4 -19 -1 -8 3 -5 6 6 6 11 1 17 -2 13 -5z m138 -4 c-16 -4 -52 -7 -80 -7
l-50 0 55 7 c30 4 66 7 80 7 22 1 21 0 -5 -7z m-4057 -7 c-10 -2 -28 -2 -40 0
-13 2 -5 4 17 4 22 1 32 -1 23 -4z m747 -23 c3 -5 1 -10 -4 -10 -6 0 -11 5
-11 10 0 6 2 10 4 10 3 0 8 -4 11 -10z m2518 -3 c3 -8 -1 -14 -8 -14 -7 0 -11
6 -8 14 3 7 6 13 8 13 2 0 5 -6 8 -13z m-3355 -4 c-10 -2 -26 -2 -35 0 -10 3
-2 5 17 5 19 0 27 -2 18 -5z m4182 -3 c-14 -4 -65 -8 -115 -7 l-90 1 95 6
c141 9 139 9 110 0z m-3510 -20 c8 -5 11 -10 5 -10 -5 0 -17 5 -25 10 -8 5
-10 10 -5 10 6 0 17 -5 25 -10z m144 -19 c-2 -3 -12 3 -22 13 -16 17 -16 18 5
5 12 -7 20 -15 17 -18z m305 13 c8 -8 -95 -2 -119 7 -16 5 1 6 45 2 39 -3 72
-7 74 -9z m-177 -32 c3 -24 1 -28 -14 -24 -19 4 -22 19 -12 46 9 22 21 11 26
-22z m-47 -32 c4 -6 -9 -10 -32 -10 -28 0 -34 3 -23 10 20 13 47 13 55 0z
m828 3 c-13 -2 -33 -2 -45 0 -13 2 -3 4 22 4 25 0 35 -2 23 -4z m2387 -32 c0
-16 -18 -22 -45 -15 -20 5 -23 9 -13 15 18 12 58 11 58 0z m-50 -120 c-6 -12
-15 -21 -20 -21 -6 0 -27 -15 -48 -34 l-38 -35 4 35 c3 24 0 34 -9 34 -29 0
21 33 68 45 51 13 61 8 43 -24z m280 -14 c57 -28 106 -59 108 -67 2 -11 -1
-10 -12 4 -19 24 -34 13 -29 -21 l4 -28 -21 27 c-17 22 -24 25 -34 15 -11 -10
-10 -14 3 -24 14 -11 12 -12 -13 -13 -25 0 -27 -3 -21 -22 4 -13 9 -39 12 -58
3 -19 11 -38 17 -42 6 -4 -2 -8 -19 -8 l-30 0 4 56 c3 57 -8 79 -35 70 -7 -3
-10 3 -7 15 3 10 10 19 17 19 6 1 -4 9 -23 18 -19 9 -36 24 -39 32 -2 10 -1
11 5 3 4 -6 21 -15 38 -19 l29 -7 -38 51 c-21 29 -34 52 -29 52 4 0 55 -24
113 -53z m-119 16 c8 -9 4 -19 -12 -35 -12 -13 -19 -17 -15 -10 4 6 3 12 -2
12 -6 0 -13 -8 -17 -17 -6 -16 -8 -15 -17 7 -6 16 -6 26 1 28 5 2 7 10 4 18
-7 18 43 16 58 -3z m-4038 -11 c3 -4 -3 -18 -14 -31 -18 -21 -19 -22 -26 -5
-4 11 -14 24 -22 31 -13 10 -10 12 21 13 20 0 39 -3 41 -8z m882 -10 c-3 -3
-11 0 -18 7 -9 10 -8 11 6 5 10 -3 15 -9 12 -12z m-822 -24 c9 -20 16 -26 16
-16 1 9 -3 20 -9 23 -5 3 -10 11 -10 18 0 6 16 -4 35 -23 l35 -33 -32 -19
c-27 -17 -33 -17 -45 -5 -15 15 -26 87 -14 87 4 0 15 -15 24 -32z m822 2 c13
-6 15 -9 5 -9 -8 0 -22 4 -30 9 -18 12 -2 12 25 0z m2013 3 c18 -4 20 -8 10
-14 -16 -11 -80 -11 -133 -1 -39 7 -38 7 25 13 36 3 67 6 70 7 3 1 16 -1 28
-5z m855 -18 c-10 -13 -22 -25 -27 -25 -5 0 1 11 14 25 30 32 36 32 13 0z
m-89 -25 c8 -17 12 -30 10 -30 -4 0 -46 24 -63 37 -8 5 21 33 29 28 5 -3 15
-19 24 -35z m-2727 24 c-3 -3 -12 -4 -19 -1 -8 3 -5 6 6 6 11 1 17 -2 13 -5z
m1625 -6 c-5 -7 -9 -50 -8 -96 2 -46 -1 -85 -5 -88 -5 -2 -5 -12 -2 -21 4 -10
2 -14 -4 -10 -6 4 -13 -3 -17 -16 -5 -23 -8 -24 -85 -19 -74 4 -79 3 -86 -17
-3 -11 -10 -21 -15 -21 -5 0 -12 -27 -16 -61 -7 -61 -7 -61 -36 -55 -15 3 -49
3 -75 -1 -36 -5 -49 -12 -62 -34 -9 -16 -21 -29 -27 -29 -17 0 -24 -25 -24
-85 0 -29 -7 -119 -16 -201 -15 -141 -14 -288 2 -385 l6 -36 -75 -2 c-56 -2
-103 -11 -179 -37 -131 -44 -143 -44 -134 -2 18 92 17 272 -3 489 -12 125 -21
234 -21 243 0 9 -8 16 -20 16 -12 0 -25 10 -32 25 -13 28 -28 34 -108 37 l-55
3 -5 55 c-8 83 -23 100 -90 100 -31 0 -63 -7 -74 -15 -25 -19 -56 1 -56 37 0
15 -5 30 -11 34 -7 4 -9 23 -5 51 3 25 1 53 -4 64 -7 13 -7 19 0 19 13 0 13
37 0 45 -5 3 -10 10 -10 16 0 5 262 9 681 9 544 0 679 -3 671 -12z m-2583 -90
c22 -37 22 -38 2 -38 -11 0 -23 -4 -26 -10 -3 -5 -12 -10 -18 -10 -8 0 -8 3
-2 8 6 4 11 14 13 22 3 12 1 13 -9 3 -21 -21 -30 -15 -26 15 3 20 9 27 25 26
12 0 19 3 16 8 -3 4 -23 5 -46 2 -39 -7 -40 -6 -27 14 27 43 55 32 98 -40z
m3901 50 c0 -13 -7 -31 -14 -41 -13 -17 -16 -17 -38 -3 -14 9 -28 13 -31 9 -4
-3 -7 -1 -7 6 0 9 57 42 88 50 1 1 2 -9 2 -21z m-4200 -7 c0 -5 -8 -11 -17
-13 -25 -6 -54 3 -47 13 7 12 64 12 64 0z m1249 -17 c14 -12 -39 -1 -55 11
-17 13 -16 14 16 3 19 -6 37 -13 39 -14z m1971 17 l24 -7 -22 -22 c-29 -29
-105 -32 -100 -4 2 9 13 18 26 20 12 2 22 8 22 13 0 10 13 10 50 0z m725 -5
c10 -7 20 -24 22 -37 2 -16 0 -20 -6 -11 -6 10 -14 5 -31 -23 -12 -20 -24 -34
-27 -31 -3 2 3 16 12 30 10 14 13 26 9 26 -5 0 -1 7 9 14 17 13 17 15 -5 30
-12 9 -18 16 -12 16 6 0 19 -6 29 -14z m-3465 -51 c12 -19 20 -39 18 -44 -2
-5 -15 11 -30 35 -15 24 -23 44 -18 44 4 0 18 -16 30 -35z m-316 6 c7 -11 -28
-21 -78 -21 -65 0 -22 24 51 29 12 0 24 -3 27 -8z m3992 -13 c10 -13 12 -17 4
-10 -8 6 -20 12 -28 12 -10 0 -11 -4 -5 -12 6 -7 12 -23 15 -34 l5 -21 -32 21
c-30 20 -31 22 -16 43 20 28 33 29 57 1z m164 12 c22 -6 23 -8 7 -15 -23 -10
-109 4 -102 16 7 11 59 10 95 -1z m-4373 -42 c-3 -7 -5 -2 -5 12 0 14 2 19 5
13 2 -7 2 -19 0 -25z m1478 2 c3 -5 1 -10 -6 -10 -7 0 -1 -10 12 -21 l24 -22
-25 6 c-14 4 -34 7 -45 8 -11 0 -14 3 -7 6 6 2 9 9 6 15 -4 6 0 14 7 19 18 11
26 11 34 -1z m1818 0 c7 0 13 -11 13 -24 2 -26 5 -25 -133 -42 -55 -7 -74 8
-30 22 l22 8 -25 7 c-20 5 -15 7 22 8 26 1 50 6 53 12 4 6 13 8 21 5 8 -3 14
-1 14 5 0 6 7 8 16 5 9 -3 21 -6 27 -6z m-228 -10 c3 -5 2 -10 -4 -10 -5 0
-13 5 -16 10 -3 6 -2 10 4 10 5 0 13 -4 16 -10z m-1770 -20 c13 -5 14 -9 5 -9
-8 0 -24 4 -35 9 -13 5 -14 9 -5 9 8 0 24 -4 35 -9z m2842 -30 c-6 -16 -15
-30 -18 -30 -4 0 -2 14 4 30 6 17 15 30 18 30 4 0 2 -13 -4 -30z m431 -25 c2
-2 -19 -5 -47 -6 -57 -4 -62 -2 -28 10 18 8 64 5 75 -4z m-4570 -2 c-10 -2
-28 -2 -40 0 -13 2 -5 4 17 4 22 1 32 -1 23 -4z m3312 -33 c0 -30 -41 -41
-139 -38 -67 2 -79 5 -56 11 17 5 37 11 45 15 12 5 100 24 143 31 4 0 7 -8 7
-19z m807 14 c-3 -3 -12 -4 -19 -1 -8 3 -5 6 6 6 11 1 17 -2 13 -5z m-2834
-11 c-7 -2 -19 -2 -25 0 -7 3 -2 5 12 5 14 0 19 -2 13 -5z m197 -8 c0 -8 -5
-15 -11 -15 -5 0 -7 -4 -4 -10 4 -6 -7 -10 -24 -10 -33 0 -39 12 -18 35 16 19
57 19 57 0z m2440 0 c0 -8 -4 -15 -10 -15 -5 0 -7 7 -4 15 4 8 8 15 10 15 2 0
4 -7 4 -15z m612 -37 c3 -33 1 -38 -17 -37 -11 0 -14 3 -7 6 6 2 12 23 13 46
1 47 6 40 11 -15z m-4553 -15 c1 -13 -3 -23 -9 -23 -5 0 -10 19 -9 43 0 32 2
37 9 22 5 -11 9 -30 9 -42z m4146 48 c3 -5 1 -12 -5 -16 -7 -4 -7 -13 0 -26 8
-13 8 -24 0 -37 -10 -15 -10 -14 -5 4 6 23 -20 58 -36 49 -10 -7 -12 18 -2 28
10 10 41 8 48 -2z m-2841 -16 c3 -9 0 -15 -8 -15 -8 0 -16 7 -20 15 -3 9 0 15
8 15 8 0 16 -7 20 -15z m2076 -5 c0 -5 -2 -10 -4 -10 -3 0 -8 5 -11 10 -3 6
-1 10 4 10 6 0 11 -4 11 -10z m544 -32 c-9 -14 -37 -5 -40 14 -2 14 2 15 22 6
13 -6 21 -15 18 -20z m-2087 -65 c-2 -16 -4 -3 -4 27 0 30 2 43 4 28 2 -16 2
-40 0 -55z m2258 48 c-6 -5 -25 10 -25 20 0 5 6 4 14 -3 8 -7 12 -15 11 -17z
m-3638 3 c-3 -3 -12 -4 -19 -1 -8 3 -5 6 6 6 11 1 17 -2 13 -5z m2873 -9 c0
-21 -72 -55 -116 -55 -20 0 -46 8 -59 19 l-24 18 75 7 c42 3 83 10 92 16 24
13 32 12 32 -5z m-1801 -11 c2 -2 1 -9 -2 -17 -6 -16 -119 -33 -138 -21 -21
13 63 51 101 46 19 -3 37 -6 39 -8z m-1475 -23 c4 -5 -3 -7 -14 -4 -23 6 -26
13 -6 13 8 0 17 -4 20 -9z m4469 -6 c-3 -9 -8 -14 -10 -11 -3 3 -2 9 2 15 9
16 15 13 8 -4z m-4518 -5 c-3 -5 -13 -10 -21 -10 -8 0 -12 5 -9 10 3 6 13 10
21 10 8 0 12 -4 9 -10z m2722 -12 c-3 -8 -6 -5 -6 6 -1 11 2 17 5 13 3 -3 4
-12 1 -19z m710 -75 c-2 -16 -4 -3 -4 27 0 30 2 43 4 28 2 -16 2 -40 0 -55z
m-1903 32 c8 -23 -13 -29 -114 -32 -65 -2 -86 0 -68 6 14 5 32 12 39 16 8 5
10 4 5 -3 -11 -17 3 -15 22 4 15 15 16 15 23 -2 6 -16 8 -16 8 -2 1 27 75 38
85 13z m1806 10 c0 -2 -18 -14 -40 -25 -30 -16 -59 -20 -127 -20 -82 0 -89 2
-90 20 -1 14 2 18 10 13 7 -4 23 -6 36 -4 16 2 21 -1 16 -10 -6 -9 -4 -10 6
-3 25 16 189 41 189 29z m-2006 -14 c3 -5 -1 -11 -9 -14 -9 -4 -12 -1 -8 9 6
16 10 17 17 5z m1728 -13 c-7 -7 -12 -8 -12 -2 0 14 12 26 19 19 2 -3 -1 -11
-7 -17z m-2972 -73 l25 -14 -30 4 c-16 2 -33 4 -37 4 -5 1 -8 6 -8 11 0 14 20
12 50 -5z m4415 6 c8 -14 -10 -22 -30 -15 -13 5 -14 8 -3 15 17 11 26 11 33 0z
m-1058 -108 c-2 -21 -4 -6 -4 32 0 39 2 55 4 38 2 -18 2 -50 0 -70z m-2344
-90 l1 -128 3 115 c4 112 15 158 28 109 3 -13 4 -80 1 -149 -2 -69 -5 -151 -5
-182 -1 -88 -21 -70 -22 20 -1 75 -2 74 -13 -45 -7 -67 -16 -126 -20 -130 -10
-9 0 403 10 480 11 78 17 45 17 -90z m1828 -311 c-12 -20 -15 386 -3 415 4 10
8 -76 10 -190 1 -124 -2 -215 -7 -225z m47 210 c1 -114 -1 -202 -7 -202 -16 0
-21 60 -21 237 0 135 3 174 13 171 9 -4 13 -56 15 -206z m-1324 137 c5 14 12
19 17 14 13 -13 7 -379 -6 -376 -5 1 -13 24 -16 50 -3 27 -7 37 -8 23 -1 -20
-3 -22 -11 -10 -5 8 -9 92 -9 190 1 157 2 170 13 130 11 -40 13 -43 20 -21z
m-754 11 c2 28 4 23 12 -28 8 -48 7 -71 -4 -95 l-13 -32 -6 45 -6 45 -2 -50
c-1 -27 -6 -70 -11 -95 -7 -32 -8 -9 -5 80 3 69 8 136 12 150 7 23 8 22 14
-15 l6 -40 3 35z m1841 -64 c6 -6 9 -6 9 1 0 16 68 56 85 50 35 -14 45 -136
19 -229 l-17 -58 -48 6 c-38 5 -49 3 -50 -7 -2 -38 -18 34 -18 84 -1 54 -14
77 -24 40 -3 -10 -5 27 -5 82 l0 100 13 -65 13 -65 2 75 c2 50 5 61 7 35 3
-22 9 -44 14 -49z m-864 -226 c0 -63 -2 -92 -4 -65 -2 28 -8 54 -14 60 -6 5
-9 5 -9 -3 0 -25 -44 -11 -81 27 -29 28 -39 47 -39 70 0 89 87 179 119 124 8
-14 11 -9 12 27 4 82 17 -119 16 -240z m1248 11 c-12 -12 -45 45 -45 78 0 19
10 64 23 100 l22 67 3 -120 c1 -65 0 -121 -3 -125z m154 199 c23 -12 33 -70
25 -148 -7 -59 -7 -60 -30 -50 -23 11 -24 14 -23 132 1 67 4 111 6 98 2 -12
12 -26 22 -32z m178 -57 c-2 -21 -4 -4 -4 37 0 41 2 58 4 38 2 -21 2 -55 0
-75z m-247 -45 c0 -71 -1 -76 -20 -71 -18 5 -20 14 -20 102 l0 96 20 -25 c15
-20 20 -41 20 -102z m-1780 58 c0 -6 5 -4 10 4 7 10 10 -14 10 -78 0 -83 -2
-93 -17 -90 -29 5 -33 18 -33 118 1 86 2 93 15 76 8 -11 15 -25 15 -30z m-150
-51 c0 -41 -3 -75 -6 -75 -3 0 -14 5 -25 10 -38 21 -19 140 22 140 5 0 9 -34
9 -75z m763 -13 c4 -46 4 -89 0 -95 -5 -8 -24 -10 -53 -6 l-45 6 46 1 c41 2
46 4 45 25 -1 20 -5 22 -44 19 -33 -3 -42 0 -42 12 0 12 10 16 40 16 54 0 51
20 -2 22 l-43 1 43 4 c40 4 42 5 42 38 0 32 -2 34 -40 38 l-40 4 42 -1 43 -1
8 -83z m-683 -1 c0 -74 -1 -79 -20 -74 -18 5 -20 14 -20 79 0 67 2 74 20 74
18 0 20 -7 20 -79z m1170 34 c0 -14 6 -25 13 -25 8 0 7 -3 -3 -10 -18 -11 -18
-11 -25 28 -3 19 -1 32 5 32 5 0 10 -11 10 -25z m-1010 -57 c-1 -66 -2 -71
-15 -54 -15 20 -21 107 -8 119 17 18 23 1 23 -65z m1855 17 c0 -30 -5 -50 -12
-52 -10 -4 -13 11 -13 52 0 41 3 56 13 53 7 -3 12 -23 12 -53z m-2177 -7 c-2
-31 -8 -44 -20 -46 -15 -3 -18 4 -18 36 0 36 8 49 33 51 5 1 7 -18 5 -41z
m1843 32 c6 -49 -1 -90 -16 -90 -11 0 -15 12 -15 50 0 38 4 50 15 50 8 0 16
-4 16 -10z m388 -42 c-1 -42 -1 -42 -10 -13 -5 17 -7 36 -4 43 9 24 15 11 14
-30z m-1861 15 c-5 -25 -28 -28 -28 -4 0 12 6 21 16 21 9 0 14 -7 12 -17z
m-790 -19 c-10 -9 -78 -12 -84 -3 -3 5 16 9 42 9 26 0 45 -3 42 -6z m1772 -4
c-19 -13 -30 -13 -30 0 0 6 10 10 23 10 18 0 19 -2 7 -10z m13 -37 c-7 -2 -21
-2 -30 0 -10 3 -4 5 12 5 17 0 24 -2 18 -5z m-565 -10 c-10 -2 -26 -2 -35 0
-10 3 -2 5 17 5 19 0 27 -2 18 -5z m-1141 -75 c-3 -8 -6 -5 -6 6 -1 11 2 17 5
13 3 -3 4 -12 1 -19z m1156 5 c-13 -2 -33 -2 -45 0 -13 2 -3 4 22 4 25 0 35
-2 23 -4z m1787 -43 c12 -8 11 -10 -7 -10 -13 0 -23 5 -23 10 0 13 11 13 30 0z
m0 -50 c-19 -13 -30 -13 -30 0 0 6 10 10 23 10 18 0 19 -2 7 -10z m-2397 -82
c350 -1 637 -6 637 -10 0 -5 -16 -16 -36 -24 -30 -13 -122 -14 -642 -12 -550
3 -610 5 -638 20 -17 10 -34 14 -38 11 -3 -4 -6 2 -6 11 0 16 6 17 43 12 23
-3 329 -6 680 -8z m634 -70 c-3 -7 -5 -2 -5 12 0 14 2 19 5 13 2 -7 2 -19 0
-25z m-671 -62 l604 1 30 21 c16 12 27 16 25 9 -16 -40 -27 -40 -645 -45 -572
-3 -596 -3 -629 16 -19 10 -37 25 -39 33 -3 8 8 3 22 -11 l28 -25 604 1z
m1639 -6 l370 -6 -350 -2 c-339 -2 -415 3 -431 29 -3 6 4 5 17 -3 19 -10 110
-14 394 -18z"/>
<path d="M3665 6369 c-4 -6 -5 -12 -2 -15 2 -3 7 2 10 11 7 17 1 20 -8 4z"/>
<path d="M3691 6365 c-1 -22 16 -45 34 -45 5 0 3 6 -6 13 -9 7 -19 21 -22 32
-5 19 -5 19 -6 0z"/>
<path d="M4330 6353 c0 -12 3 -29 6 -38 17 -42 126 -61 157 -27 16 18 15 18
-13 14 -39 -6 -116 23 -135 51 l-15 21 0 -21z"/>
<path d="M3390 6338 c0 -17 9 -33 22 -42 12 -9 17 -16 10 -16 -6 0 -21 9 -32
20 l-20 20 0 -23 c0 -12 7 -33 16 -46 14 -20 23 -22 58 -18 28 4 48 15 64 33
23 26 23 49 0 26 -17 -17 -31 -15 -25 2 4 11 -4 16 -31 18 -27 2 -40 9 -49 28
l-13 25 0 -27z"/>
<path d="M3976 6334 c-10 -27 -7 -43 14 -64 31 -31 136 -23 116 8 -3 6 0 12 6
15 7 3 -6 2 -29 0 -38 -5 -46 -2 -72 26 -23 25 -30 28 -35 15z"/>
<path d="M3654 6311 c8 -45 21 -59 61 -67 35 -6 78 14 95 46 10 19 8 20 -61
24 -25 1 -51 6 -57 10 -7 4 -12 2 -12 -5 0 -7 -7 -4 -16 7 -15 18 -15 17 -10
-15z m146 -15 c0 -2 -7 -7 -16 -10 -8 -3 -12 -2 -9 4 6 10 25 14 25 6z"/>
<path d="M2878 6348 c-9 -22 15 -41 44 -35 21 4 21 4 -4 6 -19 1 -27 7 -30 24
-3 18 -4 19 -10 5z"/>
<path d="M3646 6014 c-12 -31 -6 -53 20 -73 15 -12 33 -21 41 -21 20 0 63 46
63 67 0 14 -3 13 -13 -6 -6 -13 -23 -28 -37 -32 l-25 -9 23 16 c12 9 22 23 22
30 0 16 -42 29 -69 21 -14 -3 -18 -1 -14 9 3 8 3 14 0 14 -3 0 -8 -7 -11 -16z
m38 -63 c-5 -6 -34 20 -34 30 0 5 8 1 18 -8 10 -10 17 -20 16 -22z"/>
<path d="M3197 6003 c-13 -12 -7 -23 11 -22 10 0 12 3 4 6 -6 2 -10 9 -6 14 6
10 0 12 -9 2z"/>
<path d="M4495 6000 c3 -5 8 -10 11 -10 2 0 4 5 4 10 0 6 -5 10 -11 10 -5 0
-7 -4 -4 -10z"/>
<path d="M2932 5985 c4 -23 29 -27 36 -6 3 9 0 11 -8 6 -7 -4 -16 -2 -22 6 -7
11 -8 9 -6 -6z"/>
<path d="M3322 5966 c1 -20 7 -41 15 -47 22 -19 64 -13 86 12 21 22 21 22 1 6
-23 -19 -54 -23 -54 -7 0 6 -7 10 -16 8 -12 -2 -18 6 -21 27 -6 43 -13 44 -11
1z"/>
<path d="M3343 5973 c2 -22 7 -28 28 -30 16 -1 34 6 44 17 16 17 16 19 -4 29
-11 6 -31 11 -45 11 -21 0 -25 -4 -23 -27z"/>
<path d="M4000 5974 c0 -38 27 -64 66 -64 21 0 25 3 15 9 -8 5 -21 7 -30 3 -9
-3 -13 -2 -9 3 11 11 -12 36 -25 28 -6 -3 -7 -1 -3 5 4 7 2 20 -3 29 -9 15
-10 13 -11 -13z"/>
<path d="M4042 5983 c4 -20 30 -28 56 -18 16 6 15 8 -2 21 -28 20 -58 18 -54
-3z"/>
<path d="M4470 5983 c0 -25 15 -38 25 -22 4 6 0 18 -9 27 -15 15 -16 15 -16
-5z"/>
<path d="M4670 5979 c0 -5 9 -9 20 -9 11 0 20 2 20 4 0 2 -9 6 -20 9 -11 3
-20 1 -20 -4z"/>
<path d="M4597 5968 c2 -5 10 -8 18 -8 8 0 16 3 18 8 3 4 -5 7 -18 7 -13 0
-21 -3 -18 -7z"/>
<path d="M3037 5943 c-12 -12 -7 -41 8 -47 39 -14 62 24 26 44 -23 12 -26 12
-34 3z"/>
<path d="M3194 5935 c-7 -18 3 -35 21 -35 15 0 28 27 19 41 -8 14 -34 11 -40
-6z"/>
<path d="M4204 5939 c-10 -17 18 -40 36 -29 11 7 11 10 2 10 -7 0 -11 4 -8 9
3 5 -1 11 -9 15 -8 3 -17 0 -21 -5z"/>
<path d="M4340 5940 c-13 -8 -13 -11 2 -26 20 -20 47 -12 44 13 -3 21 -24 27
-46 13z"/>
<path d="M4831 5904 c0 -11 3 -14 6 -6 3 7 2 16 -1 19 -3 4 -6 -2 -5 -13z"/>
<path d="M4498 5883 c7 -3 16 -2 19 1 4 3 -2 6 -13 5 -11 0 -14 -3 -6 -6z"/>
<path d="M4950 5871 c0 -8 -7 -11 -17 -6 -15 5 -16 4 -5 -6 9 -10 15 -10 24
-1 6 6 9 15 5 19 -4 3 -7 1 -7 -6z"/>
<path d="M3672 5828 c-17 -17 -15 -53 3 -68 20 -17 62 -5 70 21 13 40 -44 76
-73 47z"/>
<path d="M3130 5810 c0 -5 5 -10 10 -10 6 0 10 5 10 10 0 6 -4 10 -10 10 -5 0
-10 -4 -10 -10z"/>
<path d="M3160 5794 c0 -8 5 -12 10 -9 6 4 8 11 5 16 -9 14 -15 11 -15 -7z"/>
<path d="M4102 5790 c2 -10 -3 -14 -14 -12 -13 2 -18 -4 -18 -18 0 -16 5 -21
22 -18 25 3 36 34 18 52 -9 8 -11 7 -8 -4z"/>
<path d="M3315 5777 c-4 -11 -3 -23 3 -29 12 -12 42 -4 42 11 0 6 -6 8 -14 5
-8 -3 -16 2 -19 13 -4 17 -4 17 -12 0z"/>
<path d="M4240 5775 c-11 -13 -10 -14 4 -9 9 3 16 10 16 15 0 13 -6 11 -20 -6z"/>
<path d="M4545 5780 l-30 -8 30 -1 c17 0 37 4 45 9 13 9 13 10 0 9 -8 -1 -28
-5 -45 -9z"/>
<path d="M3190 5770 c0 -5 5 -10 10 -10 6 0 10 5 10 10 0 6 -4 10 -10 10 -5 0
-10 -4 -10 -10z"/>
<path d="M3630 5766 c0 -27 51 -58 85 -52 29 6 55 29 55 50 0 6 -7 0 -16 -12
-18 -25 -50 -22 -96 10 -23 16 -28 17 -28 4z"/>
<path d="M4658 5773 c6 -2 18 -2 25 0 6 3 1 5 -13 5 -14 0 -19 -2 -12 -5z"/>
<path d="M4991 5748 c-1 -10 5 -18 13 -18 20 0 29 17 15 26 -8 4 -9 3 -5 -4 4
-7 3 -12 -3 -12 -5 0 -12 6 -14 13 -3 7 -6 5 -6 -5z"/>
<path d="M4188 5730 c-10 -11 -13 -22 -8 -25 6 -4 10 -2 10 4 0 5 7 17 16 25
8 9 12 16 7 16 -5 0 -16 -9 -25 -20z"/>
<path d="M4403 5731 c-17 -11 -33 -17 -36 -15 -6 7 -58 -56 -53 -65 3 -3 -5
-18 -16 -31 l-20 -25 17 30 18 30 -21 -19 c-12 -11 -22 -25 -22 -31 0 -7 -7
-18 -14 -25 -18 -14 -46 -96 -56 -164 l-8 -51 0 45 c-1 25 9 76 22 113 12 37
19 64 15 60 -15 -16 -119 -231 -119 -247 0 -9 -4 -16 -9 -16 -5 0 -8 -8 -6
-17 1 -10 -1 -22 -5 -28 -10 -12 -7 -103 4 -130 8 -20 8 -20 -8 0 -29 35 -40
97 -39 210 2 121 3 135 13 135 4 0 7 6 8 13 0 6 3 26 6 42 l5 30 -15 -33 c-42
-94 -58 -267 -33 -357 22 -80 70 -161 138 -235 38 -41 67 -80 64 -87 -3 -9 0
-11 10 -7 8 3 44 -9 78 -27 107 -54 195 -79 274 -79 86 0 207 29 278 67 55 29
194 159 183 170 -3 4 -19 -6 -34 -20 -16 -15 -32 -24 -36 -20 -4 4 -4 0 0 -10
3 -10 1 -17 -5 -17 -6 0 -20 -9 -31 -20 -25 -25 -49 -26 -45 -2 1 9 7 16 13
15 5 -1 16 4 22 12 7 8 9 15 5 15 -4 0 -2 7 5 16 11 12 11 15 0 12 -7 -2 -15
3 -18 11 -3 8 0 11 7 7 6 -4 11 -1 11 6 0 7 16 35 35 62 19 27 32 52 29 55 -3
3 -35 -26 -72 -65 -47 -49 -85 -79 -127 -98 -33 -15 -68 -32 -77 -37 -20 -10
-138 -12 -162 -3 -34 13 -12 22 67 26 112 7 184 36 251 101 28 29 34 36 12 16
-73 -66 -98 -74 -221 -74 -103 0 -114 2 -176 32 -79 39 -140 102 -177 181 -21
47 -26 72 -26 142 -1 98 29 206 70 253 27 32 113 74 165 82 l34 5 -35 -11
c-19 -6 -44 -19 -55 -29 -11 -9 -27 -15 -35 -12 -8 2 -12 1 -8 -3 6 -7 -54
-93 -76 -107 -6 -4 -8 -8 -3 -8 4 0 0 -12 -10 -26 -11 -17 -18 -53 -21 -108
-5 -104 21 -178 86 -248 65 -69 135 -101 238 -106 100 -5 145 13 232 93 31 28
62 50 68 48 12 -4 44 66 43 95 0 12 -3 9 -11 -8 -10 -24 -10 -24 -18 -5 -5 11
-9 47 -9 81 -1 73 -18 169 -36 204 -29 56 -97 120 -163 152 -59 29 -76 33
-152 33 -93 0 -136 -16 -214 -77 -31 -25 -40 -28 -47 -17 -22 33 11 88 71 120
19 10 31 18 25 19 -5 0 -24 -9 -42 -19z m-33 -25 c0 -2 -8 -10 -17 -17 -16
-13 -17 -12 -4 4 13 16 21 21 21 13z m336 -91 c95 -28 174 -124 174 -211 0
-81 -47 -84 -184 -14 -54 28 -108 50 -121 50 -39 0 -55 25 -55 88 0 69 7 82
51 92 52 12 81 11 135 -5z m144 -30 c19 -19 32 -35 29 -35 -3 0 -20 16 -39 35
-19 19 -32 35 -29 35 3 0 20 -16 39 -35z m-623 -127 c-3 -8 -6 -5 -6 6 -1 11
2 17 5 13 3 -3 4 -12 1 -19z m-10 -50 c-3 -7 -5 -2 -5 12 0 14 2 19 5 13 2 -7
2 -19 0 -25z m-20 -120 c-3 -7 -5 -2 -5 12 0 14 2 19 5 13 2 -7 2 -19 0 -25z
m13 -35 c-11 -17 -11 -17 -6 0 3 10 6 24 7 30 0 9 2 9 5 0 3 -7 0 -20 -6 -30z
m11 -40 c-12 -20 -14 -14 -5 12 4 9 9 14 11 11 3 -2 0 -13 -6 -23z m37 -65
c23 -52 21 -65 -1 -20 -16 29 -33 80 -25 72 3 -3 15 -26 26 -52z m677 -207
c-2 -15 -21 -22 -38 -13 -11 6 10 29 27 29 7 0 13 -7 11 -16z m-41 -46 c1 -9
8 -20 16 -25 9 -6 6 -10 -11 -15 -13 -5 -26 -7 -28 -6 -2 2 -7 -2 -10 -7 -3
-5 -14 1 -24 14 -10 14 -15 24 -10 23 20 -3 34 2 28 11 -4 6 -11 7 -17 4 -7
-4 -8 -2 -4 5 6 9 11 9 22 0 11 -9 15 -8 20 5 7 19 14 16 18 -9z"/>
<path d="M4906 4942 c-3 -5 1 -9 9 -9 8 0 12 4 9 9 -3 4 -7 8 -9 8 -2 0 -6 -4
-9 -8z"/>
<path d="M4867 4880 c-8 -11 -17 -18 -20 -15 -4 3 -5 2 -2 -2 12 -15 34 -11
27 5 -5 15 -4 16 14 2 17 -14 18 -13 7 1 -7 9 -10 19 -6 22 3 4 4 7 0 7 -3 0
-12 -9 -20 -20z"/>
<path d="M3235 5720 c-3 -5 -1 -10 4 -10 6 0 11 5 11 10 0 6 -2 10 -4 10 -3 0
-8 -4 -11 -10z"/>
<path d="M3260 5694 c1 -13 29 -48 34 -43 2 2 -4 15 -15 28 -10 13 -19 19 -19
15z"/>
<path d="M4050 5696 c0 -2 7 -7 16 -10 8 -3 12 -2 9 4 -6 10 -25 14 -25 6z"/>
<path d="M4025 5678 c-16 -41 20 -65 46 -30 7 9 10 14 5 10 -5 -4 -17 3 -26
15 -17 20 -19 20 -25 5z"/>
<path d="M4887 5669 c7 -7 15 -10 18 -7 3 3 -2 9 -12 12 -14 6 -15 5 -6 -5z"/>
<path d="M3370 5651 c0 -27 19 -36 37 -18 18 18 9 37 -18 37 -12 0 -19 -7 -19
-19z"/>
<path d="M4125 5654 c-18 -19 -48 -74 -40 -74 14 0 31 26 27 39 -3 9 0 11 8 6
9 -5 11 -4 6 3 -4 7 -3 12 2 12 6 0 12 7 16 15 7 19 1 19 -19 -1z"/>
<path d="M4930 5625 c13 -14 26 -25 28 -25 3 0 -5 11 -18 25 -13 14 -26 25
-28 25 -3 0 5 -11 18 -25z"/>
<path d="M3300 5631 c0 -10 19 -25 25 -20 1 2 -3 10 -11 17 -8 7 -14 8 -14 3z"/>
<path d="M4409 5583 l-24 -28 28 24 c25 23 32 31 24 31 -2 0 -14 -12 -28 -27z"/>
<path d="M3320 5589 c0 -5 5 -7 10 -4 6 3 10 8 10 11 0 2 -4 4 -10 4 -5 0 -10
-5 -10 -11z"/>
<path d="M3336 5571 c-4 -6 -2 -11 4 -11 7 0 10 -7 6 -15 -3 -8 -1 -15 4 -15
12 0 13 20 1 39 -6 9 -11 10 -15 2z"/>
<path d="M3360 5469 c0 -5 5 -7 10 -4 6 3 10 8 10 11 0 2 -4 4 -10 4 -5 0 -10
-5 -10 -11z"/>
<path d="M3630 5431 c-27 -51 8 -121 60 -121 37 0 90 43 74 60 -9 9 -14 9 -19
-1 -5 -8 -4 -10 3 -5 7 4 12 3 12 -3 0 -16 -38 -33 -68 -29 -37 4 -69 60 -54
94 14 29 7 32 -8 5z"/>
<path d="M3666 5431 c-19 -21 -12 -45 18 -71 13 -10 20 -9 41 4 30 20 32 39 5
66 -25 25 -42 25 -64 1z"/>
<path d="M3370 5409 c0 -5 5 -7 10 -4 6 3 10 8 10 11 0 2 -4 4 -10 4 -5 0 -10
-5 -10 -11z"/>
<path d="M5042 5395 c0 -16 2 -22 5 -12 2 9 2 23 0 30 -3 6 -5 -1 -5 -18z"/>
<path d="M3370 5380 c0 -5 5 -10 10 -10 6 0 10 5 10 10 0 6 -4 10 -10 10 -5 0
-10 -4 -10 -10z"/>
<path d="M5127 5370 c3 -11 7 -20 9 -20 2 0 4 9 4 20 0 11 -4 20 -9 20 -5 0
-7 -9 -4 -20z"/>
<path d="M3370 5350 c0 -5 5 -10 10 -10 6 0 10 5 10 10 0 6 -4 10 -10 10 -5 0
-10 -4 -10 -10z"/>
<path d="M5050 5337 c0 -15 4 -27 9 -27 6 0 8 10 6 21 -6 33 -15 36 -15 6z"/>
<path d="M3370 5320 c0 -5 5 -10 10 -10 6 0 10 5 10 10 0 6 -4 10 -10 10 -5 0
-10 -4 -10 -10z"/>
<path d="M3373 5285 c0 -8 4 -15 9 -15 4 0 8 7 8 15 0 8 -4 15 -8 15 -5 0 -9
-7 -9 -15z"/>
<path d="M5132 5245 c0 -16 2 -22 5 -12 2 9 2 23 0 30 -3 6 -5 -1 -5 -18z"/>
<path d="M5053 5225 c-3 -9 -3 -18 -1 -21 3 -3 8 4 11 16 6 23 -1 27 -10 5z"/>
<path d="M5116 5165 c-3 -8 -1 -15 4 -15 6 0 10 7 10 15 0 8 -2 15 -4 15 -2 0
-6 -7 -10 -15z"/>
<path d="M3638 5143 c-24 -27 -31 -60 -23 -109 6 -42 8 -44 39 -44 60 0 115
60 95 104 -18 39 -83 50 -94 16 -13 -41 41 -67 75 -37 12 10 12 9 1 -5 -18
-24 -56 -23 -81 2 -24 24 -25 47 -3 72 9 10 14 18 11 18 -3 0 -12 -8 -20 -17z"/>
<path d="M5106 5125 c-3 -8 -1 -15 4 -15 6 0 10 7 10 15 0 8 -2 15 -4 15 -2 0
-6 -7 -10 -15z"/>
<path d="M5080 5052 c0 -7 -9 -21 -20 -32 -13 -13 -16 -20 -7 -20 15 0 42 49
32 58 -3 3 -5 0 -5 -6z"/>
<path d="M1862 5300 c-1 -15 -7 -31 -14 -38 -17 -17 -94 -15 -111 3 -13 12
-16 12 -21 -8 -3 -12 -5 -98 -4 -192 0 -93 3 -157 5 -141 l5 28 79 -4 79 -3
-1 125 c-1 117 -14 286 -17 230z"/>
<path d="M1723 4820 c0 -25 2 -35 4 -22 2 12 2 32 0 45 -2 12 -4 2 -4 -23z"/>
<path d="M2535 5126 c10 -14 19 -26 22 -26 7 0 -17 39 -28 46 -6 3 -3 -5 6
-20z"/>
<path d="M3694 3925 c-7 -18 3 -35 21 -35 15 0 24 19 18 38 -6 17 -32 15 -39
-3z"/>
<path d="M4650 3920 c0 -5 5 -10 10 -10 6 0 10 5 10 10 0 6 -4 10 -10 10 -5 0
-10 -4 -10 -10z"/>
<path d="M4942 3824 c-7 -8 -8 -14 -3 -14 10 0 25 19 20 25 -2 1 -10 -3 -17
-11z"/>
<path d="M4940 3670 c0 -5 5 -10 10 -10 6 0 10 5 10 10 0 6 -4 10 -10 10 -5 0
-10 -4 -10 -10z"/>
<path d="M4938 2973 c7 -3 16 -2 19 1 4 3 -2 6 -13 5 -11 0 -14 -3 -6 -6z"/>
<path d="M4928 2753 c6 -2 18 -2 25 0 6 3 1 5 -13 5 -14 0 -19 -2 -12 -5z"/>
<path d="M4940 2630 c0 -5 5 -10 10 -10 6 0 10 5 10 10 0 6 -4 10 -10 10 -5 0
-10 -4 -10 -10z"/>
<path d="M4398 3743 c6 -2 18 -2 25 0 6 3 1 5 -13 5 -14 0 -19 -2 -12 -5z"/>
<path d="M4494 3699 c30 -35 34 -82 10 -119 l-16 -25 21 24 c30 33 28 89 -4
124 -35 37 -43 34 -11 -4z"/>
<path d="M4264 3685 c-22 -53 -18 -127 8 -160 43 -55 121 -69 188 -35 50 26
52 34 3 14 -42 -18 -103 -12 -137 13 -21 16 -20 15 32 -3 15 -6 16 -5 1 7 -25
22 -89 124 -89 143 0 10 5 26 10 37 6 10 8 19 5 19 -3 0 -13 -16 -21 -35z"/>
<path d="M4336 3689 c-35 -41 -34 -83 3 -120 16 -16 40 -29 53 -29 20 1 19 3
-9 15 -34 14 -48 33 -15 20 60 -24 73 -24 98 0 47 47 19 125 -44 125 -33 0
-57 -23 -68 -63 -5 -21 -9 -25 -15 -15 -15 23 -10 51 13 75 12 13 19 23 16 23
-4 0 -18 -14 -32 -31z m94 -33 c0 -12 -13 -36 -19 -36 -4 0 -7 9 -8 20 -1 11
4 20 13 20 8 0 14 -2 14 -4z"/>
<path d="M4460 3550 c-9 -6 -10 -10 -3 -10 6 0 15 5 18 10 8 12 4 12 -15 0z"/>
<path d="M4706 3453 c-3 -43 -2 -121 3 -173 8 -91 8 -88 9 78 1 94 0 172 -2
172 -2 0 -6 -35 -10 -77z"/>
<path d="M4754 3485 c-9 -23 14 -45 26 -25 5 8 8 19 7 24 -6 17 -27 18 -33 1z
m21 -5 c3 -5 1 -10 -4 -10 -6 0 -11 5 -11 10 0 6 2 10 4 10 3 0 8 -4 11 -10z"/>
<path d="M4382 3408 c-7 -7 -12 -16 -12 -20 0 -5 -12 -26 -26 -47 -32 -49 -35
-116 -6 -164 l19 -33 -38 -33 c-38 -31 -39 -33 -37 -98 1 -44 -2 -68 -10 -71
-18 -6 -14 -22 5 -22 9 0 14 -3 10 -6 -3 -4 -18 -3 -32 0 -23 6 -25 9 -15 24
7 9 1 4 -14 -11 -14 -15 -29 -40 -32 -54 -11 -42 12 -250 30 -278 16 -24 19
-25 104 -20 134 9 150 13 193 52 21 19 39 38 39 42 0 3 -57 6 -127 5 l-128 -1
115 7 115 6 -117 2 c-123 2 -148 11 -148 53 0 19 0 19 20 -1 11 -11 26 -20 33
-21 6 0 3 -4 -8 -9 -13 -6 7 -9 63 -9 53 -1 81 3 77 9 -3 6 -22 10 -42 10 -42
0 -40 9 3 14 47 7 62 16 72 44 18 52 -10 88 -79 101 l-44 9 46 1 c26 1 61 -2
78 -5 l31 -6 0 -69 c0 -54 3 -69 15 -69 9 0 12 -6 8 -17 -4 -11 -3 -14 5 -9 8
5 12 40 12 102 l0 94 -114 0 -114 0 11 35 c6 19 14 35 19 35 4 0 17 9 28 20
11 11 20 16 20 10 0 -5 6 -10 13 -10 8 0 18 17 23 38 8 33 13 37 44 40 39 4
67 22 34 22 -11 0 -25 5 -32 12 -9 9 -12 8 -12 -5 0 -16 -6 -19 -55 -21 -22
-1 -45 15 -38 27 2 4 -2 7 -9 7 -7 1 1 7 17 15 17 7 25 14 18 14 -6 1 -14 9
-16 19 -4 16 -5 16 -6 0 0 -10 -5 -18 -11 -18 -5 0 -2 15 8 34 l17 34 6 -32 6
-31 2 36 c1 27 8 41 26 53 31 20 33 58 5 86 -11 11 -29 20 -41 20 -15 0 -19 4
-15 16 3 9 6 20 6 25 0 5 12 9 28 9 21 0 24 2 12 10 -20 13 -44 12 -58 -2z
m54 -79 c3 -5 0 -17 -7 -25 -11 -13 -14 -13 -25 8 -12 20 -13 21 -14 4 0 -11
-3 -17 -6 -13 -4 3 -4 12 -1 19 6 16 44 21 53 7z"/>
<path d="M4805 3076 c0 -178 -3 -322 -7 -320 -3 2 -7 -84 -8 -191 0 -169 1
-195 15 -195 13 0 15 60 15 515 0 283 -3 515 -7 515 -5 0 -8 -146 -8 -324z"/>
<path d="M4764 3290 c0 -58 1 -81 3 -52 2 28 2 76 0 105 -2 28 -3 5 -3 -53z"/>
<path d="M3588 3263 c12 -2 32 -2 45 0 12 2 2 4 -23 4 -25 0 -35 -2 -22 -4z"/>
<path d="M3783 3263 c15 -2 37 -2 50 0 12 2 0 4 -28 4 -27 0 -38 -2 -22 -4z"/>
<path d="M3940 3246 c77 -13 101 -13 89 -2 -2 2 -42 7 -89 10 l-85 6 85 -14z"/>
<path d="M4003 3213 c-18 -6 -16 -33 1 -33 19 0 31 19 20 30 -5 4 -15 5 -21 3z"/>
<path d="M3930 3080 c6 -11 13 -20 16 -20 2 0 0 9 -6 20 -6 11 -13 20 -16 20
-2 0 0 -9 6 -20z"/>
<path d="M3996 3033 c-6 -14 -5 -15 5 -6 7 7 10 15 7 18 -3 3 -9 -2 -12 -12z"/>
<path d="M4011 3004 c0 -11 3 -14 6 -6 3 7 2 16 -1 19 -3 4 -6 -2 -5 -13z"/>
<path d="M3390 2731 c5 -11 15 -23 21 -27 6 -3 3 5 -6 20 -20 30 -30 35 -15 7z"/>
<path d="M3975 2640 c-4 -7 -3 -16 3 -22 14 -14 45 -2 40 15 -6 16 -34 21 -43
7z"/>
<path d="M3830 2590 c-21 -7 -21 -8 -5 -9 11 0 27 4 35 9 18 11 5 11 -30 0z"/>
<path d="M4326 2523 c5 -5 12 -12 16 -18 4 -6 8 -2 8 8 0 9 -7 17 -17 17 -9 0
-12 -3 -7 -7z"/>
<path d="M4390 2510 c0 -11 2 -20 4 -20 2 0 6 9 9 20 3 11 1 20 -4 20 -5 0 -9
-9 -9 -20z"/>
<path d="M4292 2500 c7 -11 14 -16 16 -10 2 6 9 7 14 4 7 -4 8 -2 4 5 -4 6
-12 9 -17 6 -5 -4 -9 -1 -9 4 0 6 -5 11 -10 11 -6 0 -5 -8 2 -20z"/>
<path d="M4361 2504 c0 -11 3 -14 6 -6 3 7 2 16 -1 19 -3 4 -6 -2 -5 -13z"/>
<path d="M4435 2509 c-4 -6 -5 -12 -2 -15 2 -3 7 2 10 11 7 17 1 20 -8 4z"/>
<path d="M4260 2501 c0 -5 7 -15 17 -22 15 -13 15 -12 4 9 -12 23 -21 28 -21
13z"/>
<path d="M4182 2453 c-71 -72 -95 -129 -100 -238 -3 -80 -1 -95 21 -135 52
-98 181 -163 279 -141 39 9 115 75 110 95 -2 5 4 6 12 3 17 -7 41 17 31 32 -3
7 0 8 10 5 11 -5 14 -2 9 10 -3 9 -11 16 -18 16 -18 0 -67 -50 -60 -62 4 -7 2
-8 -5 -4 -6 4 -8 12 -5 18 4 5 -6 2 -20 -8 -34 -21 -115 -20 -162 2 -19 9 -50
35 -71 58 -21 22 -41 40 -44 39 -4 -1 -4 7 -1 19 3 13 1 19 -5 15 -5 -3 -10 0
-10 8 0 8 5 11 10 8 6 -4 8 1 4 11 -4 10 -7 24 -7 32 0 8 -8 14 -17 15 -15 0
-15 2 2 8 13 6 23 4 28 -5 4 -8 17 -14 27 -14 11 0 20 -6 21 -12 0 -7 4 -4 9
7 8 18 9 17 9 -6 1 -15 8 -32 16 -39 21 -18 19 -35 -2 -19 -16 13 -17 12 -4
-3 7 -10 17 -16 21 -13 4 3 20 -1 36 -9 32 -15 107 -29 100 -18 -2 4 7 8 21 8
35 3 59 28 73 79 13 47 2 102 -25 125 -8 7 -13 16 -10 20 11 18 -64 58 -102
55 -13 -1 -23 2 -23 6 0 8 -50 -13 -50 -21 0 -3 24 -4 52 -2 29 2 66 -1 82 -8
41 -15 28 -21 -20 -8 -48 13 -83 6 -121 -25 -15 -13 -35 -22 -43 -22 -18 1
-40 -14 -40 -28 0 -6 7 -2 16 9 11 14 11 10 -2 -13 -15 -27 -22 -31 -43 -26
-32 7 -40 13 -18 13 22 0 22 16 0 30 -15 9 -14 10 6 4 18 -5 23 -3 19 8 -4 8
3 20 14 27 14 8 18 9 13 1 -5 -7 0 -7 14 1 11 8 16 16 10 19 -5 4 -1 14 11 25
11 10 21 15 21 12 1 -4 2 -11 3 -16 0 -5 4 -13 9 -17 4 -4 -1 -17 -10 -28 -18
-21 -18 -21 4 -2 18 15 20 22 12 33 -6 7 -8 13 -4 13 4 0 2 7 -5 15 -10 12 -9
15 6 16 11 1 23 1 27 0 5 -1 6 2 3 7 -6 10 82 6 114 -6 14 -5 31 -7 38 -5 7 3
11 1 10 -4 -2 -4 2 -10 7 -11 20 -7 35 -25 28 -35 -3 -5 -2 -7 4 -4 5 3 17 -9
26 -28 9 -19 12 -35 7 -35 -13 0 -9 -21 8 -39 11 -11 11 -15 0 -22 -10 -7 -10
-9 2 -9 12 0 13 -2 1 -9 -7 -5 -10 -14 -7 -20 10 -15 -3 -53 -15 -46 -5 3 -6
-1 -3 -10 4 -9 3 -15 -2 -13 -5 2 -10 -1 -12 -7 -2 -5 -11 -19 -20 -31 -9 -11
0 -3 20 17 48 49 64 106 48 176 -15 70 -58 126 -110 147 -46 18 -180 21 -180
3 0 -5 -8 -3 -17 4 -11 10 -14 10 -9 2 4 -7 3 -13 -2 -13 -6 0 -13 7 -16 16
-3 8 -2 13 2 10 13 -8 35 11 28 23 -12 19 -26 12 -74 -36z m73 -23 c-3 -5 -13
-10 -21 -10 -8 0 -14 -5 -14 -11 0 -5 -5 -7 -12 -3 -8 5 -2 12 17 20 37 16 38
16 30 4z m-40 -50 c3 -6 -1 -7 -9 -4 -18 7 -21 14 -7 14 6 0 13 -4 16 -10z
m183 -76 c12 -8 22 -25 22 -37 0 -21 -1 -21 -13 3 -10 19 -21 25 -45 25 -32 0
-42 9 -19 18 21 9 32 7 55 -9z m-10 -31 c6 -20 -26 -27 -42 -10 -8 8 -12 18
-8 21 10 11 45 2 50 -11z m-9 -34 c25 14 36 -2 14 -20 -12 -10 -14 -10 -9 -1
8 14 5 15 -18 6 -9 -3 -14 -10 -11 -14 3 -5 -5 -6 -17 -2 -21 5 -21 6 -2 13
10 4 13 8 7 8 -7 1 -13 6 -13 12 0 8 4 8 14 0 11 -9 20 -9 35 -2z m-179 -144
c0 -12 -19 -12 -23 0 -4 9 -1 12 9 8 7 -3 14 -7 14 -8z m26 -30 c17 -16 14
-18 -10 -9 -9 3 -16 10 -16 15 0 13 9 11 26 -6z m304 -11 c0 -8 -19 -13 -24
-6 -3 5 1 9 9 9 8 0 15 -2 15 -3z m-260 -25 c0 -6 -4 -7 -10 -4 -5 3 -10 11
-10 16 0 6 5 7 10 4 6 -3 10 -11 10 -16z"/>
<path d="M4483 2485 c0 -8 4 -12 9 -9 5 3 6 10 3 15 -9 13 -12 11 -12 -6z"/>
<path d="M4504 2469 c-4 -7 -3 -9 4 -5 5 3 13 0 15 -6 4 -9 6 -10 6 -1 1 17
-16 25 -25 12z"/>
<path d="M3800 2396 c0 -3 9 -10 20 -16 11 -6 20 -8 20 -6 0 3 -9 10 -20 16
-11 6 -20 8 -20 6z"/>
<path d="M4181 2304 c0 -11 3 -14 6 -6 3 7 2 16 -1 19 -3 4 -6 -2 -5 -13z"/>
<path d="M4770 2289 c0 -24 23 -21 28 4 2 10 -3 17 -12 17 -10 0 -16 -9 -16
-21z"/>
<path d="M4593 2253 c9 -2 23 -2 30 0 6 3 -1 5 -18 5 -16 0 -22 -2 -12 -5z"/>
<path d="M3915 2220 c-16 -7 -17 -9 -3 -9 9 -1 20 4 23 9 7 11 7 11 -20 0z"/>
<path d="M4598 2203 c7 -3 16 -2 19 1 4 3 -2 6 -13 5 -11 0 -14 -3 -6 -6z"/>
<path d="M3908 2193 c7 -3 16 -2 19 1 4 3 -2 6 -13 5 -11 0 -14 -3 -6 -6z"/>
<path d="M3896 2171 c-3 -5 0 -11 7 -14 8 -3 14 1 14 9 0 16 -13 19 -21 5z"/>
<path d="M4555 2130 c3 -5 11 -10 16 -10 6 0 7 5 4 10 -3 6 -11 10 -16 10 -6
0 -7 -4 -4 -10z"/>
<path d="M4550 2105 c7 -8 17 -12 22 -9 6 4 5 10 -3 15 -22 14 -33 10 -19 -6z"/>
<path d="M3576 2084 c-4 -12 -2 -15 9 -10 10 3 15 -1 15 -11 0 -13 3 -14 12
-5 8 8 8 15 -2 27 -16 19 -26 19 -34 -1z"/>
<path d="M3624 2048 c-4 -6 -3 -8 4 -4 5 3 12 1 14 -6 3 -8 7 -6 11 5 7 20
-17 24 -29 5z"/>
<path d="M3664 2032 c4 -3 14 -7 22 -8 9 -1 13 0 10 4 -4 3 -14 7 -22 8 -9 1
-13 0 -10 -4z"/>
<path d="M4770 1923 c14 -3 28 -10 32 -17 5 -7 8 -5 8 7 0 13 -8 17 -32 16
-28 -2 -29 -2 -8 -6z"/>
<path d="M4688 1913 c6 -2 18 -2 25 0 6 3 1 5 -13 5 -14 0 -19 -2 -12 -5z"/>
<path d="M4583 1903 c15 -2 37 -2 50 0 12 2 0 4 -28 4 -27 0 -38 -2 -22 -4z"/>
<path d="M4418 1893 c23 -2 59 -2 80 0 20 2 1 4 -43 4 -44 0 -61 -2 -37 -4z"/>
<path d="M4156 1882 c-3 -2 20 -17 52 -33 56 -27 57 -27 72 -9 8 10 29 26 45
35 29 15 27 15 -67 14 -54 -1 -99 -4 -102 -7z"/>
<path d="M4626 1854 c-4 -10 -2 -22 3 -27 14 -14 43 0 39 20 -4 24 -34 28 -42
7z"/>
<path d="M4299 1844 c-10 -12 -9 -18 4 -31 18 -18 47 -11 47 11 0 25 -35 39
-51 20z"/>
<path d="M4773 1843 c8 -9 20 -12 26 -9 19 12 12 24 -15 24 -23 0 -24 -2 -11
-15z"/>
<path d="M4185 1820 c-3 -5 1 -10 10 -10 9 0 13 5 10 10 -3 6 -8 10 -10 10 -2
0 -7 -4 -10 -10z"/>
<path d="M4858 1823 c7 -3 16 -2 19 1 4 3 -2 6 -13 5 -11 0 -14 -3 -6 -6z"/>
<path d="M4065 1810 c4 -6 11 -8 16 -5 14 9 11 15 -7 15 -8 0 -12 -5 -9 -10z"/>
<path d="M4808 1813 c7 -3 16 -2 19 1 4 3 -2 6 -13 5 -11 0 -14 -3 -6 -6z"/>
<path d="M4683 1793 c9 -2 23 -2 30 0 6 3 -1 5 -18 5 -16 0 -22 -2 -12 -5z"/>
<path d="M4583 1783 c15 -2 37 -2 50 0 12 2 0 4 -28 4 -27 0 -38 -2 -22 -4z"/>
<path d="M3473 3612 c-8 -5 -6 -14 8 -31 10 -13 19 -18 19 -12 0 6 7 11 15 11
8 0 15 7 15 15 0 8 -4 15 -9 15 -5 0 -15 2 -23 5 -7 3 -18 1 -25 -3z"/>
<path d="M3847 3613 c-4 -3 -7 -15 -7 -25 0 -14 6 -19 23 -17 12 2 27 0 33 -4
7 -4 15 1 18 10 11 28 -46 58 -67 36z"/>
<path d="M2910 3561 c0 -4 11 -6 25 -3 14 2 25 6 25 8 0 2 -11 4 -25 4 -14 0
-25 -4 -25 -9z"/>
<path d="M2433 2322 c-15 -2 -23 -10 -23 -24 0 -14 5 -18 16 -14 8 3 12 2 9
-4 -3 -6 -2 -10 3 -10 9 0 27 50 20 54 -2 1 -13 0 -25 -2z"/>
<path d="M1911 2524 c0 -11 3 -14 6 -6 3 7 2 16 -1 19 -3 4 -6 -2 -5 -13z"/>
<path d="M1874 2255 c-4 -9 -4 -19 0 -22 3 -4 6 -1 6 5 0 6 7 9 16 5 11 -4 15
-2 12 7 -7 21 -27 24 -34 5z"/>
<path d="M1581 2174 c0 -11 3 -14 6 -6 3 7 2 16 -1 19 -3 4 -6 -2 -5 -13z"/>
<path d="M4908 1913 c6 -2 18 -2 25 0 6 3 1 5 -13 5 -14 0 -19 -2 -12 -5z"/>
<path d="M2410 6846 c0 -2 8 -10 18 -17 15 -13 16 -12 3 4 -13 16 -21 21 -21
13z"/>
<path d="M4512 6495 c-16 -34 -15 -45 3 -45 10 0 15 11 15 35 0 42 -3 43 -18
10z"/>
<path d="M5530 5521 c0 -5 7 -15 17 -22 15 -13 15 -12 4 9 -12 23 -21 28 -21
13z"/>
<path d="M5771 5280 c12 -22 24 -38 26 -36 4 4 -37 76 -44 76 -2 0 6 -18 18
-40z"/>
<path d="M5891 5074 c0 -11 3 -14 6 -6 3 7 2 16 -1 19 -3 4 -6 -2 -5 -13z"/>
<path d="M5803 3705 c0 -22 2 -30 4 -17 2 12 2 30 0 40 -3 9 -5 -1 -4 -23z"/>
<path d="M5913 3430 c0 -41 2 -58 4 -37 2 20 2 54 0 75 -2 20 -4 3 -4 -38z"/>
<path d="M5831 2654 c0 -11 3 -14 6 -6 3 7 2 16 -1 19 -3 4 -6 -2 -5 -13z"/>
<path d="M5842 2585 c0 -16 2 -22 5 -12 2 9 2 23 0 30 -3 6 -5 -1 -5 -18z"/>
<path d="M5462 2540 c0 -19 2 -27 5 -17 2 9 2 25 0 35 -3 9 -5 1 -5 -18z"/>
<path d="M5853 2460 c0 -30 2 -43 4 -27 2 15 2 39 0 55 -2 15 -4 2 -4 -28z"/>
<path d="M5472 2470 c0 -19 2 -27 5 -17 2 9 2 25 0 35 -3 9 -5 1 -5 -18z"/>
<path d="M5481 2414 c0 -11 3 -14 6 -6 3 7 2 16 -1 19 -3 4 -6 -2 -5 -13z"/>
<path d="M5871 2268 c-5 -14 -5 -28 1 -35 6 -7 7 -13 3 -13 -4 0 -2 -7 5 -15
7 -8 23 -14 35 -13 20 2 22 5 12 23 -6 11 -10 26 -8 34 1 9 -3 12 -12 8 -9 -3
-18 1 -21 10 -5 11 -2 14 9 9 9 -3 13 -2 10 4 -10 17 -25 11 -34 -12z"/>
<path d="M5940 2125 c-10 -13 -9 -15 9 -15 11 0 21 4 21 9 0 18 -18 21 -30 6z"/>
<path d="M5950 2041 c-13 -25 -13 -48 1 -57 7 -4 9 0 5 14 -5 14 0 28 13 41
16 16 17 21 6 21 -8 0 -19 -9 -25 -19z"/>
<path d="M1395 1930 c-4 -6 -11 -7 -17 -4 -7 4 -8 2 -4 -4 10 -16 23 -15 30 3
6 17 0 20 -9 5z"/>
<path d="M1966 1435 c4 -11 9 -41 12 -67 4 -48 10 -54 51 -49 8 2 10 -3 5 -11
-4 -7 7 0 24 16 39 36 44 71 10 63 -13 -2 -32 -8 -43 -12 -17 -6 -17 -5 3 9
12 10 20 22 16 27 -4 6 -14 3 -25 -7 -10 -9 -19 -13 -19 -8 0 5 -10 20 -21 34
-17 20 -19 21 -13 5z m99 -95 c-17 -19 -41 -18 -29 1 3 5 9 7 14 4 5 -3 11 -1
15 5 3 5 9 10 12 10 3 0 -2 -9 -12 -20z"/>
<path d="M5238 983 c7 -3 16 -2 19 1 4 3 -2 6 -13 5 -11 0 -14 -3 -6 -6z"/>
<path d="M5208 913 c7 -3 16 -2 19 1 4 3 -2 6 -13 5 -11 0 -14 -3 -6 -6z"/>
<path d="M5248 913 c7 -3 16 -2 19 1 4 3 -2 6 -13 5 -11 0 -14 -3 -6 -6z"/>
<path d="M5233 843 c9 -2 23 -2 30 0 6 3 -1 5 -18 5 -16 0 -22 -2 -12 -5z"/>
<path d="M5210 760 c20 -13 73 -13 65 0 -3 6 -23 10 -43 10 -28 0 -33 -3 -22
-10z"/>
<path d="M5228 713 c-53 -6 -47 -23 7 -23 33 0 45 4 45 15 0 8 -3 14 -7 13 -5
-1 -25 -3 -45 -5z"/>
</g>
</svg>
